STARTFONT 2.1
FONT -FontForge-Anton-Book-R-Normal--104-1000-75-75-P-443-ISO10646-1
SIZE 100 75 75
FONTBOUNDINGBOX 178 180 -26 -34
COMMENT "Generated by fontforge, http://fontforge.sourceforge.net"
COMMENT "Copyright 2011 The Anton Project Authors"
STARTPROPERTIES 40
FOUNDRY "FontForge"
FAMILY_NAME "Anton"
WEIGHT_NAME "Book"
SLANT "R"
SETWIDTH_NAME "Normal"
ADD_STYLE_NAME ""
PIXEL_SIZE 104
POINT_SIZE 1000
RESOLUTION_X 75
RESOLUTION_Y 75
SPACING "P"
AVERAGE_WIDTH 443
CHARSET_REGISTRY "ISO10646"
CHARSET_ENCODING "1"
FONTNAME_REGISTRY ""
CHARSET_COLLECTIONS "ISO8859-2 ISO8859-9 ISO8859-4 ISO10646-1"
FONT_NAME "Anton-Regular"
FACE_NAME "Anton Regular"
COPYRIGHT "Copyright 2011 The Anton Project Authors"
FONT_VERSION "2.000"
FONT_ASCENT 83
FONT_DESCENT 21
UNDERLINE_POSITION -16
UNDERLINE_THICKNESS 6
X_HEIGHT 75
CAP_HEIGHT 88
DEFAULT_CHAR 1
RAW_ASCENT 800
RAW_DESCENT 200
NORM_SPACE 24
RELATIVE_WEIGHT 40
RELATIVE_SETWIDTH 50
SUPERSCRIPT_X 0
SUPERSCRIPT_Y 36
SUPERSCRIPT_SIZE 62
SUBSCRIPT_X 0
SUBSCRIPT_Y 7
SUBSCRIPT_SIZE 62
AVG_LOWERCASE_WIDTH 486
AVG_UPPERCASE_WIDTH 489
ENDPROPERTIES
CHARS 659
STARTCHAR NULL.dup1
ENCODING 0
SWIDTH 0 0
DWIDTH 0 0
BBX 1 1 0 0
BITMAP
00
ENDCHAR
STARTCHAR uni0002
ENCODING 2
SWIDTH 293 0
DWIDTH 30 0
BBX 1 1 0 0
BITMAP
00
ENDCHAR
STARTCHAR uni0009
ENCODING 9
SWIDTH 293 0
DWIDTH 30 0
BBX 1 1 0 0
BITMAP
00
ENDCHAR
STARTCHAR uni000A
ENCODING 10
SWIDTH 293 0
DWIDTH 30 0
BBX 1 1 0 0
BITMAP
00
ENDCHAR
STARTCHAR nonmarkingreturn
ENCODING 13
SWIDTH 234 0
DWIDTH 24 0
BBX 1 1 0 0
BITMAP
00
ENDCHAR
STARTCHAR space
ENCODING 32
SWIDTH 234 0
DWIDTH 24 0
BBX 1 1 0 0
BITMAP
00
ENDCHAR
STARTCHAR exclam
ENCODING 33
SWIDTH 229 0
DWIDTH 24 0
BBX 18 89 3 0
BITMAP
FFFFC0
FFFFC0
FFFFC0
FFFFC0
FFFFC0
FFFFC0
FFFFC0
FFFFC0
FFFFC0
FFFF80
FFFF80
FFFF80
FFFF80
7FFF80
7FFF80
7FFF80
7FFF80
7FFF80
7FFF80
7FFF80
7FFF80
7FFF80
7FFF80
7FFF80
7FFF80
7FFF80
7FFF80
7FFF00
7FFF00
7FFF00
7FFF00
3FFF00
3FFF00
3FFF00
3FFF00
3FFF00
3FFF00
3FFF00
3FFF00
3FFF00
3FFF00
3FFF00
3FFF00
3FFF00
3FFF00
3FFE00
3FFE00
3FFE00
3FFE00
3FFE00
1FFE00
1FFE00
1FFE00
1FFE00
1FFE00
1FFE00
1FFE00
1FFE00
1FFE00
1FFE00
1FFE00
1FFE00
1FFE00
1FFC00
1FFC00
000000
000000
000000
000000
000000
000000
000000
000000
000000
FFFFC0
FFFFC0
FFFFC0
FFFFC0
FFFFC0
FFFFC0
FFFFC0
FFFFC0
FFFFC0
FFFFC0
FFFFC0
FFFFC0
FFFFC0
FFFFC0
FFFFC0
ENDCHAR
STARTCHAR quotedbl
ENCODING 34
SWIDTH 429 0
DWIDTH 45 0
BBX 40 32 2 57
BITMAP
FFFFC3FFFF
FFFFC1FFFF
FFFFC1FFFF
7FFFC1FFFF
7FFF81FFFF
7FFF81FFFF
7FFF81FFFF
7FFF80FFFE
7FFF80FFFE
3FFF80FFFE
3FFF80FFFE
3FFF80FFFE
3FFF00FFFE
3FFF007FFE
3FFF007FFE
1FFF007FFC
1FFF007FFC
1FFF007FFC
1FFF007FFC
1FFF003FFC
1FFF003FFC
0FFE003FFC
0FFE003FFC
0FFE003FFC
0FFE003FF8
0FFE003FF8
0FFE001FF8
0FFE001FF8
07FE001FF8
07FC001FF8
07FC001FF8
07FC001FF8
ENDCHAR
STARTCHAR numbersign
ENCODING 35
SWIDTH 546 0
DWIDTH 57 0
BBX 53 81 2 0
BITMAP
0000FFFC03FFF8
0001FFFC03FFF8
0001FFFC03FFF0
0001FFF803FFF0
0001FFF803FFF0
0001FFF807FFF0
0003FFF807FFF0
0003FFF807FFE0
0003FFF007FFE0
0003FFF007FFE0
0003FFF00FFFE0
0007FFF00FFFE0
0007FFF00FFFC0
0007FFE00FFFC0
0007FFE00FFFC0
0007FFE01FFFC0
000FFFE01FFFC0
000FFFE01FFFC0
000FFFC01FFF80
000FFFC01FFF80
000FFFC03FFF80
001FFFC03FFF80
001FFFC03FFF80
001FFF803FFF00
1FFFFFFFFFFFF8
1FFFFFFFFFFFF8
1FFFFFFFFFFFF8
1FFFFFFFFFFFF8
1FFFFFFFFFFFF8
1FFFFFFFFFFFF8
1FFFFFFFFFFFF8
1FFFFFFFFFFFF8
1FFFFFFFFFFFF8
1FFFFFFFFFFFF8
1FFFFFFFFFFFF8
1FFFFFFFFFFFF8
007FFE01FFFC00
00FFFE01FFFC00
00FFFE01FFF800
00FFFC01FFF800
00FFFC01FFF800
00FFFC03FFF800
01FFFC03FFF800
FFFFFFFFFFFFC0
FFFFFFFFFFFFC0
FFFFFFFFFFFFC0
FFFFFFFFFFFFC0
FFFFFFFFFFFFC0
FFFFFFFFFFFFC0
FFFFFFFFFFFFC0
FFFFFFFFFFFFC0
FFFFFFFFFFFFC0
FFFFFFFFFFFFC0
FFFFFFFFFFFFC0
FFFFFFFFFFFFC0
07FFE00FFFC000
07FFE00FFFC000
0FFFE01FFFC000
0FFFE01FFFC000
0FFFC01FFF8000
0FFFC01FFF8000
0FFFC01FFF8000
0FFFC03FFF8000
1FFFC03FFF8000
1FFFC03FFF0000
1FFF803FFF0000
1FFF803FFF0000
1FFF807FFF0000
3FFF807FFF0000
3FFF807FFE0000
3FFF007FFE0000
3FFF007FFE0000
3FFF00FFFE0000
7FFF00FFFE0000
7FFF00FFFC0000
7FFE00FFFC0000
7FFE00FFFC0000
7FFE01FFFC0000
FFFE01FFFC0000
FFFE01FFF80000
FFFC01FFF80000
ENDCHAR
STARTCHAR dollar
ENCODING 36
SWIDTH 462 0
DWIDTH 48 0
BBX 44 91 2 -6
BITMAP
00003FC00000
00003FC00000
00003FC00000
00003FC00000
00003FC00000
00003FC00000
0000FFF00000
0007FFFF0000
001FFFFFC000
007FFFFFF000
00FFFFFFF800
01FFFFFFFC00
07FFFFFFFE00
07FFFFFFFF00
0FFFFFFFFF00
1FFFFFFFFF80
1FFFFFFFFF80
3FFFFFFFFFC0
3FFFFFFFFFC0
7FFFFFFFFFE0
7FFFFFFFFFE0
7FFFF1FFFFE0
7FFFC07FFFE0
7FFFC07FFFF0
7FFF803FFFF0
7FFF803FFFF0
7FFFC03FFFF0
7FFFC03FFFF0
7FFFE03FFFF0
7FFFF0000000
7FFFF0000000
3FFFF8000000
3FFFFC000000
3FFFFE000000
1FFFFF000000
1FFFFF800000
0FFFFFC00000
07FFFFE00000
07FFFFF00000
03FFFFF80000
01FFFFFC0000
00FFFFFE0000
007FFFFF0000
003FFFFF8000
001FFFFFC000
000FFFFFE000
0007FFFFF000
0003FFFFF800
0001FFFFFC00
0000FFFFFE00
00007FFFFF00
00003FFFFF00
00001FFFFF80
00000FFFFFC0
000007FFFFC0
000003FFFFE0
000001FFFFE0
000000FFFFE0
FFFF80FFFFF0
FFFF807FFFF0
FFFF803FFFF0
FFFF803FFFF0
FFFFC03FFFF0
FFFFC03FFFF0
FFFFC03FFFF0
FFFFC03FFFF0
FFFFE07FFFF0
FFFFF0FFFFF0
FFFFFFFFFFF0
7FFFFFFFFFF0
7FFFFFFFFFE0
7FFFFFFFFFE0
7FFFFFFFFFE0
3FFFFFFFFFC0
3FFFFFFFFFC0
1FFFFFFFFF80
0FFFFFFFFF00
0FFFFFFFFE00
07FFFFFFFC00
03FFFFFFF800
00FFFFFFF000
003FFFFFC000
000FFFFE0000
00007FE00000
00003FC00000
00003FC00000
00003FC00000
00003FC00000
00003FC00000
00003FC00000
00003FC00000
ENDCHAR
STARTCHAR percent
ENCODING 37
SWIDTH 1057 0
DWIDTH 110 0
BBX 106 91 2 -1
BITMAP
000000000000001FFFE000000000
000000000000003FFFE000000000
0001FF800000003FFFE000000000
001FFFF80000003FFFC000000000
007FFFFE0000003FFFC000000000
01FFFFFF8000007FFFC000000000
03FFFFFFC000007FFF8000000000
07FFFFFFE000007FFF8000000000
0FFFFFFFF00000FFFF8000000000
0FFFFFFFF00000FFFF0000000000
1FFFFFFFF80000FFFF0000000000
3FFFFFFFFC0001FFFF0000000000
3FFFFFFFFC0001FFFF0000000000
3FFFFFFFFC0001FFFE0000000000
7FFF83FFFE0001FFFE0000000000
7FFF00FFFE0003FFFE0000000000
7FFF00FFFE0003FFFC0000000000
7FFF00FFFE0003FFFC0000000000
FFFE007FFF0007FFFC0000000000
FFFE007FFF0007FFF80000000000
FFFE007FFF0007FFF80000000000
FFFE007FFF000FFFF80000000000
FFFE007FFF000FFFF80000000000
FFFE007FFF000FFFF00000000000
FFFE007FFF001FFFF00000000000
FFFE007FFF001FFFF00000000000
FFFE007FFF001FFFE00000000000
FFFE007FFF001FFFE00000000000
FFFE007FFF003FFFE00000000000
FFFE007FFF003FFFC00000000000
FFFE007FFF003FFFC000FFE00000
FFFE007FFF007FFFC007FFFE0000
FFFE007FFF007FFF801FFFFF8000
FFFE007FFF007FFF807FFFFFE000
FFFE007FFF00FFFF80FFFFFFF000
FFFE007FFF00FFFF81FFFFFFF800
FFFE007FFF00FFFF03FFFFFFFC00
FFFE007FFF01FFFF07FFFFFFFC00
FFFE007FFF01FFFF07FFFFFFFE00
FFFE007FFF01FFFE0FFFFFFFFE00
FFFE007FFF01FFFE0FFFFFFFFF00
FFFE007FFF03FFFE1FFFFFFFFF00
FFFE007FFF03FFFC1FFFE0FFFF80
FFFE007FFF03FFFC1FFFC03FFF80
FFFE007FFF07FFFC1FFFC03FFF80
FFFE007FFF07FFFC3FFF803FFF80
7FFE007FFF07FFF83FFF803FFF80
7FFF00FFFE0FFFF83FFF801FFFC0
7FFF81FFFE0FFFF83FFF801FFFC0
7FFFC3FFFE0FFFF03FFF801FFFC0
7FFFFFFFFE0FFFF03FFF801FFFC0
3FFFFFFFFC1FFFF03FFF801FFFC0
3FFFFFFFFC1FFFE03FFF801FFFC0
1FFFFFFFF81FFFE03FFF801FFFC0
1FFFFFFFF83FFFE03FFF801FFFC0
0FFFFFFFF03FFFC03FFF801FFFC0
07FFFFFFE03FFFC03FFF801FFFC0
03FFFFFFC07FFFC03FFF801FFFC0
01FFFFFF807FFFC03FFF801FFFC0
00FFFFFF007FFF803FFF801FFFC0
007FFFFE00FFFF803FFF801FFFC0
001FFFF800FFFF803FFF801FFFC0
0001FF8000FFFF003FFF801FFFC0
0000000000FFFF003FFF801FFFC0
0000000001FFFF003FFF801FFFC0
0000000001FFFE003FFF801FFFC0
0000000001FFFE003FFF801FFFC0
0000000003FFFE003FFF801FFFC0
0000000003FFFC003FFF801FFFC0
0000000003FFFC003FFF801FFFC0
0000000007FFFC003FFF801FFFC0
0000000007FFFC003FFF801FFFC0
0000000007FFF8003FFF801FFFC0
0000000007FFF8003FFF801FFFC0
000000000FFFF8003FFF803FFF80
000000000FFFF0001FFFC03FFF80
000000000FFFF0001FFFC07FFF80
000000001FFFF0001FFFF0FFFF80
000000001FFFE0001FFFFFFFFF00
000000001FFFE0000FFFFFFFFF00
000000003FFFE0000FFFFFFFFF00
000000003FFFE00007FFFFFFFE00
000000003FFFC00007FFFFFFFE00
000000007FFFC00003FFFFFFFC00
000000007FFFC00001FFFFFFF800
000000007FFF800001FFFFFFF000
000000007FFF8000007FFFFFE000
00000000FFFF8000003FFFFFC000
00000000FFFF0000001FFFFF0000
00000001FFFF00000007FFFC0000
000000000000000000007FE00000
ENDCHAR
STARTCHAR ampersand
ENCODING 38
SWIDTH 505 0
DWIDTH 53 0
BBX 49 81 2 -1
BITMAP
00000FF8000000
0000FFFF800000
0003FFFFE00000
0007FFFFF00000
001FFFFFF80000
003FFFFFFC0000
003FFFFFFE0000
007FFFFFFF0000
00FFFFFFFF8000
00FFFFFFFF8000
00FFFFFFFF8000
01FFFFFFFFC000
01FFFF0FFFC000
01FFFF07FFC000
01FFFE07FFC000
01FFFE07FFC000
01FFFE07FFC000
01FFFF07FFC000
01FFFF0FFFC000
01FFFF0FFFC000
01FFFF0FFF8000
01FFFF9FFF8000
00FFFFBFFF8000
00FFFFFFFF0000
00FFFFFFFF0000
00FFFFFFFE0000
007FFFFFFE0000
007FFFFFFC0000
003FFFFFF80000
003FFFFFF00000
001FFFFFF00000
001FFFFFE04000
001FFFFFC0E000
001FFFFF01E000
003FFFFE03F000
007FFFFC07F800
00FFFFFC07F800
01FFFFFE0FFC00
03FFFFFE1FFE00
07FFFFFF1FFE00
07FFFFFF3FFF00
0FFFFFFFBFFF80
1FFFFFFFFFFF80
1FFFFFFFFFFF00
3FFFFFFFFFFE00
3FFFFFFFFFFC00
3FFFFFFFFFF800
7FFFFFFFFFF000
7FFFFFFFFFF000
7FFFBFFFFFE000
7FFF9FFFFFC000
FFFF1FFFFFC000
FFFF0FFFFF8000
FFFF0FFFFF8000
FFFF0FFFFF0000
FFFF07FFFF0000
FFFE07FFFF0000
FFFE03FFFE0000
FFFE03FFFE0000
FFFE01FFFF0000
FFFE01FFFF0000
FFFE01FFFF8000
FFFF00FFFF8000
FFFF00FFFF8000
FFFF01FFFFC000
FFFF01FFFFC000
FFFF03FFFFE000
FFFF87FFFFE000
7FFFFFFFFFE000
7FFFFFFFFFF000
7FFFFFFFFFF000
3FFFFFFFFFF800
3FFFFFFFFFF800
1FFFFFFFFFF800
1FFFFFFFFFFC00
0FFFFFFFFFFC00
07FFFFF3FFFE00
03FFFFC3FFFE00
01FFFF83FFFF00
007FFE01FFFF00
000FF000000000
ENDCHAR
STARTCHAR quotesingle
ENCODING 39
SWIDTH 214 0
DWIDTH 22 0
BBX 18 32 2 57
BITMAP
FFFFC0
FFFFC0
FFFFC0
7FFFC0
7FFF80
7FFF80
7FFF80
7FFF80
7FFF80
3FFF80
3FFF80
3FFF80
3FFF00
3FFF00
3FFF00
1FFF00
1FFF00
1FFF00
1FFF00
1FFF00
1FFF00
0FFE00
0FFE00
0FFE00
0FFE00
0FFE00
0FFE00
0FFE00
07FE00
07FC00
07FC00
07FC00
ENDCHAR
STARTCHAR parenleft
ENCODING 40
SWIDTH 291 0
DWIDTH 30 0
BBX 25 90 3 -1
BITMAP
00001F80
0001FF80
0007FF80
001FFF80
007FFF80
00FFFF80
01FFFF80
03FFFF80
07FFFF80
0FFFFF80
0FFFFF80
1FFFFF80
1FFFFF80
3FFFFF80
3FFFFC00
7FFFF800
7FFFF000
7FFFE000
7FFFE000
FFFFE000
FFFFE000
FFFFE000
FFFFC000
FFFFC000
FFFFC000
FFFFC000
FFFFC000
FFFFC000
FFFFC000
FFFFC000
FFFFC000
FFFFC000
FFFFC000
FFFFC000
FFFFC000
FFFFC000
FFFFC000
FFFFC000
FFFFC000
FFFFC000
FFFFC000
FFFFC000
FFFFC000
FFFFC000
FFFFC000
FFFFC000
FFFFC000
FFFFC000
FFFFC000
FFFFC000
FFFFC000
FFFFC000
FFFFC000
FFFFC000
FFFFC000
FFFFC000
FFFFC000
FFFFC000
FFFFC000
FFFFC000
FFFFC000
FFFFC000
FFFFC000
FFFFC000
FFFFC000
FFFFC000
FFFFC000
FFFFC000
FFFFE000
FFFFE000
7FFFE000
7FFFF000
7FFFF000
3FFFF800
3FFFFE00
3FFFFF80
1FFFFF80
1FFFFF80
0FFFFF80
07FFFF80
07FFFF80
03FFFF80
01FFFF80
00FFFF80
007FFF80
003FFF80
000FFF80
0003FF80
0000FF80
00000F80
ENDCHAR
STARTCHAR parenright
ENCODING 41
SWIDTH 291 0
DWIDTH 30 0
BBX 26 90 2 -1
BITMAP
FC000000
FFC00000
FFF80000
FFFC0000
FFFF0000
FFFF8000
FFFFC000
FFFFE000
FFFFF000
FFFFF800
FFFFF800
FFFFFC00
FFFFFC00
FFFFFE00
1FFFFE00
0FFFFF00
07FFFF00
03FFFF00
03FFFF80
03FFFF80
01FFFF80
01FFFF80
01FFFF80
01FFFF80
01FFFFC0
01FFFFC0
01FFFFC0
01FFFFC0
01FFFFC0
01FFFFC0
01FFFFC0
01FFFFC0
01FFFFC0
01FFFFC0
01FFFFC0
01FFFFC0
01FFFFC0
01FFFFC0
01FFFFC0
01FFFFC0
01FFFFC0
01FFFFC0
01FFFFC0
01FFFFC0
01FFFFC0
01FFFFC0
01FFFFC0
01FFFFC0
01FFFFC0
01FFFFC0
01FFFFC0
01FFFFC0
01FFFFC0
01FFFFC0
01FFFFC0
01FFFFC0
01FFFFC0
01FFFFC0
01FFFFC0
01FFFFC0
01FFFFC0
01FFFFC0
01FFFFC0
01FFFFC0
01FFFFC0
01FFFFC0
01FFFF80
01FFFF80
01FFFF80
03FFFF80
03FFFF80
03FFFF00
07FFFF00
0FFFFF00
1FFFFE00
7FFFFE00
FFFFFC00
FFFFFC00
FFFFF800
FFFFF800
FFFFF000
FFFFE000
FFFFC000
FFFF8000
FFFF0000
FFFE0000
FFF80000
FFE00000
FF800000
F8000000
ENDCHAR
STARTCHAR asterisk
ENCODING 42
SWIDTH 452 0
DWIDTH 47 0
BBX 43 43 2 38
BITMAP
0000FFE00000
0000FFE00000
0000FFE00000
0000FFE00000
0000FFE00000
0000FFE00000
04007FE00400
07007FE01C00
0F807FC03E00
0FC07FC07E00
1FF07FC1FF00
3FF87FC3FF80
3FFC7FC7FF80
7FFF3FDFFFC0
7FFFBFFFFFC0
FFFFFFFFFFE0
7FFFFFFFFFC0
0FFFFFFFFE00
03FFFFFFF800
007FFFFFC000
001FFFFF0000
0003FFF80000
001FFFFF0000
007FFFFFC000
01FFFFFFF000
0FFFFFFFFE00
3FFFFFFFFF80
FFFFFFFFFFE0
7FFFBFFFFFE0
7FFF3FDFFFC0
3FFE7FCFFF80
3FF87FC3FF80
1FF07FC1FF00
1FE07FC0FF00
0F807FC03E00
07007FC01C00
06007FE00C00
0000FFE00000
0000FFE00000
0000FFE00000
0000FFE00000
0000FFE00000
0000FFE00000
ENDCHAR
STARTCHAR plus
ENCODING 43
SWIDTH 355 0
DWIDTH 37 0
BBX 33 33 2 15
BITMAP
001FFC0000
001FFC0000
001FFC0000
001FFC0000
001FFC0000
001FFC0000
001FFC0000
001FFC0000
001FFC0000
001FFC0000
001FFC0000
FFFFFFFF80
FFFFFFFF80
FFFFFFFF80
FFFFFFFF80
FFFFFFFF80
FFFFFFFF80
FFFFFFFF80
FFFFFFFF80
FFFFFFFF80
FFFFFFFF80
FFFFFFFF80
FFFFFFFF80
001FFC0000
001FFC0000
001FFC0000
001FFC0000
001FFC0000
001FFC0000
001FFC0000
001FFC0000
001FFC0000
001FFC0000
ENDCHAR
STARTCHAR comma
ENCODING 44
SWIDTH 236 0
DWIDTH 25 0
BBX 19 27 3 -12
BITMAP
FFFFE0
FFFFE0
FFFFE0
FFFFE0
FFFFE0
FFFFE0
FFFFE0
FFFFE0
FFFFE0
FFFFE0
FFFFE0
FFFFE0
FFFFE0
FFFFE0
FFFFE0
03FFC0
03FFC0
03FFC0
07FF80
07FF80
07FF00
0FFF00
0FFE00
0FFE00
0FFE00
1FFC00
1FFC00
ENDCHAR
STARTCHAR hyphen
ENCODING 45
SWIDTH 311 0
DWIDTH 32 0
BBX 26 12 3 26
BITMAP
FFFFFFC0
FFFFFFC0
FFFFFFC0
FFFFFFC0
FFFFFFC0
FFFFFFC0
FFFFFFC0
FFFFFFC0
FFFFFFC0
FFFFFFC0
FFFFFFC0
FFFFFFC0
ENDCHAR
STARTCHAR period
ENCODING 46
SWIDTH 229 0
DWIDTH 24 0
BBX 18 15 3 0
BITMAP
FFFFC0
FFFFC0
FFFFC0
FFFFC0
FFFFC0
FFFFC0
FFFFC0
FFFFC0
FFFFC0
FFFFC0
FFFFC0
FFFFC0
FFFFC0
FFFFC0
FFFFC0
ENDCHAR
STARTCHAR slash
ENCODING 47
SWIDTH 405 0
DWIDTH 42 0
BBX 40 90 1 0
BITMAP
000007FFFF
000007FFFE
000007FFFE
00000FFFFE
00000FFFFE
00000FFFFE
00000FFFFC
00001FFFFC
00001FFFFC
00001FFFFC
00001FFFF8
00001FFFF8
00003FFFF8
00003FFFF8
00003FFFF0
00003FFFF0
00007FFFF0
00007FFFF0
00007FFFE0
00007FFFE0
0000FFFFE0
0000FFFFE0
0000FFFFE0
0000FFFFC0
0000FFFFC0
0001FFFFC0
0001FFFFC0
0001FFFF80
0001FFFF80
0003FFFF80
0003FFFF80
0003FFFF00
0003FFFF00
0007FFFF00
0007FFFF00
0007FFFF00
0007FFFE00
0007FFFE00
000FFFFE00
000FFFFE00
000FFFFC00
000FFFFC00
001FFFFC00
001FFFFC00
001FFFF800
001FFFF800
003FFFF800
003FFFF800
003FFFF800
003FFFF000
003FFFF000
007FFFF000
007FFFF000
007FFFE000
007FFFE000
00FFFFE000
00FFFFE000
00FFFFC000
00FFFFC000
01FFFFC000
01FFFFC000
01FFFFC000
01FFFF8000
01FFFF8000
03FFFF8000
03FFFF8000
03FFFF0000
03FFFF0000
07FFFF0000
07FFFF0000
07FFFE0000
07FFFE0000
0FFFFE0000
0FFFFE0000
0FFFFC0000
0FFFFC0000
0FFFFC0000
1FFFFC0000
1FFFFC0000
1FFFF80000
1FFFF80000
3FFFF80000
3FFFF80000
3FFFF00000
3FFFF00000
7FFFF00000
7FFFF00000
7FFFE00000
7FFFE00000
FFFFE00000
ENDCHAR
STARTCHAR zero
ENCODING 48
SWIDTH 494 0
DWIDTH 51 0
BBX 47 91 2 -1
BITMAP
00003FFC0000
0003FFFFC000
001FFFFFF000
003FFFFFFC00
00FFFFFFFE00
01FFFFFFFF00
03FFFFFFFF80
07FFFFFFFFC0
07FFFFFFFFE0
0FFFFFFFFFF0
1FFFFFFFFFF0
1FFFFFFFFFF8
3FFFFFFFFFF8
3FFFFFFFFFF8
3FFFFFFFFFFC
7FFFFFFFFFFC
7FFFF83FFFFC
7FFFF01FFFFE
7FFFF01FFFFE
7FFFF00FFFFE
FFFFF00FFFFE
FFFFE00FFFFE
FFFFE00FFFFE
FFFFE00FFFFE
FFFFE00FFFFE
FFFFE00FFFFE
FFFFE00FFFFE
FFFFE00FFFFE
FFFFE00FFFFE
FFFFE00FFFFE
FFFFE00FFFFE
FFFFE00FFFFE
FFFFE00FFFFE
FFFFE00FFFFE
FFFFE00FFFFE
FFFFE00FFFFE
FFFFE00FFFFE
FFFFE00FFFFE
FFFFE00FFFFE
FFFFE00FFFFE
FFFFE00FFFFE
FFFFE00FFFFE
FFFFE00FFFFE
FFFFE00FFFFE
FFFFE00FFFFE
FFFFE00FFFFE
FFFFE00FFFFE
FFFFE00FFFFE
FFFFE00FFFFE
FFFFE00FFFFE
FFFFE00FFFFE
FFFFE00FFFFE
FFFFE00FFFFE
FFFFE00FFFFE
FFFFE00FFFFE
FFFFE00FFFFE
FFFFE00FFFFE
FFFFE00FFFFE
FFFFE00FFFFE
FFFFE00FFFFE
FFFFE00FFFFE
FFFFE00FFFFE
FFFFE00FFFFE
FFFFE00FFFFE
FFFFE00FFFFE
FFFFE00FFFFE
FFFFE00FFFFE
FFFFE00FFFFE
FFFFE00FFFFE
FFFFE00FFFFE
FFFFE00FFFFE
FFFFF00FFFFE
7FFFF01FFFFE
7FFFF81FFFFE
7FFFFC3FFFFE
7FFFFFFFFFFC
7FFFFFFFFFFC
3FFFFFFFFFFC
3FFFFFFFFFF8
1FFFFFFFFFF8
1FFFFFFFFFF0
0FFFFFFFFFF0
0FFFFFFFFFE0
07FFFFFFFFC0
03FFFFFFFF80
01FFFFFFFF00
00FFFFFFFE00
003FFFFFFC00
001FFFFFF000
0003FFFFC000
00003FFC0000
ENDCHAR
STARTCHAR one
ENCODING 49
SWIDTH 331 0
DWIDTH 34 0
BBX 30 89 1 0
BITMAP
0000FFFC
0001FFFC
0001FFFC
0003FFFC
0007FFFC
000FFFFC
001FFFFC
003FFFFC
00FFFFFC
03FFFFFC
0FFFFFFC
FFFFFFFC
FFFFFFFC
FFFFFFFC
FFFFFFFC
FFFFFFFC
FFFFFFFC
FFFFFFFC
FFFFFFFC
FFFFFFFC
FFFFFFFC
FFDFFFFC
FF9FFFFC
FE1FFFFC
F81FFFFC
001FFFFC
001FFFFC
001FFFFC
001FFFFC
001FFFFC
001FFFFC
001FFFFC
001FFFFC
001FFFFC
001FFFFC
001FFFFC
001FFFFC
001FFFFC
001FFFFC
001FFFFC
001FFFFC
001FFFFC
001FFFFC
001FFFFC
001FFFFC
001FFFFC
001FFFFC
001FFFFC
001FFFFC
001FFFFC
001FFFFC
001FFFFC
001FFFFC
001FFFFC
001FFFFC
001FFFFC
001FFFFC
001FFFFC
001FFFFC
001FFFFC
001FFFFC
001FFFFC
001FFFFC
001FFFFC
001FFFFC
001FFFFC
001FFFFC
001FFFFC
001FFFFC
001FFFFC
001FFFFC
001FFFFC
001FFFFC
001FFFFC
001FFFFC
001FFFFC
001FFFFC
001FFFFC
001FFFFC
001FFFFC
001FFFFC
001FFFFC
001FFFFC
001FFFFC
001FFFFC
001FFFFC
001FFFFC
001FFFFC
001FFFFC
ENDCHAR
STARTCHAR two
ENCODING 50
SWIDTH 494 0
DWIDTH 51 0
BBX 47 90 3 0
BITMAP
00007FF80000
0007FFFF8000
001FFFFFF000
007FFFFFF800
00FFFFFFFE00
01FFFFFFFF00
03FFFFFFFF80
07FFFFFFFFC0
0FFFFFFFFFE0
0FFFFFFFFFE0
1FFFFFFFFFF0
1FFFFFFFFFF8
3FFFFFFFFFF8
3FFFFFFFFFF8
3FFFFFFFFFFC
7FFFFFFFFFFC
7FFFFFFFFFFC
7FFFF83FFFFE
7FFFF01FFFFE
7FFFF01FFFFE
FFFFE00FFFFE
FFFFE00FFFFE
FFFFE00FFFFE
FFFFE00FFFFE
FFFFE00FFFFE
FFFFE00FFFFE
FFFFE00FFFFE
FFFFE00FFFFE
FFFFE00FFFFE
FFFFE00FFFFE
FFFFE00FFFFE
FFFFE00FFFFE
FFFFE01FFFFC
FFFFE01FFFFC
FFFFE01FFFFC
FFFFE03FFFFC
0000003FFFF8
0000003FFFF8
0000007FFFF8
0000007FFFF0
000000FFFFF0
000000FFFFF0
000001FFFFE0
000001FFFFE0
000003FFFFC0
000003FFFFC0
000007FFFF80
00000FFFFF00
00001FFFFF00
00001FFFFE00
00003FFFFC00
00007FFFFC00
0000FFFFF800
0000FFFFF000
0001FFFFE000
0003FFFFE000
0007FFFFC000
000FFFFF8000
000FFFFF0000
001FFFFE0000
003FFFFE0000
007FFFFC0000
007FFFF80000
00FFFFF00000
01FFFFF00000
03FFFFE00000
03FFFFC00000
07FFFF800000
07FFFF800000
0FFFFF000000
0FFFFF000000
1FFFFE000000
1FFFFC000000
3FFFFFFFFFFE
3FFFFFFFFFFE
3FFFFFFFFFFE
7FFFFFFFFFFE
7FFFFFFFFFFE
7FFFFFFFFFFE
7FFFFFFFFFFE
FFFFFFFFFFFE
FFFFFFFFFFFE
FFFFFFFFFFFE
FFFFFFFFFFFE
FFFFFFFFFFFE
FFFFFFFFFFFE
FFFFFFFFFFFE
FFFFFFFFFFFE
FFFFFFFFFFFE
FFFFFFFFFFFE
ENDCHAR
STARTCHAR three
ENCODING 51
SWIDTH 494 0
DWIDTH 51 0
BBX 47 90 2 -1
BITMAP
00007FFC0000
0007FFFFC000
001FFFFFF000
007FFFFFFC00
01FFFFFFFE00
03FFFFFFFF80
07FFFFFFFF80
07FFFFFFFFC0
0FFFFFFFFFE0
1FFFFFFFFFF0
1FFFFFFFFFF0
3FFFFFFFFFF0
3FFFFFFFFFF8
3FFFFFFFFFF8
7FFFFFFFFFFC
7FFFFFFFFFFC
7FFFF83FFFFC
7FFFF01FFFFC
7FFFF01FFFFC
7FFFF00FFFFC
FFFFE00FFFFC
FFFFE00FFFFE
FFFFE00FFFFE
FFFFE00FFFFE
FFFFE00FFFFE
FFFFE00FFFFE
0000000FFFFC
0000000FFFFC
0000001FFFFC
0000003FFFFC
0000007FFFFC
000001FFFFFC
00001FFFFFF8
00001FFFFFF8
00001FFFFFF8
00001FFFFFF0
00001FFFFFE0
00001FFFFFC0
00001FFFFF80
00001FFFFE00
00001FFFFE00
00001FFFFF80
00001FFFFFC0
00001FFFFFE0
00001FFFFFF0
00001FFFFFF0
00001FFFFFF8
00001FFFFFF8
000001FFFFFC
0000007FFFFC
0000003FFFFC
0000001FFFFC
0000001FFFFC
0000001FFFFC
0000000FFFFE
FFFFC00FFFFE
FFFFC00FFFFE
FFFFC00FFFFE
FFFFC00FFFFE
FFFFC00FFFFE
FFFFC00FFFFE
FFFFC00FFFFE
FFFFC00FFFFE
FFFFC00FFFFE
FFFFC00FFFFE
FFFFC00FFFFE
FFFFC00FFFFE
FFFFC00FFFFE
FFFFE00FFFFC
FFFFE01FFFFC
FFFFE01FFFFC
FFFFF01FFFFC
7FFFF83FFFFC
7FFFFFFFFFF8
7FFFFFFFFFF8
7FFFFFFFFFF8
7FFFFFFFFFF8
3FFFFFFFFFF0
3FFFFFFFFFF0
1FFFFFFFFFE0
1FFFFFFFFFE0
0FFFFFFFFFC0
0FFFFFFFFF80
07FFFFFFFF00
03FFFFFFFF00
01FFFFFFFC00
00FFFFFFF800
003FFFFFE000
0007FFFF8000
00007FF80000
ENDCHAR
STARTCHAR four
ENCODING 52
SWIDTH 494 0
DWIDTH 51 0
BBX 49 89 1 0
BITMAP
00007FFFFFF800
0000FFFFFFF800
0000FFFFFFF800
0000FFFFFFF800
0000FFFFFFF800
0001FFFFFFF800
0001FFFFFFF800
0001FFFFFFF800
0003FFFFFFF800
0003FFFFFFF800
0003FFFFFFF800
0003FFFFFFF800
0007FFFFFFF800
0007FFFFFFF800
0007FFFFFFF800
000FFFFFFFF800
000FFFFFFFF800
000FFFFFFFF800
000FFFFFFFF800
001FFFFFFFF800
001FFFBFFFF800
001FFFBFFFF800
001FFFBFFFF800
003FFFBFFFF800
003FFF3FFFF800
003FFF3FFFF800
007FFF3FFFF800
007FFF3FFFF800
007FFE3FFFF800
007FFE3FFFF800
00FFFE3FFFF800
00FFFE3FFFF800
00FFFC3FFFF800
00FFFC3FFFF800
01FFFC3FFFF800
01FFFC3FFFF800
01FFF83FFFF800
03FFF83FFFF800
03FFF83FFFF800
03FFF83FFFF800
03FFF83FFFF800
07FFF03FFFF800
07FFF03FFFF800
07FFF03FFFF800
0FFFF03FFFF800
0FFFE03FFFF800
0FFFE03FFFF800
0FFFE03FFFF800
1FFFE03FFFF800
1FFFC03FFFF800
1FFFC03FFFF800
1FFFC03FFFF800
3FFFC03FFFF800
3FFF803FFFF800
3FFF803FFFF800
7FFF803FFFF800
7FFF803FFFF800
7FFF003FFFF800
7FFF003FFFF800
FFFF003FFFF800
FFFFFFFFFFFF80
FFFFFFFFFFFF80
FFFFFFFFFFFF80
FFFFFFFFFFFF80
FFFFFFFFFFFF80
FFFFFFFFFFFF80
FFFFFFFFFFFF80
FFFFFFFFFFFF80
FFFFFFFFFFFF80
FFFFFFFFFFFF80
FFFFFFFFFFFF80
FFFFFFFFFFFF80
FFFFFFFFFFFF80
FFFFFFFFFFFF80
FFFFFFFFFFFF80
0000003FFFF800
0000003FFFF800
0000003FFFF800
0000003FFFF800
0000003FFFF800
0000003FFFF800
0000003FFFF800
0000003FFFF800
0000003FFFF800
0000003FFFF800
0000003FFFF800
0000003FFFF800
0000003FFFF800
0000003FFFF800
ENDCHAR
STARTCHAR five
ENCODING 53
SWIDTH 494 0
DWIDTH 51 0
BBX 48 90 2 -1
BITMAP
3FFFFFFFFFF8
3FFFFFFFFFF8
3FFFFFFFFFF8
3FFFFFFFFFF8
3FFFFFFFFFF8
3FFFFFFFFFF8
3FFFFFFFFFF8
3FFFFFFFFFF8
3FFFFFFFFFF8
3FFFFFFFFFF8
3FFFFFFFFFF8
3FFFFFFFFFF8
3FFFFFFFFFF8
3FFFFFFFFFF8
3FFFFFFFFFF8
3FFFFFFFFFF8
3FFFFFFFFFF8
3FFFE0000000
3FFFE0000000
3FFFE0000000
3FFFE0000000
3FFFE0000000
3FFFE0000000
3FFFE0000000
3FFFE0000000
3FFFE07F8000
3FFFE3FFF800
3FFFE7FFFE00
3FFFEFFFFF00
3FFFFFFFFF80
3FFFFFFFFFC0
3FFFFFFFFFE0
3FFFFFFFFFE0
3FFFFFFFFFF0
3FFFFFFFFFF0
3FFFFFFFFFF8
3FFFFFFFFFF8
3FFFFFFFFFF8
3FFFFFFFFFFC
3FFFFFFFFFFC
3FFFF83FFFFC
3FFFF01FFFFC
3FFFF01FFFFE
3FFFE00FFFFE
3FFFE00FFFFE
3FFFE00FFFFE
3FFFE00FFFFE
0000000FFFFE
0000000FFFFE
0000000FFFFE
0000000FFFFE
0000000FFFFF
0000000FFFFF
0000000FFFFF
0000000FFFFF
0000000FFFFF
FFFFE00FFFFF
FFFFE00FFFFF
FFFFE00FFFFF
FFFFE00FFFFF
FFFFE00FFFFF
FFFFE00FFFFE
FFFFE00FFFFE
FFFFE00FFFFE
FFFFE00FFFFE
FFFFE00FFFFE
FFFFE00FFFFE
FFFFE00FFFFE
FFFFE00FFFFE
FFFFF00FFFFE
FFFFF00FFFFE
FFFFF01FFFFC
FFFFFC3FFFFC
7FFFFFFFFFFC
7FFFFFFFFFFC
7FFFFFFFFFFC
7FFFFFFFFFF8
3FFFFFFFFFF8
3FFFFFFFFFF8
3FFFFFFFFFF0
1FFFFFFFFFF0
0FFFFFFFFFE0
0FFFFFFFFFC0
07FFFFFFFF80
03FFFFFFFF80
00FFFFFFFE00
007FFFFFFC00
001FFFFFF000
0007FFFFC000
00003FFC0000
ENDCHAR
STARTCHAR six
ENCODING 54
SWIDTH 494 0
DWIDTH 51 0
BBX 47 91 3 -1
BITMAP
00003FFC0000
0003FFFFC000
001FFFFFF000
007FFFFFFC00
00FFFFFFFE00
01FFFFFFFF80
03FFFFFFFFC0
07FFFFFFFFC0
07FFFFFFFFE0
0FFFFFFFFFF0
1FFFFFFFFFF0
1FFFFFFFFFF8
1FFFFFFFFFF8
3FFFFFFFFFF8
3FFFFFFFFFFC
3FFFFFFFFFFC
7FFFF83FFFFC
7FFFF01FFFFC
7FFFE00FFFFC
7FFFE00FFFFC
7FFFE00FFFFC
7FFFE00FFFFC
FFFFE00FFFFC
FFFFE00FFFFC
FFFFE00FFFFC
FFFFE007FFFC
FFFFE007FFFC
FFFFE0000000
FFFFE0000000
FFFFE0000000
FFFFE0000000
FFFFE0000000
FFFFE0000000
FFFFE0000000
FFFFE0000000
FFFFE07FC000
FFFFE3FFF800
FFFFE7FFFE00
FFFFEFFFFF80
FFFFFFFFFFC0
FFFFFFFFFFE0
FFFFFFFFFFE0
FFFFFFFFFFF0
FFFFFFFFFFF0
FFFFFFFFFFF8
FFFFFFFFFFF8
FFFFFFFFFFFC
FFFFFFFFFFFC
FFFFFFFFFFFC
FFFFFFFFFFFC
FFFFFFFFFFFC
FFFFF87FFFFE
FFFFF03FFFFE
FFFFE01FFFFE
FFFFE01FFFFE
FFFFE01FFFFE
FFFFE01FFFFE
FFFFE00FFFFE
FFFFE00FFFFE
FFFFE00FFFFE
FFFFE00FFFFE
FFFFE00FFFFE
FFFFE00FFFFE
FFFFE00FFFFE
FFFFE00FFFFE
FFFFE00FFFFE
FFFFE00FFFFE
FFFFE00FFFFE
FFFFE01FFFFE
FFFFE01FFFFE
FFFFE01FFFFC
FFFFE01FFFFC
FFFFE01FFFFC
7FFFF03FFFFC
7FFFF87FFFFC
7FFFFFFFFFF8
7FFFFFFFFFF8
3FFFFFFFFFF8
3FFFFFFFFFF0
3FFFFFFFFFF0
1FFFFFFFFFE0
1FFFFFFFFFE0
0FFFFFFFFFC0
0FFFFFFFFFC0
07FFFFFFFF80
03FFFFFFFF00
01FFFFFFFE00
007FFFFFF800
003FFFFFF000
0007FFFFC000
00007FFC0000
ENDCHAR
STARTCHAR seven
ENCODING 55
SWIDTH 494 0
DWIDTH 51 0
BBX 45 89 4 0
BITMAP
FFFFFFFFFFF8
FFFFFFFFFFF8
FFFFFFFFFFF8
FFFFFFFFFFF8
FFFFFFFFFFF8
FFFFFFFFFFF8
FFFFFFFFFFF8
FFFFFFFFFFF8
FFFFFFFFFFF8
FFFFFFFFFFF8
FFFFFFFFFFF8
FFFFFFFFFFF8
FFFFFFFFFFF8
FFFFFFFFFFF8
FFFFFFFFFFF8
FFFFFFFFFFF0
FFFFFFFFFFF0
0000007FFFF0
000000FFFFF0
000000FFFFF0
000001FFFFE0
000001FFFFE0
000001FFFFE0
000003FFFFC0
000003FFFFC0
000003FFFFC0
000007FFFF80
000007FFFF80
00000FFFFF00
00000FFFFF00
00000FFFFE00
00001FFFFE00
00001FFFFE00
00003FFFFC00
00003FFFFC00
00003FFFF800
00007FFFF800
00007FFFF000
0000FFFFF000
0000FFFFE000
0000FFFFE000
0001FFFFC000
0001FFFFC000
0003FFFFC000
0003FFFF8000
0003FFFF8000
0007FFFF8000
0007FFFF0000
0007FFFF0000
000FFFFF0000
000FFFFE0000
000FFFFE0000
001FFFFE0000
001FFFFC0000
001FFFFC0000
003FFFFC0000
003FFFF80000
003FFFF80000
007FFFF80000
007FFFF00000
007FFFF00000
00FFFFF00000
00FFFFF00000
00FFFFE00000
01FFFFE00000
01FFFFE00000
01FFFFE00000
01FFFFE00000
03FFFFC00000
03FFFFC00000
03FFFFC00000
03FFFFC00000
07FFFFC00000
07FFFF800000
07FFFF800000
07FFFF800000
07FFFF800000
07FFFF800000
0FFFFF800000
0FFFFF000000
0FFFFF000000
0FFFFF000000
0FFFFF000000
0FFFFF000000
0FFFFF000000
0FFFFF000000
0FFFFF000000
1FFFFF000000
1FFFFF000000
ENDCHAR
STARTCHAR eight
ENCODING 56
SWIDTH 494 0
DWIDTH 51 0
BBX 47 91 2 -1
BITMAP
00007FFC0000
0007FFFFC000
001FFFFFF800
007FFFFFFC00
01FFFFFFFF00
03FFFFFFFF80
07FFFFFFFFC0
0FFFFFFFFFE0
0FFFFFFFFFE0
1FFFFFFFFFF0
1FFFFFFFFFF8
3FFFFFFFFFF8
3FFFFFFFFFF8
3FFFFFFFFFFC
7FFFFFFFFFFC
7FFFFFFFFFFC
7FFFFC3FFFFC
7FFFF81FFFFE
7FFFF01FFFFE
FFFFF00FFFFE
FFFFE00FFFFE
FFFFE00FFFFE
FFFFE00FFFFE
FFFFE00FFFFE
FFFFE00FFFFE
FFFFE00FFFFE
FFFFE00FFFFE
FFFFE00FFFFE
7FFFE00FFFFE
7FFFF00FFFFE
7FFFF01FFFFC
7FFFF81FFFFC
7FFFFC3FFFFC
3FFFFFFFFFFC
3FFFFFFFFFF8
3FFFFFFFFFF8
1FFFFFFFFFF0
0FFFFFFFFFF0
07FFFFFFFFE0
03FFFFFFFF80
00FFFFFFFF00
03FFFFFFFF80
07FFFFFFFFC0
0FFFFFFFFFE0
1FFFFFFFFFF0
1FFFFFFFFFF8
3FFFFFFFFFF8
3FFFFFFFFFFC
7FFFFFFFFFFC
7FFFFC3FFFFC
7FFFF81FFFFC
7FFFF01FFFFC
7FFFF00FFFFE
FFFFE00FFFFE
FFFFE00FFFFE
FFFFE00FFFFE
FFFFE00FFFFE
FFFFE00FFFFE
FFFFE00FFFFE
FFFFE00FFFFE
FFFFE00FFFFE
FFFFE007FFFE
FFFFE007FFFE
FFFFE007FFFE
FFFFE007FFFE
FFFFE007FFFE
FFFFE00FFFFE
FFFFE00FFFFE
FFFFE00FFFFE
7FFFE00FFFFE
7FFFF01FFFFE
7FFFF01FFFFC
7FFFFC3FFFFC
7FFFFFFFFFFC
7FFFFFFFFFFC
3FFFFFFFFFFC
3FFFFFFFFFF8
3FFFFFFFFFF8
1FFFFFFFFFF8
1FFFFFFFFFF0
0FFFFFFFFFF0
0FFFFFFFFFE0
07FFFFFFFFE0
07FFFFFFFFC0
03FFFFFFFF80
01FFFFFFFF00
00FFFFFFFE00
003FFFFFFC00
001FFFFFF000
0003FFFFC000
00003FFC0000
ENDCHAR
STARTCHAR nine
ENCODING 57
SWIDTH 504 0
DWIDTH 52 0
BBX 47 91 3 -1
BITMAP
00007FF80000
0007FFFFC000
001FFFFFF000
007FFFFFFC00
00FFFFFFFE00
01FFFFFFFF00
03FFFFFFFF80
07FFFFFFFFC0
0FFFFFFFFFE0
0FFFFFFFFFF0
1FFFFFFFFFF0
1FFFFFFFFFF0
3FFFFFFFFFF8
3FFFFFFFFFF8
3FFFFFFFFFF8
7FFFFFFFFFFC
7FFFF83FFFFC
7FFFF01FFFFC
7FFFF01FFFFC
FFFFF00FFFFC
FFFFE00FFFFE
FFFFE00FFFFE
FFFFE00FFFFE
FFFFE00FFFFE
FFFFE00FFFFE
FFFFE00FFFFE
FFFFE00FFFFE
FFFFE00FFFFE
FFFFE00FFFFE
FFFFE00FFFFE
FFFFE00FFFFE
FFFFE00FFFFE
FFFFE00FFFFE
FFFFE00FFFFE
FFFFE00FFFFE
FFFFE00FFFFE
FFFFF00FFFFE
FFFFF01FFFFE
FFFFF01FFFFE
FFFFF83FFFFE
FFFFFFFFFFFE
FFFFFFFFFFFE
7FFFFFFFFFFE
7FFFFFFFFFFE
7FFFFFFFFFFE
7FFFFFFFFFFE
3FFFFFFFFFFE
3FFFFFFFFFFE
1FFFFFFFFFFE
1FFFFFFFFFFE
0FFFFFFFFFFE
07FFFFFFFFFE
03FFFFEFFFFE
01FFFFCFFFFE
007FFF0FFFFE
0007FC0FFFFE
0000000FFFFE
0000000FFFFE
0000000FFFFE
0000000FFFFE
0000000FFFFE
0000000FFFFE
0000000FFFFE
0000000FFFFE
7FFFC00FFFFE
7FFFC00FFFFE
7FFFC00FFFFE
7FFFC00FFFFC
7FFFC00FFFFC
7FFFC00FFFFC
7FFFE00FFFFC
7FFFE00FFFFC
7FFFE01FFFFC
7FFFF01FFFFC
7FFFF87FFFF8
7FFFFFFFFFF8
7FFFFFFFFFF8
7FFFFFFFFFF8
3FFFFFFFFFF0
3FFFFFFFFFF0
1FFFFFFFFFE0
1FFFFFFFFFE0
0FFFFFFFFFC0
0FFFFFFFFFC0
07FFFFFFFF80
03FFFFFFFF00
01FFFFFFFE00
007FFFFFF800
001FFFFFF000
0007FFFF8000
00007FF80000
ENDCHAR
STARTCHAR colon
ENCODING 58
SWIDTH 242 0
DWIDTH 25 0
BBX 19 53 3 12
BITMAP
FFFFE0
FFFFE0
FFFFE0
FFFFE0
FFFFE0
FFFFE0
FFFFE0
FFFFE0
FFFFE0
FFFFE0
FFFFE0
FFFFE0
FFFFE0
FFFFE0
FFFFE0
000000
000000
000000
000000
000000
000000
000000
000000
000000
000000
000000
000000
000000
000000
000000
000000
000000
000000
000000
000000
000000
000000
000000
FFFFE0
FFFFE0
FFFFE0
FFFFE0
FFFFE0
FFFFE0
FFFFE0
FFFFE0
FFFFE0
FFFFE0
FFFFE0
FFFFE0
FFFFE0
FFFFE0
FFFFE0
ENDCHAR
STARTCHAR semicolon
ENCODING 59
SWIDTH 245 0
DWIDTH 25 0
BBX 19 65 3 0
BITMAP
FFFFE0
FFFFE0
FFFFE0
FFFFE0
FFFFE0
FFFFE0
FFFFE0
FFFFE0
FFFFE0
FFFFE0
FFFFE0
FFFFE0
FFFFE0
FFFFE0
FFFFE0
000000
000000
000000
000000
000000
000000
000000
000000
000000
000000
000000
000000
000000
000000
000000
000000
000000
000000
000000
000000
000000
000000
000000
FFFFE0
FFFFE0
FFFFE0
FFFFE0
FFFFE0
FFFFE0
FFFFE0
FFFFE0
FFFFE0
FFFFE0
FFFFE0
FFFFE0
FFFFE0
FFFFE0
FFFFE0
01FFE0
03FFE0
03FFC0
03FFC0
03FF80
07FF80
07FF00
07FF00
0FFF00
0FFE00
0FFE00
1FFC00
ENDCHAR
STARTCHAR less
ENCODING 60
SWIDTH 321 0
DWIDTH 33 0
BBX 29 56 2 10
BITMAP
00000008
00000038
000000F8
000001F8
000007F8
00001FF8
00003FF8
0000FFF8
0003FFF8
0007FFF8
001FFFF8
007FFFF8
00FFFFF8
03FFFFF8
0FFFFFF8
1FFFFFF8
7FFFFFF8
FFFFFFF8
FFFFFFF0
FFFFFFC0
FFFFFF80
FFFFFE00
FFFFF800
FFFFE000
FFFF8000
FFFF0000
FFFC0000
FFF00000
FFF00000
FFFC0000
FFFF0000
FFFFC000
FFFFE000
FFFFF800
FFFFFE00
FFFFFF80
FFFFFFE0
FFFFFFF0
FFFFFFF8
3FFFFFF8
1FFFFFF8
07FFFFF8
01FFFFF8
00FFFFF8
003FFFF8
000FFFF8
0007FFF8
0001FFF8
00007FF8
00003FF8
00000FF8
000003F8
000001F8
00000078
00000018
00000008
ENDCHAR
STARTCHAR equal
ENCODING 61
SWIDTH 311 0
DWIDTH 32 0
BBX 26 31 3 26
BITMAP
FFFFFFC0
FFFFFFC0
FFFFFFC0
FFFFFFC0
FFFFFFC0
FFFFFFC0
FFFFFFC0
FFFFFFC0
FFFFFFC0
FFFFFFC0
FFFFFFC0
00000000
00000000
00000000
00000000
00000000
00000000
00000000
00000000
FFFFFFC0
FFFFFFC0
FFFFFFC0
FFFFFFC0
FFFFFFC0
FFFFFFC0
FFFFFFC0
FFFFFFC0
FFFFFFC0
FFFFFFC0
FFFFFFC0
FFFFFFC0
ENDCHAR
STARTCHAR greater
ENCODING 62
SWIDTH 321 0
DWIDTH 33 0
BBX 29 56 3 10
BITMAP
80000000
C0000000
F0000000
FC000000
FE000000
FF800000
FFE00000
FFF00000
FFFC0000
FFFF0000
FFFF8000
FFFFE000
FFFFF800
FFFFFC00
FFFFFF00
FFFFFFC0
FFFFFFE0
FFFFFFF8
FFFFFFF8
3FFFFFF8
0FFFFFF8
03FFFFF8
01FFFFF8
007FFFF8
001FFFF8
0007FFF8
0001FFF8
0000FFF8
0000FFF8
0003FFF8
000FFFF8
001FFFF8
007FFFF8
01FFFFF8
07FFFFF8
0FFFFFF8
3FFFFFF8
FFFFFFF8
FFFFFFF0
FFFFFFE0
FFFFFF80
FFFFFE00
FFFFFC00
FFFFF000
FFFFC000
FFFF8000
FFFE0000
FFF80000
FFF00000
FFC00000
FF800000
FE000000
F8000000
F0000000
C0000000
80000000
ENDCHAR
STARTCHAR question
ENCODING 63
SWIDTH 492 0
DWIDTH 51 0
BBX 48 90 2 0
BITMAP
00003FFC0000
0003FFFFC000
001FFFFFF800
007FFFFFFC00
00FFFFFFFF00
03FFFFFFFF80
07FFFFFFFFC0
0FFFFFFFFFE0
0FFFFFFFFFE0
1FFFFFFFFFF0
3FFFFFFFFFF0
3FFFFFFFFFF8
3FFFFFFFFFF8
7FFFFFFFFFFC
7FFFFFFFFFFC
7FFFFFFFFFFC
7FFFFC3FFFFE
FFFFF01FFFFE
FFFFF00FFFFE
FFFFF00FFFFE
FFFFE00FFFFE
FFFFE00FFFFE
FFFFE00FFFFE
FFFFE00FFFFF
FFFFE00FFFFF
FFFFE00FFFFF
FFFFE00FFFFF
FFFFE00FFFFF
FFFFE00FFFFF
FFFFE00FFFFF
FFFFE00FFFFF
FFFFE00FFFFF
FFFFE00FFFFF
0000000FFFFE
0000001FFFFE
0000001FFFFE
0000001FFFFE
0000001FFFFE
0000003FFFFE
0000003FFFFC
0000007FFFFC
000000FFFFFC
000001FFFFF8
000007FFFFF8
00001FFFFFF0
0003FFFFFFF0
0FFFFFFFFFE0
0FFFFFFFFFE0
0FFFFFFFFFC0
0FFFFFFFFF80
0FFFFFFFFF80
0FFFFFFFFF00
0FFFFFFFFE00
0FFFFFFFFC00
0FFFFFFFF000
0FFFFFFFC000
0FFFFFFF0000
0FFFFFF80000
0FFFF8000000
0FFFF8000000
0FFFF8000000
0FFFF8000000
0FFFF8000000
0FFFF8000000
0FFFF8000000
0FFFF8000000
0FFFF8000000
000000000000
000000000000
000000000000
000000000000
000000000000
000000000000
000000000000
000000000000
0FFFFC000000
0FFFFC000000
0FFFFC000000
0FFFFC000000
0FFFFC000000
0FFFFC000000
0FFFFC000000
0FFFFC000000
0FFFFC000000
0FFFFC000000
0FFFFC000000
0FFFFC000000
0FFFFC000000
0FFFFC000000
0FFFFC000000
ENDCHAR
STARTCHAR at
ENCODING 64
SWIDTH 864 0
DWIDTH 90 0
BBX 84 98 3 -8
BITMAP
0000000007FFF000000000
00000001FFFFFF80000000
0000000FFFFFFFF0000000
0000007FFFFFFFFC000000
000001FFFFFFFFFF000000
000007FFFFFFFFFFC00000
00000FFFFFFFFFFFF00000
00003FFFFFFFFFFFF80000
00007FFFFFFFFFFFFC0000
0000FFFFFFFFFFFFFE0000
0001FFFFFFFFFFFFFF0000
0003FFFFFFFFFFFFFF8000
0007FFFFFE000FFFFFC000
000FFFFFE00000FFFFE000
001FFFFF0000003FFFF000
003FFFFC0000000FFFF000
007FFFF000000007FFF800
007FFFE000000001FFFC00
00FFFFC000000000FFFC00
01FFFF80000000007FFE00
01FFFF00000000007FFE00
03FFFE00000000003FFF00
03FFFC00000000001FFF00
07FFF800000000001FFF00
07FFF8003F003FF80FFF80
07FFF000FFE07FF80FFF80
0FFFF003FFF07FF807FF80
0FFFE007FFF87FF807FFC0
1FFFE00FFFFC7FF807FFC0
1FFFC01FFFFEFFF803FFC0
1FFFC01FFFFEFFF803FFC0
3FFFC03FFFFFFFF803FFE0
3FFF803FFFFFFFF803FFE0
3FFF807FFFFFFFF803FFE0
3FFF807FFFFFFFF801FFE0
3FFF007FFFFFFFF801FFE0
7FFF00FFFFC1FFF801FFE0
7FFF00FFFF81FFF801FFF0
7FFF00FFFF01FFF801FFF0
7FFF00FFFF01FFF801FFF0
7FFE00FFFF01FFF801FFF0
7FFE01FFFE01FFF801FFF0
7FFE01FFFE01FFF801FFF0
FFFE01FFFE01FFF801FFF0
FFFE01FFFE01FFF801FFF0
FFFE01FFFE01FFF801FFF0
FFFE01FFFE01FFF801FFF0
FFFE01FFFE01FFF801FFF0
FFFE01FFFE01FFF801FFF0
FFFE01FFFE01FFF801FFF0
FFFE01FFFE01FFF801FFF0
FFFE01FFFE01FFF801FFF0
FFFE01FFFE01FFF801FFF0
FFFE01FFFE01FFF801FFF0
FFFE01FFFE01FFF801FFE0
FFFE01FFFE01FFF801FFE0
FFFE01FFFE01FFF801FFE0
FFFE01FFFE01FFF801FFE0
7FFE01FFFE01FFF803FFE0
7FFE00FFFF03FFFC03FFE0
7FFF00FFFF03FFFC03FFC0
7FFF00FFFF03FFFC07FFC0
7FFF00FFFF87FFFE07FFC0
7FFF007FFFFFFFFF0FFF80
7FFF007FFFFFFFFFFFFF80
3FFF807FFFFFFFFFFFFF80
3FFF803FFFFF7FFFFFFF00
3FFF803FFFFF7FFFFFFF00
3FFFC01FFFFE3FFFFFFE00
1FFFC01FFFFE3FFFFFFC00
1FFFC00FFFFC1FFFFFFC00
1FFFE007FFFC0FFFFFF800
0FFFE003FFF807FFFFF000
0FFFF001FFF003FFFFC000
0FFFF800FFE000FFFF0000
07FFF8001F80001FF80000
07FFFC0000000000000000
03FFFE0000000000000000
03FFFF0000000000000000
01FFFF8000000000000000
00FFFFC000000000000000
00FFFFF000000000000000
007FFFF800000000000000
003FFFFE00000000000000
001FFFFFC0000000000000
001FFFFFFC0007C0000000
000FFFFFFFFFFFC0000000
0007FFFFFFFFFFC0000000
0003FFFFFFFFFFC0000000
0000FFFFFFFFFFE0000000
00007FFFFFFFFFE0000000
00003FFFFFFFFFE0000000
00000FFFFFFFFFE0000000
000003FFFFFFFFE0000000
000000FFFFFFFFE0000000
0000001FFFFFFFE0000000
00000001FFFFFFF0000000
000000000FFFF000000000
ENDCHAR
STARTCHAR A
ENCODING 65
SWIDTH 485 0
DWIDTH 50 0
BBX 47 89 2 0
BITMAP
00FFFFFFFE00
00FFFFFFFE00
00FFFFFFFE00
00FFFFFFFE00
00FFFFFFFE00
00FFFFFFFE00
00FFFFFFFE00
01FFFFFFFE00
01FFFFFFFE00
01FFFFFFFE00
01FFFFFFFE00
01FFFFFFFF00
01FFFFFFFF00
01FFFFFFFF00
01FFFFFFFF00
01FFFEFFFF00
01FFFEFFFF00
03FFFCFFFF00
03FFFCFFFF00
03FFFCFFFF00
03FFFCFFFF00
03FFFCFFFF80
03FFFCFFFF80
03FFFCFFFF80
03FFFCFFFF80
03FFFCFFFF80
03FFFCFFFF80
03FFFC7FFF80
07FFFC7FFF80
07FFFC7FFF80
07FFFC7FFF80
07FFF87FFF80
07FFF87FFFC0
07FFF87FFFC0
07FFF87FFFC0
07FFF87FFFC0
07FFF87FFFC0
07FFF87FFFC0
0FFFF83FFFC0
0FFFF83FFFC0
0FFFF83FFFC0
0FFFF83FFFC0
0FFFF83FFFE0
0FFFF83FFFE0
0FFFF03FFFE0
0FFFF03FFFE0
0FFFF03FFFE0
0FFFF03FFFE0
1FFFF03FFFE0
1FFFF01FFFE0
1FFFF01FFFE0
1FFFF01FFFE0
1FFFF01FFFE0
1FFFF01FFFF0
1FFFF01FFFF0
1FFFF01FFFF0
1FFFF01FFFF0
1FFFF01FFFF0
1FFFE01FFFF0
3FFFE01FFFF0
3FFFFFFFFFF0
3FFFFFFFFFF0
3FFFFFFFFFF0
3FFFFFFFFFF8
3FFFFFFFFFF8
3FFFFFFFFFF8
3FFFFFFFFFF8
3FFFFFFFFFF8
3FFFFFFFFFF8
7FFFFFFFFFF8
7FFFFFFFFFF8
7FFFFFFFFFF8
7FFFFFFFFFF8
7FFFFFFFFFF8
7FFFC007FFFC
7FFFC007FFFC
7FFFC007FFFC
7FFFC007FFFC
7FFFC007FFFC
FFFFC007FFFC
FFFFC007FFFC
FFFF8007FFFC
FFFF8007FFFC
FFFF8003FFFC
FFFF8003FFFE
FFFF8003FFFE
FFFF8003FFFE
FFFF8003FFFE
FFFF8003FFFE
ENDCHAR
STARTCHAR B
ENCODING 66
SWIDTH 479 0
DWIDTH 50 0
BBX 44 89 4 0
BITMAP
FFFFFFFC0000
FFFFFFFF8000
FFFFFFFFF000
FFFFFFFFF800
FFFFFFFFFC00
FFFFFFFFFE00
FFFFFFFFFF00
FFFFFFFFFF00
FFFFFFFFFF80
FFFFFFFFFF80
FFFFFFFFFFC0
FFFFFFFFFFC0
FFFFFFFFFFC0
FFFFFFFFFFC0
FFFF81FFFFC0
FFFF80FFFFE0
FFFF807FFFE0
FFFF807FFFE0
FFFF807FFFE0
FFFF807FFFE0
FFFF807FFFE0
FFFF807FFFE0
FFFF807FFFE0
FFFF807FFFE0
FFFF807FFFE0
FFFF807FFFE0
FFFF807FFFE0
FFFF807FFFE0
FFFF807FFFC0
FFFF807FFFC0
FFFF807FFFC0
FFFF80FFFFC0
FFFF81FFFF80
FFFFFFFFFF80
FFFFFFFFFF00
FFFFFFFFFF00
FFFFFFFFFE00
FFFFFFFFF800
FFFFFFFFF000
FFFFFFFFE000
FFFFFFFFF800
FFFFFFFFFC00
FFFFFFFFFE00
FFFFFFFFFF00
FFFFFFFFFF80
FFFFFFFFFF80
FFFFFFFFFFC0
FFFF81FFFFC0
FFFF80FFFFC0
FFFF807FFFE0
FFFF803FFFE0
FFFF803FFFE0
FFFF803FFFE0
FFFF803FFFE0
FFFF803FFFF0
FFFF803FFFF0
FFFF803FFFF0
FFFF803FFFF0
FFFF803FFFF0
FFFF803FFFF0
FFFF803FFFF0
FFFF803FFFF0
FFFF803FFFF0
FFFF803FFFF0
FFFF803FFFF0
FFFF803FFFF0
FFFF803FFFF0
FFFF803FFFE0
FFFF803FFFE0
FFFF803FFFE0
FFFF807FFFE0
FFFF80FFFFE0
FFFF83FFFFE0
FFFFFFFFFFE0
FFFFFFFFFFC0
FFFFFFFFFFC0
FFFFFFFFFFC0
FFFFFFFFFF80
FFFFFFFFFF80
FFFFFFFFFF80
FFFFFFFFFF00
FFFFFFFFFF00
FFFFFFFFFE00
FFFFFFFFFC00
FFFFFFFFF800
FFFFFFFFF000
FFFFFFFFE000
FFFFFFFF8000
FFFFFFFC0000
ENDCHAR
STARTCHAR C
ENCODING 67
SWIDTH 474 0
DWIDTH 49 0
BBX 44 91 3 -1
BITMAP
00007FF00000
0007FFFE0000
001FFFFFC000
007FFFFFF000
00FFFFFFF800
01FFFFFFFC00
03FFFFFFFE00
07FFFFFFFF00
0FFFFFFFFF80
0FFFFFFFFF80
1FFFFFFFFFC0
1FFFFFFFFFC0
3FFFFFFFFFE0
3FFFFFFFFFE0
3FFFFFFFFFE0
7FFFFFFFFFF0
7FFFF0FFFFF0
7FFFE07FFFF0
7FFFE03FFFF0
7FFFC03FFFF0
7FFFC03FFFF0
FFFFC03FFFF0
FFFFC03FFFF0
FFFFC03FFFF0
FFFFC03FFFF0
FFFFC03FFFF0
FFFFC03FFFF0
FFFFC03FFFF0
FFFFC03FFFF0
FFFFC03FFFF0
FFFFC03FFFF0
FFFFC03FFFF0
FFFFC03FFFF0
FFFFC03FFFF0
FFFFC03FFFF0
FFFFC03FFFF0
FFFFC0000000
FFFFC0000000
FFFFC0000000
FFFFC0000000
FFFFC0000000
FFFFC0000000
FFFFC0000000
FFFFC0000000
FFFFC0000000
FFFFC0000000
FFFFC0000000
FFFFC0000000
FFFFC0000000
FFFFC0000000
FFFFC0000000
FFFFC0000000
FFFFC03FFFF0
FFFFC03FFFF0
FFFFC03FFFF0
FFFFC03FFFF0
FFFFC03FFFF0
FFFFC03FFFF0
FFFFC03FFFF0
FFFFC03FFFF0
FFFFC03FFFF0
FFFFC03FFFF0
FFFFC03FFFF0
FFFFC03FFFF0
FFFFC03FFFF0
FFFFC03FFFF0
FFFFC03FFFF0
FFFFC03FFFF0
FFFFC03FFFF0
FFFFC03FFFF0
FFFFC03FFFF0
FFFFC03FFFF0
FFFFE03FFFF0
7FFFE07FFFF0
7FFFF0FFFFF0
7FFFFFFFFFF0
7FFFFFFFFFE0
3FFFFFFFFFE0
3FFFFFFFFFE0
3FFFFFFFFFC0
1FFFFFFFFFC0
1FFFFFFFFFC0
0FFFFFFFFF80
07FFFFFFFF00
03FFFFFFFF00
01FFFFFFFE00
00FFFFFFF800
007FFFFFF000
001FFFFFC000
0007FFFF0000
00007FF00000
ENDCHAR
STARTCHAR D
ENCODING 68
SWIDTH 493 0
DWIDTH 51 0
BBX 44 89 4 0
BITMAP
FFFFFFFC0000
FFFFFFFF8000
FFFFFFFFE000
FFFFFFFFF800
FFFFFFFFFC00
FFFFFFFFFE00
FFFFFFFFFF00
FFFFFFFFFF80
FFFFFFFFFF80
FFFFFFFFFFC0
FFFFFFFFFFC0
FFFFFFFFFFC0
FFFFFFFFFFE0
FFFFFFFFFFE0
FFFFFFFFFFE0
FFFFFFFFFFE0
FFFFC0FFFFF0
FFFFC07FFFF0
FFFFC07FFFF0
FFFFC03FFFF0
FFFFC03FFFF0
FFFFC03FFFF0
FFFFC03FFFF0
FFFFC03FFFF0
FFFFC03FFFF0
FFFFC03FFFF0
FFFFC03FFFF0
FFFFC03FFFF0
FFFFC03FFFF0
FFFFC03FFFF0
FFFFC03FFFF0
FFFFC03FFFF0
FFFFC03FFFF0
FFFFC03FFFF0
FFFFC03FFFF0
FFFFC03FFFF0
FFFFC03FFFF0
FFFFC03FFFF0
FFFFC03FFFF0
FFFFC03FFFF0
FFFFC03FFFF0
FFFFC03FFFF0
FFFFC03FFFF0
FFFFC03FFFF0
FFFFC03FFFF0
FFFFC03FFFF0
FFFFC03FFFF0
FFFFC03FFFF0
FFFFC03FFFF0
FFFFC03FFFF0
FFFFC03FFFF0
FFFFC03FFFF0
FFFFC03FFFF0
FFFFC03FFFF0
FFFFC03FFFF0
FFFFC03FFFF0
FFFFC03FFFF0
FFFFC03FFFF0
FFFFC03FFFF0
FFFFC03FFFF0
FFFFC03FFFF0
FFFFC03FFFF0
FFFFC03FFFF0
FFFFC03FFFF0
FFFFC03FFFF0
FFFFC03FFFF0
FFFFC03FFFF0
FFFFC03FFFF0
FFFFC03FFFF0
FFFFC03FFFF0
FFFFC03FFFF0
FFFFC07FFFE0
FFFFC0FFFFE0
FFFFFFFFFFE0
FFFFFFFFFFE0
FFFFFFFFFFE0
FFFFFFFFFFC0
FFFFFFFFFFC0
FFFFFFFFFFC0
FFFFFFFFFF80
FFFFFFFFFF80
FFFFFFFFFF00
FFFFFFFFFE00
FFFFFFFFFE00
FFFFFFFFFC00
FFFFFFFFF000
FFFFFFFFE000
FFFFFFFF8000
FFFFFFF80000
ENDCHAR
STARTCHAR E
ENCODING 69
SWIDTH 412 0
DWIDTH 43 0
BBX 37 89 4 0
BITMAP
FFFFFFFFF0
FFFFFFFFF0
FFFFFFFFF0
FFFFFFFFF0
FFFFFFFFF0
FFFFFFFFF0
FFFFFFFFF0
FFFFFFFFF0
FFFFFFFFF0
FFFFFFFFF0
FFFFFFFFF0
FFFFFFFFF0
FFFFFFFFF0
FFFFFFFFF0
FFFFFFFFF0
FFFFFFFFF0
FFFFFFFFF0
FFFFC00000
FFFFC00000
FFFFC00000
FFFFC00000
FFFFC00000
FFFFC00000
FFFFC00000
FFFFC00000
FFFFC00000
FFFFC00000
FFFFC00000
FFFFC00000
FFFFC00000
FFFFC00000
FFFFC00000
FFFFC00000
FFFFC00000
FFFFFFFFE0
FFFFFFFFE0
FFFFFFFFE0
FFFFFFFFE0
FFFFFFFFE0
FFFFFFFFE0
FFFFFFFFE0
FFFFFFFFE0
FFFFFFFFE0
FFFFFFFFE0
FFFFFFFFE0
FFFFFFFFE0
FFFFFFFFE0
FFFFFFFFE0
FFFFFFFFE0
FFFFFFFFE0
FFFFFFFFE0
FFFFC00000
FFFFC00000
FFFFC00000
FFFFC00000
FFFFC00000
FFFFC00000
FFFFC00000
FFFFC00000
FFFFC00000
FFFFC00000
FFFFC00000
FFFFC00000
FFFFC00000
FFFFC00000
FFFFC00000
FFFFC00000
FFFFC00000
FFFFC00000
FFFFC00000
FFFFC00000
FFFFC00000
FFFFFFFFF8
FFFFFFFFF8
FFFFFFFFF8
FFFFFFFFF8
FFFFFFFFF8
FFFFFFFFF8
FFFFFFFFF8
FFFFFFFFF8
FFFFFFFFF8
FFFFFFFFF8
FFFFFFFFF8
FFFFFFFFF8
FFFFFFFFF8
FFFFFFFFF8
FFFFFFFFF8
FFFFFFFFF8
FFFFFFFFF8
ENDCHAR
STARTCHAR F
ENCODING 70
SWIDTH 399 0
DWIDTH 42 0
BBX 36 89 4 0
BITMAP
FFFFFFFFF0
FFFFFFFFF0
FFFFFFFFF0
FFFFFFFFF0
FFFFFFFFF0
FFFFFFFFF0
FFFFFFFFF0
FFFFFFFFF0
FFFFFFFFF0
FFFFFFFFF0
FFFFFFFFF0
FFFFFFFFF0
FFFFFFFFF0
FFFFFFFFF0
FFFFFFFFF0
FFFFFFFFF0
FFFFFFFFF0
FFFFC00000
FFFFC00000
FFFFC00000
FFFFC00000
FFFFC00000
FFFFC00000
FFFFC00000
FFFFC00000
FFFFC00000
FFFFC00000
FFFFC00000
FFFFC00000
FFFFC00000
FFFFC00000
FFFFFFFFE0
FFFFFFFFE0
FFFFFFFFE0
FFFFFFFFE0
FFFFFFFFE0
FFFFFFFFE0
FFFFFFFFE0
FFFFFFFFE0
FFFFFFFFE0
FFFFFFFFE0
FFFFFFFFE0
FFFFFFFFE0
FFFFFFFFE0
FFFFFFFFE0
FFFFFFFFE0
FFFFFFFFE0
FFFFFFFFE0
FFFFC00000
FFFFC00000
FFFFC00000
FFFFC00000
FFFFC00000
FFFFC00000
FFFFC00000
FFFFC00000
FFFFC00000
FFFFC00000
FFFFC00000
FFFFC00000
FFFFC00000
FFFFC00000
FFFFC00000
FFFFC00000
FFFFC00000
FFFFC00000
FFFFC00000
FFFFC00000
FFFFC00000
FFFFC00000
FFFFC00000
FFFFC00000
FFFFC00000
FFFFC00000
FFFFC00000
FFFFC00000
FFFFC00000
FFFFC00000
FFFFC00000
FFFFC00000
FFFFC00000
FFFFC00000
FFFFC00000
FFFFC00000
FFFFC00000
FFFFC00000
FFFFC00000
FFFFC00000
FFFFC00000
ENDCHAR
STARTCHAR G
ENCODING 71
SWIDTH 485 0
DWIDTH 50 0
BBX 45 91 3 -1
BITMAP
00007FF00000
0007FFFF0000
001FFFFFC000
007FFFFFF000
00FFFFFFF800
01FFFFFFFC00
03FFFFFFFE00
07FFFFFFFF00
0FFFFFFFFF00
0FFFFFFFFF80
1FFFFFFFFF80
1FFFFFFFFFC0
3FFFFFFFFFC0
3FFFFFFFFFE0
7FFFFFFFFFE0
7FFFFFFFFFE0
7FFFF87FFFE0
7FFFE03FFFE0
7FFFE03FFFF0
7FFFC01FFFF0
FFFFC01FFFF0
FFFFC01FFFF0
FFFFC01FFFF0
FFFFC01FFFF0
FFFFC01FFFF0
FFFFC01FFFF0
FFFFC01FFFF0
FFFFC01FFFF0
FFFFC01FFFF8
FFFFC01FFFF8
FFFFC01FFFF8
FFFFC0000000
FFFFC0000000
FFFFC0000000
FFFFC0000000
FFFFC0000000
FFFFC0000000
FFFFC0000000
FFFFC3FFFFF0
FFFFC3FFFFF0
FFFFC3FFFFF0
FFFFC3FFFFF0
FFFFC3FFFFF0
FFFFC3FFFFF0
FFFFC3FFFFF0
FFFFC3FFFFF0
FFFFC3FFFFF0
FFFFC3FFFFF0
FFFFC3FFFFF0
FFFFC3FFFFF0
FFFFC3FFFFF0
FFFFC3FFFFF0
FFFFC3FFFFF0
FFFFC01FFFF0
FFFFC01FFFF0
FFFFC01FFFF0
FFFFC01FFFF0
FFFFC01FFFF0
FFFFC01FFFF0
FFFFC01FFFF0
FFFFC01FFFF0
FFFFC01FFFF0
FFFFC01FFFF0
FFFFC01FFFF0
FFFFC01FFFF0
FFFFC01FFFF0
FFFFC01FFFF0
FFFFC01FFFF0
FFFFC01FFFF0
FFFFC01FFFF0
7FFFC01FFFF0
7FFFC01FFFF0
7FFFE03FFFF0
7FFFE03FFFF0
7FFFF07FFFF0
7FFFFFFFFFF0
3FFFFFFFFFF0
3FFFFFFFFFF0
3FFFFFFFFFF0
1FFFFFFFFFF0
1FFFFFFFFFF0
1FFFFFFFFFF0
0FFFFFFFFFF0
0FFFFFFFFFF0
07FFFFFF9FF0
03FFFFFF1FF0
01FFFFFE0FF0
00FFFFFC0FF0
007FFFF80FF0
001FFFE007F0
0003FF000000
ENDCHAR
STARTCHAR H
ENCODING 72
SWIDTH 499 0
DWIDTH 52 0
BBX 44 89 4 0
BITMAP
FFFFC03FFFF0
FFFFC03FFFF0
FFFFC03FFFF0
FFFFC03FFFF0
FFFFC03FFFF0
FFFFC03FFFF0
FFFFC03FFFF0
FFFFC03FFFF0
FFFFC03FFFF0
FFFFC03FFFF0
FFFFC03FFFF0
FFFFC03FFFF0
FFFFC03FFFF0
FFFFC03FFFF0
FFFFC03FFFF0
FFFFC03FFFF0
FFFFC03FFFF0
FFFFC03FFFF0
FFFFC03FFFF0
FFFFC03FFFF0
FFFFC03FFFF0
FFFFC03FFFF0
FFFFC03FFFF0
FFFFC03FFFF0
FFFFC03FFFF0
FFFFC03FFFF0
FFFFC03FFFF0
FFFFC03FFFF0
FFFFC03FFFF0
FFFFC03FFFF0
FFFFC03FFFF0
FFFFC03FFFF0
FFFFFFFFFFF0
FFFFFFFFFFF0
FFFFFFFFFFF0
FFFFFFFFFFF0
FFFFFFFFFFF0
FFFFFFFFFFF0
FFFFFFFFFFF0
FFFFFFFFFFF0
FFFFFFFFFFF0
FFFFFFFFFFF0
FFFFFFFFFFF0
FFFFFFFFFFF0
FFFFFFFFFFF0
FFFFFFFFFFF0
FFFFFFFFFFF0
FFFFFFFFFFF0
FFFFFFFFFFF0
FFFFC03FFFF0
FFFFC03FFFF0
FFFFC03FFFF0
FFFFC03FFFF0
FFFFC03FFFF0
FFFFC03FFFF0
FFFFC03FFFF0
FFFFC03FFFF0
FFFFC03FFFF0
FFFFC03FFFF0
FFFFC03FFFF0
FFFFC03FFFF0
FFFFC03FFFF0
FFFFC03FFFF0
FFFFC03FFFF0
FFFFC03FFFF0
FFFFC03FFFF0
FFFFC03FFFF0
FFFFC03FFFF0
FFFFC03FFFF0
FFFFC03FFFF0
FFFFC03FFFF0
FFFFC03FFFF0
FFFFC03FFFF0
FFFFC03FFFF0
FFFFC03FFFF0
FFFFC03FFFF0
FFFFC03FFFF0
FFFFC03FFFF0
FFFFC03FFFF0
FFFFC03FFFF0
FFFFC03FFFF0
FFFFC03FFFF0
FFFFC03FFFF0
FFFFC03FFFF0
FFFFC03FFFF0
FFFFC03FFFF0
FFFFC03FFFF0
FFFFC03FFFF0
FFFFC03FFFF0
ENDCHAR
STARTCHAR I
ENCODING 73
SWIDTH 227 0
DWIDTH 24 0
BBX 17 89 3 0
BITMAP
FFFF80
FFFF80
FFFF80
FFFF80
FFFF80
FFFF80
FFFF80
FFFF80
FFFF80
FFFF80
FFFF80
FFFF80
FFFF80
FFFF80
FFFF80
FFFF80
FFFF80
FFFF80
FFFF80
FFFF80
FFFF80
FFFF80
FFFF80
FFFF80
FFFF80
FFFF80
FFFF80
FFFF80
FFFF80
FFFF80
FFFF80
FFFF80
FFFF80
FFFF80
FFFF80
FFFF80
FFFF80
FFFF80
FFFF80
FFFF80
FFFF80
FFFF80
FFFF80
FFFF80
FFFF80
FFFF80
FFFF80
FFFF80
FFFF80
FFFF80
FFFF80
FFFF80
FFFF80
FFFF80
FFFF80
FFFF80
FFFF80
FFFF80
FFFF80
FFFF80
FFFF80
FFFF80
FFFF80
FFFF80
FFFF80
FFFF80
FFFF80
FFFF80
FFFF80
FFFF80
FFFF80
FFFF80
FFFF80
FFFF80
FFFF80
FFFF80
FFFF80
FFFF80
FFFF80
FFFF80
FFFF80
FFFF80
FFFF80
FFFF80
FFFF80
FFFF80
FFFF80
FFFF80
FFFF80
ENDCHAR
STARTCHAR J
ENCODING 74
SWIDTH 466 0
DWIDTH 48 0
BBX 44 90 2 -1
BITMAP
0000003FFFF0
0000003FFFF0
0000003FFFF0
0000003FFFF0
0000003FFFF0
0000003FFFF0
0000003FFFF0
0000003FFFF0
0000003FFFF0
0000003FFFF0
0000003FFFF0
0000003FFFF0
0000003FFFF0
0000003FFFF0
0000003FFFF0
0000003FFFF0
0000003FFFF0
0000003FFFF0
0000003FFFF0
0000003FFFF0
0000003FFFF0
0000003FFFF0
0000003FFFF0
0000003FFFF0
0000003FFFF0
0000003FFFF0
0000003FFFF0
0000003FFFF0
0000003FFFF0
0000003FFFF0
0000003FFFF0
0000003FFFF0
0000003FFFF0
0000003FFFF0
0000003FFFF0
0000003FFFF0
0000003FFFF0
0000003FFFF0
0000003FFFF0
0000003FFFF0
0000003FFFF0
0000003FFFF0
0000003FFFF0
0000003FFFF0
0000003FFFF0
0000003FFFF0
0000003FFFF0
FFFFC03FFFF0
FFFFC03FFFF0
FFFFC03FFFF0
FFFFC03FFFF0
FFFFC03FFFF0
FFFFC03FFFF0
FFFFC03FFFF0
FFFFC03FFFF0
FFFFC03FFFF0
FFFFC03FFFF0
FFFFC03FFFF0
FFFFC03FFFF0
FFFFC03FFFF0
FFFFC03FFFF0
FFFFC03FFFF0
FFFFC03FFFF0
FFFFC03FFFF0
FFFFC03FFFF0
FFFFC03FFFF0
FFFFC03FFFF0
FFFFC03FFFF0
FFFFC03FFFF0
FFFFC03FFFE0
FFFFC07FFFE0
FFFFC07FFFE0
FFFFC07FFFE0
FFFFF0FFFFE0
FFFFFFFFFFE0
7FFFFFFFFFC0
7FFFFFFFFFC0
7FFFFFFFFFC0
3FFFFFFFFF80
3FFFFFFFFF80
1FFFFFFFFF00
1FFFFFFFFE00
0FFFFFFFFE00
07FFFFFFFC00
03FFFFFFF800
01FFFFFFF000
007FFFFFC000
003FFFFF0000
0007FFFC0000
00007FE00000
ENDCHAR
STARTCHAR K
ENCODING 75
SWIDTH 472 0
DWIDTH 49 0
BBX 46 89 4 0
BITMAP
FFFFC03FFFF0
FFFFC03FFFF0
FFFFC07FFFE0
FFFFC07FFFE0
FFFFC07FFFE0
FFFFC07FFFE0
FFFFC0FFFFC0
FFFFC0FFFFC0
FFFFC0FFFFC0
FFFFC0FFFFC0
FFFFC0FFFF80
FFFFC1FFFF80
FFFFC1FFFF80
FFFFC1FFFF80
FFFFC1FFFF00
FFFFC3FFFF00
FFFFC3FFFF00
FFFFC3FFFF00
FFFFC3FFFE00
FFFFC7FFFE00
FFFFC7FFFE00
FFFFC7FFFE00
FFFFC7FFFE00
FFFFC7FFFC00
FFFFCFFFFC00
FFFFCFFFFC00
FFFFCFFFFC00
FFFFCFFFF800
FFFFDFFFF800
FFFFDFFFF800
FFFFDFFFF800
FFFFDFFFF000
FFFFFFFFF000
FFFFFFFFF000
FFFFFFFFF000
FFFFFFFFE000
FFFFFFFFE000
FFFFFFFFE000
FFFFFFFFE000
FFFFFFFFC000
FFFFFFFFC000
FFFFFFFFC000
FFFFFFFFC000
FFFFFFFFE000
FFFFFFFFE000
FFFFFFFFE000
FFFFFFFFE000
FFFFFFFFF000
FFFFFFFFF000
FFFFFFFFF000
FFFFDFFFF000
FFFFDFFFF800
FFFFDFFFF800
FFFFDFFFF800
FFFFCFFFF800
FFFFCFFFFC00
FFFFCFFFFC00
FFFFCFFFFC00
FFFFC7FFFC00
FFFFC7FFFE00
FFFFC7FFFE00
FFFFC7FFFE00
FFFFC7FFFE00
FFFFC3FFFF00
FFFFC3FFFF00
FFFFC3FFFF00
FFFFC3FFFF00
FFFFC1FFFF80
FFFFC1FFFF80
FFFFC1FFFF80
FFFFC1FFFF80
FFFFC0FFFFC0
FFFFC0FFFFC0
FFFFC0FFFFC0
FFFFC0FFFFC0
FFFFC0FFFFE0
FFFFC07FFFE0
FFFFC07FFFE0
FFFFC07FFFE0
FFFFC07FFFF0
FFFFC03FFFF0
FFFFC03FFFF0
FFFFC03FFFF0
FFFFC03FFFF8
FFFFC03FFFF8
FFFFC01FFFF8
FFFFC01FFFF8
FFFFC01FFFFC
FFFFC01FFFFC
ENDCHAR
STARTCHAR L
ENCODING 76
SWIDTH 397 0
DWIDTH 41 0
BBX 36 89 4 0
BITMAP
FFFFC00000
FFFFC00000
FFFFC00000
FFFFC00000
FFFFC00000
FFFFC00000
FFFFC00000
FFFFC00000
FFFFC00000
FFFFC00000
FFFFC00000
FFFFC00000
FFFFC00000
FFFFC00000
FFFFC00000
FFFFC00000
FFFFC00000
FFFFC00000
FFFFC00000
FFFFC00000
FFFFC00000
FFFFC00000
FFFFC00000
FFFFC00000
FFFFC00000
FFFFC00000
FFFFC00000
FFFFC00000
FFFFC00000
FFFFC00000
FFFFC00000
FFFFC00000
FFFFC00000
FFFFC00000
FFFFC00000
FFFFC00000
FFFFC00000
FFFFC00000
FFFFC00000
FFFFC00000
FFFFC00000
FFFFC00000
FFFFC00000
FFFFC00000
FFFFC00000
FFFFC00000
FFFFC00000
FFFFC00000
FFFFC00000
FFFFC00000
FFFFC00000
FFFFC00000
FFFFC00000
FFFFC00000
FFFFC00000
FFFFC00000
FFFFC00000
FFFFC00000
FFFFC00000
FFFFC00000
FFFFC00000
FFFFC00000
FFFFC00000
FFFFC00000
FFFFC00000
FFFFC00000
FFFFC00000
FFFFC00000
FFFFC00000
FFFFC00000
FFFFC00000
FFFFC00000
FFFFC00000
FFFFC00000
FFFFFFFFF0
FFFFFFFFF0
FFFFFFFFF0
FFFFFFFFF0
FFFFFFFFF0
FFFFFFFFF0
FFFFFFFFF0
FFFFFFFFF0
FFFFFFFFF0
FFFFFFFFF0
FFFFFFFFF0
FFFFFFFFF0
FFFFFFFFF0
FFFFFFFFF0
FFFFFFFFF0
ENDCHAR
STARTCHAR M
ENCODING 77
SWIDTH 746 0
DWIDTH 78 0
BBX 70 89 4 0
BITMAP
FFFFFFE0003FFFFFFC
FFFFFFE0003FFFFFFC
FFFFFFF0003FFFFFFC
FFFFFFF0003FFFFFFC
FFFFFFF0003FFFFFFC
FFFFFFF0007FFFFFFC
FFFFFFF0007FFFFFFC
FFFFFFF0007FFFFFFC
FFFFFFF0007FFFFFFC
FFFFFFF0007FFFFFFC
FFFFFFF8007FFFFFFC
FFFFFFF8007FFFFFFC
FFFFFFF800FFFFFFFC
FFFFFFF800FFFFFFFC
FFFFFFF800FFFFFFFC
FFFFFFF800FFFFFFFC
FFFFFFF800FFFFFFFC
FFFFFFFC00FFFFFFFC
FFFFFFFC00FFFFFFFC
FFFFFFFC01FFFFFFFC
FFFFFFFC01FFFFFFFC
FFFFFFFC01FFFFFFFC
FFFFFFFC01FFFFFFFC
FFFFFFFC01FFFFFFFC
FFFFFFFE01FFFFFFFC
FFFFFFFE01FFFFFFFC
FFFFFFFE01FFFFFFFC
FFFFFFFE03FFFFFFFC
FFFF7FFE03FFFFFFFC
FFFF7FFE03FFFFFFFC
FFFF7FFE03FFFFFFFC
FFFF7FFF03FFF7FFFC
FFFF7FFF03FFF7FFFC
FFFF7FFF03FFF7FFFC
FFFF3FFF07FFF7FFFC
FFFF3FFF07FFF7FFFC
FFFF3FFF07FFF7FFFC
FFFF3FFF07FFE7FFFC
FFFF3FFF07FFE7FFFC
FFFF3FFF87FFE7FFFC
FFFF1FFF87FFE7FFFC
FFFF1FFF8FFFE7FFFC
FFFF1FFF8FFFE7FFFC
FFFF1FFF8FFFC7FFFC
FFFF1FFF8FFFC7FFFC
FFFF1FFF8FFFC7FFFC
FFFF0FFFCFFFC7FFFC
FFFF0FFFCFFFC7FFFC
FFFF0FFFCFFFC7FFFC
FFFF0FFFDFFF87FFFC
FFFF0FFFDFFF87FFFC
FFFF07FFDFFF87FFFC
FFFF07FFDFFF87FFFC
FFFF07FFFFFF87FFFC
FFFF07FFFFFF87FFFC
FFFF07FFFFFF07FFFC
FFFF07FFFFFF07FFFC
FFFF03FFFFFF07FFFC
FFFF03FFFFFF07FFFC
FFFF03FFFFFF07FFFC
FFFF03FFFFFF07FFFC
FFFF03FFFFFE07FFFC
FFFF03FFFFFE07FFFC
FFFF01FFFFFE07FFFC
FFFF01FFFFFE07FFFC
FFFF01FFFFFE07FFFC
FFFF01FFFFFE07FFFC
FFFF01FFFFFE07FFFC
FFFF01FFFFFC07FFFC
FFFF00FFFFFC07FFFC
FFFF00FFFFFC07FFFC
FFFF00FFFFFC07FFFC
FFFF00FFFFFC07FFFC
FFFF00FFFFFC07FFFC
FFFF00FFFFF807FFFC
FFFF007FFFF807FFFC
FFFF007FFFF807FFFC
FFFF007FFFF807FFFC
FFFF007FFFF807FFFC
FFFF007FFFF807FFFC
FFFF003FFFF007FFFC
FFFF003FFFF007FFFC
FFFF003FFFF007FFFC
FFFF003FFFF007FFFC
FFFF003FFFF007FFFC
FFFF003FFFF007FFFC
FFFF001FFFE007FFFC
FFFF001FFFE007FFFC
FFFF001FFFE007FFFC
ENDCHAR
STARTCHAR N
ENCODING 78
SWIDTH 498 0
DWIDTH 52 0
BBX 44 89 4 0
BITMAP
FFFFC01FFFF0
FFFFE01FFFF0
FFFFE01FFFF0
FFFFE01FFFF0
FFFFE01FFFF0
FFFFE01FFFF0
FFFFF01FFFF0
FFFFF01FFFF0
FFFFF01FFFF0
FFFFF01FFFF0
FFFFF01FFFF0
FFFFF81FFFF0
FFFFF81FFFF0
FFFFF81FFFF0
FFFFF81FFFF0
FFFFF81FFFF0
FFFFFC1FFFF0
FFFFFC1FFFF0
FFFFFC1FFFF0
FFFFFC1FFFF0
FFFFFC1FFFF0
FFFFFC1FFFF0
FFFFFE1FFFF0
FFFFFE1FFFF0
FFFFFE1FFFF0
FFFFFE1FFFF0
FFFFFE1FFFF0
FFFFFF1FFFF0
FFFFFF1FFFF0
FFFFFF1FFFF0
FFFFFF1FFFF0
FFFFFF1FFFF0
FFFFFF9FFFF0
FFFFFF9FFFF0
FFFFFF9FFFF0
FFFFFF9FFFF0
FFFFFF9FFFF0
FFFFFFDFFFF0
FFFFFFDFFFF0
FFFFFFDFFFF0
FFFFFFDFFFF0
FFFFFFDFFFF0
FFFFFFDFFFF0
FFFFFFFFFFF0
FFFFFFFFFFF0
FFFFBFFFFFF0
FFFFBFFFFFF0
FFFFBFFFFFF0
FFFFBFFFFFF0
FFFFBFFFFFF0
FFFF9FFFFFF0
FFFF9FFFFFF0
FFFF9FFFFFF0
FFFF9FFFFFF0
FFFF9FFFFFF0
FFFF8FFFFFF0
FFFF8FFFFFF0
FFFF8FFFFFF0
FFFF8FFFFFF0
FFFF8FFFFFF0
FFFF87FFFFF0
FFFF87FFFFF0
FFFF87FFFFF0
FFFF87FFFFF0
FFFF87FFFFF0
FFFF83FFFFF0
FFFF83FFFFF0
FFFF83FFFFF0
FFFF83FFFFF0
FFFF83FFFFF0
FFFF81FFFFF0
FFFF81FFFFF0
FFFF81FFFFF0
FFFF81FFFFF0
FFFF81FFFFF0
FFFF80FFFFF0
FFFF80FFFFF0
FFFF80FFFFF0
FFFF80FFFFF0
FFFF80FFFFF0
FFFF807FFFF0
FFFF807FFFF0
FFFF807FFFF0
FFFF807FFFF0
FFFF807FFFF0
FFFF803FFFF0
FFFF803FFFF0
FFFF803FFFF0
FFFF803FFFF0
ENDCHAR
STARTCHAR O
ENCODING 79
SWIDTH 486 0
DWIDTH 51 0
BBX 44 91 3 -1
BITMAP
00007FF00000
0007FFFF0000
003FFFFFC000
007FFFFFF000
01FFFFFFF800
03FFFFFFFC00
07FFFFFFFE00
0FFFFFFFFF00
0FFFFFFFFF80
1FFFFFFFFF80
1FFFFFFFFFC0
3FFFFFFFFFC0
3FFFFFFFFFE0
7FFFFFFFFFE0
7FFFFFFFFFE0
7FFFFFFFFFF0
7FFFF0FFFFF0
7FFFE07FFFF0
FFFFE03FFFF0
FFFFC03FFFF0
FFFFC03FFFF0
FFFFC03FFFF0
FFFFC03FFFF0
FFFFC03FFFF0
FFFFC03FFFF0
FFFFC03FFFF0
FFFFC03FFFF0
FFFFC03FFFF0
FFFFC03FFFF0
FFFFC03FFFF0
FFFFC03FFFF0
FFFFC03FFFF0
FFFFC03FFFF0
FFFFC03FFFF0
FFFFC03FFFF0
FFFFC03FFFF0
FFFFC03FFFF0
FFFFC03FFFF0
FFFFC03FFFF0
FFFFC03FFFF0
FFFFC03FFFF0
FFFFC03FFFF0
FFFFC03FFFF0
FFFFC03FFFF0
FFFFC03FFFF0
FFFFC03FFFF0
FFFFC03FFFF0
FFFFC03FFFF0
FFFFC03FFFF0
FFFFC03FFFF0
FFFFC03FFFF0
FFFFC03FFFF0
FFFFC03FFFF0
FFFFC03FFFF0
FFFFC03FFFF0
FFFFC03FFFF0
FFFFC03FFFF0
FFFFC03FFFF0
FFFFC03FFFF0
FFFFC03FFFF0
FFFFC03FFFF0
FFFFC03FFFF0
FFFFC03FFFF0
FFFFC03FFFF0
FFFFC03FFFF0
FFFFC03FFFF0
FFFFC03FFFF0
FFFFC03FFFF0
FFFFC03FFFF0
FFFFC03FFFF0
FFFFC03FFFF0
7FFFC03FFFF0
7FFFE03FFFF0
7FFFE07FFFF0
7FFFF0FFFFE0
7FFFFFFFFFE0
3FFFFFFFFFE0
3FFFFFFFFFE0
3FFFFFFFFFC0
1FFFFFFFFFC0
1FFFFFFFFF80
0FFFFFFFFF80
0FFFFFFFFF00
07FFFFFFFE00
03FFFFFFFE00
01FFFFFFFC00
00FFFFFFF800
007FFFFFE000
001FFFFFC000
0007FFFE0000
00007FF00000
ENDCHAR
STARTCHAR P
ENCODING 80
SWIDTH 472 0
DWIDTH 49 0
BBX 43 89 4 0
BITMAP
FFFFFFF80000
FFFFFFFF0000
FFFFFFFFC000
FFFFFFFFF000
FFFFFFFFF800
FFFFFFFFFC00
FFFFFFFFFE00
FFFFFFFFFE00
FFFFFFFFFF00
FFFFFFFFFF00
FFFFFFFFFF80
FFFFFFFFFF80
FFFFFFFFFF80
FFFFFFFFFFC0
FFFFFFFFFFC0
FFFFFFFFFFC0
FFFFC3FFFFC0
FFFFC0FFFFE0
FFFFC0FFFFE0
FFFFC07FFFE0
FFFFC07FFFE0
FFFFC07FFFE0
FFFFC03FFFE0
FFFFC03FFFE0
FFFFC03FFFE0
FFFFC03FFFE0
FFFFC03FFFE0
FFFFC03FFFE0
FFFFC03FFFE0
FFFFC03FFFE0
FFFFC03FFFE0
FFFFC03FFFE0
FFFFC07FFFE0
FFFFC07FFFE0
FFFFC07FFFE0
FFFFC0FFFFE0
FFFFC0FFFFE0
FFFFC3FFFFE0
FFFFFFFFFFC0
FFFFFFFFFFC0
FFFFFFFFFFC0
FFFFFFFFFFC0
FFFFFFFFFF80
FFFFFFFFFF80
FFFFFFFFFF80
FFFFFFFFFF00
FFFFFFFFFF00
FFFFFFFFFE00
FFFFFFFFFE00
FFFFFFFFFC00
FFFFFFFFF800
FFFFFFFFE000
FFFFFFFF8000
FFFFFFFC0000
FFFFC0000000
FFFFC0000000
FFFFC0000000
FFFFC0000000
FFFFC0000000
FFFFC0000000
FFFFC0000000
FFFFC0000000
FFFFC0000000
FFFFC0000000
FFFFC0000000
FFFFC0000000
FFFFC0000000
FFFFC0000000
FFFFC0000000
FFFFC0000000
FFFFC0000000
FFFFC0000000
FFFFC0000000
FFFFC0000000
FFFFC0000000
FFFFC0000000
FFFFC0000000
FFFFC0000000
FFFFC0000000
FFFFC0000000
FFFFC0000000
FFFFC0000000
FFFFC0000000
FFFFC0000000
FFFFC0000000
FFFFC0000000
FFFFC0000000
FFFFC0000000
FFFFC0000000
ENDCHAR
STARTCHAR Q
ENCODING 81
SWIDTH 494 0
DWIDTH 51 0
BBX 47 100 3 -10
BITMAP
0000FFE00000
000FFFFE0000
003FFFFF8000
00FFFFFFE000
01FFFFFFF000
03FFFFFFFC00
07FFFFFFFE00
0FFFFFFFFE00
1FFFFFFFFF00
1FFFFFFFFF80
3FFFFFFFFF80
3FFFFFFFFFC0
7FFFFFFFFFC0
7FFFFFFFFFC0
7FFFFFFFFFE0
7FFFFFFFFFE0
FFFFF0FFFFE0
FFFFE07FFFE0
FFFFC07FFFE0
FFFFC07FFFF0
FFFFC03FFFF0
FFFF803FFFF0
FFFF803FFFF0
FFFF803FFFF0
FFFF803FFFF0
FFFF803FFFF0
FFFF803FFFF0
FFFF803FFFF0
FFFF803FFFF0
FFFF803FFFF0
FFFF803FFFF0
FFFF803FFFF0
FFFF803FFFF0
FFFF803FFFF0
FFFF803FFFF0
FFFF803FFFF0
FFFF803FFFF0
FFFF803FFFF0
FFFF803FFFF0
FFFF803FFFF0
FFFF803FFFF0
FFFF803FFFF0
FFFF803FFFF0
FFFF803FFFF0
FFFF803FFFF0
FFFF803FFFF0
FFFF803FFFF0
FFFF803FFFF0
FFFF803FFFF0
FFFF803FFFF0
FFFF803FFFF0
FFFF803FFFF0
FFFF803FFFF0
FFFF803FFFF0
FFFF803FFFF0
FFFF803FFFF0
FFFF803FFFF0
FFFF803FFFF0
FFFF803FFFF0
FFFF803FFFF0
FFFF803FFFF0
FFFF803FFFF0
FFFF803FFFF0
FFFF803FFFF0
FFFF803FFFF0
FFFF803FFFF0
FFFF803FFFF0
FFFF803FFFF0
FFFF803FFFF0
FFFFC03FFFF0
FFFFC07FFFF0
FFFFC07FFFF0
FFFFC07FFFE0
FFFFE07FFFE0
FFFFF0FFFFE0
7FFFFFFFFFE0
7FFFFFFFFFE0
7FFFFFFFFFC0
3FFFFFFFFFC0
3FFFFFFFFFC0
3FFFFFFFFF80
1FFFFFFFFF80
0FFFFFFFFF00
0FFFFFFFFE00
07FFFFFFFE00
03FFFFFFFF80
01FFFFFFFFC0
00FFFFFFFFF0
003FFFFFFFFC
000FFFFFFFFE
0000FF9FFFFC
0000000FFFF8
00000003FFF8
00000001FFF0
000000007FE0
000000003FE0
000000000FC0
0000000007C0
000000000180
000000000080
ENDCHAR
STARTCHAR R
ENCODING 82
SWIDTH 477 0
DWIDTH 50 0
BBX 44 89 4 0
BITMAP
FFFFFFFF0000
FFFFFFFFE000
FFFFFFFFF800
FFFFFFFFFC00
FFFFFFFFFE00
FFFFFFFFFF00
FFFFFFFFFF80
FFFFFFFFFF80
FFFFFFFFFFC0
FFFFFFFFFFC0
FFFFFFFFFFC0
FFFFFFFFFFC0
FFFFFFFFFFE0
FFFFFFFFFFE0
FFFFFFFFFFE0
FFFFFFFFFFE0
FFFFFFFFFFE0
FFFFC0FFFFE0
FFFFC07FFFE0
FFFFC03FFFE0
FFFFC03FFFF0
FFFFC03FFFF0
FFFFC03FFFF0
FFFFC03FFFF0
FFFFC03FFFF0
FFFFC03FFFF0
FFFFC03FFFF0
FFFFC03FFFF0
FFFFC03FFFE0
FFFFC07FFFE0
FFFFC07FFFE0
FFFFC0FFFFE0
FFFFFFFFFFE0
FFFFFFFFFFE0
FFFFFFFFFFC0
FFFFFFFFFFC0
FFFFFFFFFFC0
FFFFFFFFFF80
FFFFFFFFFF00
FFFFFFFFFE00
FFFFFFFFFC00
FFFFFFFFF000
FFFFFFFFF000
FFFFFFFFFC00
FFFFFFFFFE00
FFFFFFFFFF00
FFFFFFFFFF80
FFFFFFFFFF80
FFFFC3FFFFC0
FFFFC0FFFFC0
FFFFC0FFFFC0
FFFFC07FFFC0
FFFFC07FFFC0
FFFFC07FFFC0
FFFFC07FFFC0
FFFFC07FFFC0
FFFFC07FFFC0
FFFFC07FFFC0
FFFFC07FFFC0
FFFFC07FFFC0
FFFFC07FFFC0
FFFFC07FFFC0
FFFFC07FFFC0
FFFFC07FFFC0
FFFFC07FFFC0
FFFFC07FFFC0
FFFFC07FFFC0
FFFFC07FFFC0
FFFFC07FFFC0
FFFFC07FFFC0
FFFFC07FFFC0
FFFFC07FFFC0
FFFFC07FFFC0
FFFFC07FFFC0
FFFFC07FFFC0
FFFFC07FFFC0
FFFFC07FFFC0
FFFFC07FFFC0
FFFFC07FFFC0
FFFFC07FFFC0
FFFFC07FFFC0
FFFFC07FFFC0
FFFFC07FFFC0
FFFFC07FFFC0
FFFFC07FFFC0
FFFFC07FFFC0
FFFFC07FFFC0
FFFFC07FFFC0
FFFFC07FFFC0
ENDCHAR
STARTCHAR S
ENCODING 83
SWIDTH 461 0
DWIDTH 48 0
BBX 44 91 2 -1
BITMAP
0000FFE00000
000FFFFE0000
003FFFFF8000
00FFFFFFE000
01FFFFFFF000
03FFFFFFF800
07FFFFFFFC00
0FFFFFFFFE00
0FFFFFFFFF00
1FFFFFFFFF00
1FFFFFFFFF80
3FFFFFFFFF80
3FFFFFFFFF80
7FFFFFFFFFC0
7FFFFFFFFFC0
7FFFFFFFFFC0
7FFFE1FFFFE0
7FFFC0FFFFE0
FFFFC07FFFE0
FFFF807FFFE0
FFFF807FFFE0
FFFF807FFFE0
FFFFC07FFFE0
FFFFC07FFFE0
FFFFC07FFFE0
FFFFE07FFFE0
FFFFF0000000
7FFFF0000000
7FFFF8000000
7FFFFC000000
7FFFFE000000
7FFFFF000000
3FFFFF800000
3FFFFFC00000
1FFFFFF00000
1FFFFFF80000
0FFFFFFC0000
0FFFFFFE0000
07FFFFFF0000
03FFFFFF8000
01FFFFFFC000
00FFFFFFE000
007FFFFFF000
003FFFFFF000
001FFFFFF800
000FFFFFFC00
0007FFFFFE00
0003FFFFFF00
0001FFFFFF00
0000FFFFFF80
00007FFFFF80
00003FFFFFC0
00001FFFFFC0
00000FFFFFC0
000007FFFFE0
000007FFFFE0
000003FFFFE0
FFFFC1FFFFE0
FFFFC0FFFFF0
FFFFC0FFFFF0
FFFFC07FFFF0
FFFFC07FFFF0
FFFFC03FFFF0
FFFFC03FFFF0
FFFFC03FFFF0
FFFFC03FFFF0
FFFFC03FFFF0
FFFFC03FFFF0
FFFFC03FFFF0
FFFFC03FFFF0
FFFFC03FFFF0
FFFFC03FFFF0
7FFFC03FFFE0
7FFFE07FFFE0
7FFFF0FFFFE0
7FFFFFFFFFE0
7FFFFFFFFFE0
3FFFFFFFFFC0
3FFFFFFFFFC0
3FFFFFFFFFC0
1FFFFFFFFF80
1FFFFFFFFF80
0FFFFFFFFF00
0FFFFFFFFF00
07FFFFFFFE00
03FFFFFFFC00
01FFFFFFF800
007FFFFFF000
003FFFFFC000
0007FFFF0000
00007FF80000
ENDCHAR
STARTCHAR T
ENCODING 84
SWIDTH 396 0
DWIDTH 41 0
BBX 39 89 1 0
BITMAP
FFFFFFFFFE
FFFFFFFFFE
FFFFFFFFFE
FFFFFFFFFE
FFFFFFFFFE
FFFFFFFFFE
FFFFFFFFFE
FFFFFFFFFE
FFFFFFFFFE
FFFFFFFFFE
FFFFFFFFFE
FFFFFFFFFE
FFFFFFFFFE
FFFFFFFFFE
FFFFFFFFFE
FFFFFFFFFE
FFFFFFFFFE
001FFFF800
001FFFF800
001FFFF800
001FFFF800
001FFFF800
001FFFF800
001FFFF800
001FFFF800
001FFFF800
001FFFF800
001FFFF800
001FFFF800
001FFFF800
001FFFF800
001FFFF800
001FFFF800
001FFFF800
001FFFF800
001FFFF800
001FFFF800
001FFFF800
001FFFF800
001FFFF800
001FFFF800
001FFFF800
001FFFF800
001FFFF800
001FFFF800
001FFFF800
001FFFF800
001FFFF800
001FFFF800
001FFFF800
001FFFF800
001FFFF800
001FFFF800
001FFFF800
001FFFF800
001FFFF800
001FFFF800
001FFFF800
001FFFF800
001FFFF800
001FFFF800
001FFFF800
001FFFF800
001FFFF800
001FFFF800
001FFFF800
001FFFF800
001FFFF800
001FFFF800
001FFFF800
001FFFF800
001FFFF800
001FFFF800
001FFFF800
001FFFF800
001FFFF800
001FFFF800
001FFFF800
001FFFF800
001FFFF800
001FFFF800
001FFFF800
001FFFF800
001FFFF800
001FFFF800
001FFFF800
001FFFF800
001FFFF800
001FFFF800
ENDCHAR
STARTCHAR U
ENCODING 85
SWIDTH 474 0
DWIDTH 49 0
BBX 43 90 3 -1
BITMAP
FFFF803FFFE0
FFFF803FFFE0
FFFF803FFFE0
FFFF803FFFE0
FFFF803FFFE0
FFFF803FFFE0
FFFF803FFFE0
FFFF803FFFE0
FFFF803FFFE0
FFFF803FFFE0
FFFF803FFFE0
FFFF803FFFE0
FFFF803FFFE0
FFFF803FFFE0
FFFF803FFFE0
FFFF803FFFE0
FFFF803FFFE0
FFFF803FFFE0
FFFF803FFFE0
FFFF803FFFE0
FFFF803FFFE0
FFFF803FFFE0
FFFF803FFFE0
FFFF803FFFE0
FFFF803FFFE0
FFFF803FFFE0
FFFF803FFFE0
FFFF803FFFE0
FFFF803FFFE0
FFFF803FFFE0
FFFF803FFFE0
FFFF803FFFE0
FFFF803FFFE0
FFFF803FFFE0
FFFF803FFFE0
FFFF803FFFE0
FFFF803FFFE0
FFFF803FFFE0
FFFF803FFFE0
FFFF803FFFE0
FFFF803FFFE0
FFFF803FFFE0
FFFF803FFFE0
FFFF803FFFE0
FFFF803FFFE0
FFFF803FFFE0
FFFF803FFFE0
FFFF803FFFE0
FFFF803FFFE0
FFFF803FFFE0
FFFF803FFFE0
FFFF803FFFE0
FFFF803FFFE0
FFFF803FFFE0
FFFF803FFFE0
FFFF803FFFE0
FFFF803FFFE0
FFFF803FFFE0
FFFF803FFFE0
FFFF803FFFE0
FFFF803FFFE0
FFFF803FFFE0
FFFF803FFFE0
FFFF803FFFE0
FFFF803FFFE0
FFFF803FFFE0
FFFF803FFFE0
FFFF803FFFE0
FFFF803FFFE0
FFFFC03FFFE0
FFFFC07FFFE0
FFFFC07FFFE0
FFFFE07FFFE0
7FFFF0FFFFE0
7FFFFFFFFFC0
7FFFFFFFFFC0
7FFFFFFFFFC0
3FFFFFFFFFC0
3FFFFFFFFF80
1FFFFFFFFF80
1FFFFFFFFF00
0FFFFFFFFF00
0FFFFFFFFE00
07FFFFFFFC00
03FFFFFFF800
01FFFFFFF000
00FFFFFFE000
003FFFFF8000
000FFFFE0000
0000FFE00000
ENDCHAR
STARTCHAR V
ENCODING 86
SWIDTH 469 0
DWIDTH 49 0
BBX 47 89 1 0
BITMAP
FFFF8003FFFE
FFFF8007FFFC
FFFF8007FFFC
7FFFC007FFFC
7FFFC007FFFC
7FFFC007FFFC
7FFFC007FFFC
7FFFC007FFFC
7FFFC007FFFC
7FFFC007FFF8
7FFFC007FFF8
3FFFC00FFFF8
3FFFE00FFFF8
3FFFE00FFFF8
3FFFE00FFFF8
3FFFE00FFFF8
3FFFE00FFFF8
3FFFE00FFFF0
3FFFE00FFFF0
1FFFE00FFFF0
1FFFE00FFFF0
1FFFF00FFFF0
1FFFF01FFFF0
1FFFF01FFFF0
1FFFF01FFFF0
1FFFF01FFFE0
1FFFF01FFFE0
0FFFF01FFFE0
0FFFF01FFFE0
0FFFF01FFFE0
0FFFF01FFFE0
0FFFF81FFFE0
0FFFF83FFFE0
0FFFF83FFFC0
0FFFF83FFFC0
07FFF83FFFC0
07FFF83FFFC0
07FFF83FFFC0
07FFF83FFFC0
07FFF83FFFC0
07FFFC3FFFC0
07FFFC3FFFC0
07FFFC7FFF80
03FFFC7FFF80
03FFFC7FFF80
03FFFC7FFF80
03FFFC7FFF80
03FFFC7FFF80
03FFFC7FFF80
03FFFE7FFF80
03FFFE7FFF00
01FFFE7FFF00
01FFFE7FFF00
01FFFEFFFF00
01FFFEFFFF00
01FFFEFFFF00
01FFFEFFFF00
01FFFEFFFF00
01FFFEFFFE00
00FFFFFFFE00
00FFFFFFFE00
00FFFFFFFE00
00FFFFFFFE00
00FFFFFFFE00
00FFFFFFFE00
00FFFFFFFE00
00FFFFFFFC00
007FFFFFFC00
007FFFFFFC00
007FFFFFFC00
007FFFFFFC00
007FFFFFFC00
007FFFFFFC00
007FFFFFFC00
007FFFFFF800
007FFFFFF800
003FFFFFF800
003FFFFFF800
003FFFFFF800
003FFFFFF800
003FFFFFF800
003FFFFFF800
003FFFFFF000
003FFFFFF000
001FFFFFF000
001FFFFFF000
001FFFFFF000
001FFFFFF000
001FFFFFF000
ENDCHAR
STARTCHAR W
ENCODING 87
SWIDTH 712 0
DWIDTH 74 0
BBX 72 89 1 0
BITMAP
FFFFC00FFFF803FFFF
7FFFC00FFFF803FFFF
7FFFC00FFFF803FFFE
7FFFC01FFFF803FFFE
7FFFC01FFFF803FFFE
7FFFC01FFFF803FFFE
7FFFC01FFFF807FFFE
7FFFC01FFFF807FFFE
7FFFE01FFFF807FFFE
7FFFE01FFFF807FFFE
7FFFE01FFFF807FFFE
3FFFE01FFFF807FFFC
3FFFE01FFFFC07FFFC
3FFFE01FFFFC07FFFC
3FFFE01FFFFC07FFFC
3FFFE03FFFFC07FFFC
3FFFE03FFFFC07FFFC
3FFFE03FFFFC07FFFC
3FFFE03FFFFC0FFFFC
3FFFF03FFFFC0FFFFC
1FFFF03FFFFC0FFFF8
1FFFF03FFFFC0FFFF8
1FFFF03FFFFC0FFFF8
1FFFF03FFFFC0FFFF8
1FFFF03FFFFE0FFFF8
1FFFF03FFFFE0FFFF8
1FFFF07FFFFE0FFFF8
1FFFF07FFFFE0FFFF8
1FFFF07FFFFE0FFFF8
0FFFF07FFFFE0FFFF0
0FFFF87FFFFE1FFFF0
0FFFF87FFFFE1FFFF0
0FFFF87FFFFE1FFFF0
0FFFF87FFFFE1FFFF0
0FFFF87FFFFE1FFFF0
0FFFF87FFFFE1FFFF0
0FFFF87FFFFF1FFFF0
0FFFF8FFFFFF1FFFF0
07FFF8FFFFFF1FFFE0
07FFF8FFFFFF1FFFE0
07FFF8FFFFFF1FFFE0
07FFF8FFFFFF3FFFE0
07FFFCFFFFFF3FFFE0
07FFFCFFFFFF3FFFE0
07FFFCFFFFFF3FFFE0
07FFFCFFFFFF3FFFE0
07FFFCFFFFFF3FFFE0
07FFFCFFFFFF3FFFC0
03FFFCFFFFFFBFFFC0
03FFFDFFFFFFBFFFC0
03FFFDFFFFFFBFFFC0
03FFFDFFF7FFBFFFC0
03FFFDFFE7FFBFFFC0
03FFFFFFE7FFFFFFC0
03FFFFFFE7FFFFFFC0
03FFFFFFE7FFFFFFC0
03FFFFFFE7FFFFFFC0
01FFFFFFE7FFFFFF80
01FFFFFFE7FFFFFF80
01FFFFFFE7FFFFFF80
01FFFFFFE3FFFFFF80
01FFFFFFE3FFFFFF80
01FFFFFFC3FFFFFF80
01FFFFFFC3FFFFFF80
01FFFFFFC3FFFFFF80
01FFFFFFC3FFFFFF80
00FFFFFFC3FFFFFF00
00FFFFFFC3FFFFFF00
00FFFFFFC3FFFFFF00
00FFFFFFC3FFFFFF00
00FFFFFFC1FFFFFF00
00FFFFFFC1FFFFFF00
00FFFFFF81FFFFFF00
00FFFFFF81FFFFFF00
00FFFFFF81FFFFFF00
00FFFFFF81FFFFFE00
007FFFFF81FFFFFE00
007FFFFF81FFFFFE00
007FFFFF81FFFFFE00
007FFFFF80FFFFFE00
007FFFFF80FFFFFE00
007FFFFF80FFFFFE00
007FFFFF00FFFFFE00
007FFFFF00FFFFFE00
007FFFFF00FFFFFC00
003FFFFF00FFFFFC00
003FFFFF00FFFFFC00
003FFFFF00FFFFFC00
003FFFFF00FFFFFC00
ENDCHAR
STARTCHAR X
ENCODING 88
SWIDTH 484 0
DWIDTH 50 0
BBX 48 89 1 0
BITMAP
3FFFF00FFFFC
1FFFF00FFFFC
1FFFF00FFFFC
1FFFF00FFFF8
1FFFF00FFFF8
1FFFF80FFFF8
1FFFF80FFFF8
0FFFF80FFFF8
0FFFF81FFFF8
0FFFF81FFFF0
0FFFF81FFFF0
0FFFFC1FFFF0
07FFFC1FFFF0
07FFFC1FFFF0
07FFFC1FFFE0
07FFFC1FFFE0
07FFFC3FFFE0
07FFFC3FFFE0
03FFFE3FFFE0
03FFFE3FFFE0
03FFFE3FFFC0
03FFFE3FFFC0
03FFFE3FFFC0
01FFFE7FFFC0
01FFFE7FFFC0
01FFFF7FFF80
01FFFF7FFF80
01FFFF7FFF80
01FFFF7FFF80
00FFFF7FFF80
00FFFF7FFF80
00FFFFFFFF00
00FFFFFFFF00
00FFFFFFFF00
007FFFFFFF00
007FFFFFFF00
007FFFFFFE00
007FFFFFFE00
007FFFFFFE00
007FFFFFFE00
003FFFFFFE00
003FFFFFFE00
003FFFFFFC00
003FFFFFFE00
007FFFFFFE00
007FFFFFFE00
007FFFFFFE00
007FFFFFFE00
007FFFFFFF00
00FFFFFFFF00
00FFFFFFFF00
00FFFFFFFF00
00FFFFFFFF80
00FFFFFFFF80
01FFFFFFFF80
01FFFFFFFF80
01FFFF7FFF80
01FFFF7FFFC0
01FFFF7FFFC0
03FFFE7FFFC0
03FFFE7FFFC0
03FFFE7FFFC0
03FFFE3FFFE0
03FFFE3FFFE0
07FFFE3FFFE0
07FFFC3FFFE0
07FFFC3FFFE0
07FFFC3FFFF0
07FFFC1FFFF0
0FFFFC1FFFF0
0FFFFC1FFFF0
0FFFF81FFFF0
0FFFF81FFFF8
0FFFF81FFFF8
1FFFF80FFFF8
1FFFF80FFFF8
1FFFF80FFFF8
1FFFF00FFFFC
1FFFF00FFFFC
3FFFF00FFFFC
3FFFF007FFFC
3FFFF007FFFC
3FFFF007FFFE
7FFFE007FFFE
7FFFE007FFFE
7FFFE007FFFE
7FFFE007FFFE
7FFFE003FFFF
FFFFE003FFFF
ENDCHAR
STARTCHAR Y
ENCODING 89
SWIDTH 446 0
DWIDTH 46 0
BBX 45 89 1 0
BITMAP
FFFF801FFFF8
FFFF801FFFF8
FFFFC01FFFF0
FFFFC01FFFF0
7FFFC03FFFF0
7FFFC03FFFF0
7FFFC03FFFE0
7FFFC03FFFE0
3FFFE03FFFE0
3FFFE03FFFE0
3FFFE07FFFC0
3FFFE07FFFC0
3FFFE07FFFC0
1FFFE07FFFC0
1FFFF07FFF80
1FFFF07FFF80
1FFFF0FFFF80
0FFFF0FFFF80
0FFFF0FFFF00
0FFFF0FFFF00
0FFFF8FFFF00
07FFF8FFFF00
07FFF8FFFF00
07FFF9FFFE00
07FFF9FFFE00
03FFF9FFFE00
03FFF9FFFE00
03FFFDFFFC00
03FFFDFFFC00
01FFFFFFFC00
01FFFFFFFC00
01FFFFFFF800
01FFFFFFF800
01FFFFFFF800
00FFFFFFF800
00FFFFFFF000
00FFFFFFF000
00FFFFFFF000
007FFFFFF000
007FFFFFE000
007FFFFFE000
007FFFFFE000
003FFFFFE000
003FFFFFE000
003FFFFFC000
003FFFFFC000
001FFFFFC000
001FFFFFC000
001FFFFF8000
001FFFFF8000
000FFFFF8000
000FFFFF8000
000FFFFF0000
000FFFFF0000
000FFFFF0000
0007FFFF0000
0007FFFE0000
0007FFFE0000
0007FFFE0000
0003FFFE0000
0003FFFE0000
0003FFFE0000
0003FFFE0000
0003FFFE0000
0003FFFE0000
0003FFFE0000
0003FFFE0000
0003FFFE0000
0003FFFE0000
0003FFFE0000
0003FFFE0000
0003FFFE0000
0003FFFE0000
0003FFFE0000
0003FFFE0000
0003FFFE0000
0003FFFE0000
0003FFFE0000
0003FFFE0000
0003FFFE0000
0003FFFE0000
0003FFFE0000
0003FFFE0000
0003FFFE0000
0003FFFE0000
0003FFFE0000
0003FFFE0000
0003FFFE0000
0003FFFE0000
ENDCHAR
STARTCHAR Z
ENCODING 90
SWIDTH 410 0
DWIDTH 43 0
BBX 39 89 2 0
BITMAP
3FFFFFFFFE
3FFFFFFFFE
3FFFFFFFFE
3FFFFFFFFE
3FFFFFFFFE
3FFFFFFFFE
3FFFFFFFFE
3FFFFFFFFE
3FFFFFFFFE
3FFFFFFFFE
3FFFFFFFFE
3FFFFFFFFE
3FFFFFFFFE
3FFFFFFFFE
3FFFFFFFFE
3FFFFFFFFE
00000FFFFE
00000FFFFC
00001FFFFC
00001FFFF8
00003FFFF8
00003FFFF8
00003FFFF0
00007FFFF0
00007FFFF0
00007FFFE0
0000FFFFE0
0000FFFFE0
0000FFFFC0
0001FFFFC0
0001FFFF80
0001FFFF80
0003FFFF80
0003FFFF00
0007FFFF00
0007FFFF00
0007FFFE00
000FFFFE00
000FFFFE00
000FFFFC00
001FFFFC00
001FFFF800
001FFFF800
003FFFF800
003FFFF000
003FFFF000
007FFFF000
007FFFE000
00FFFFE000
00FFFFE000
00FFFFC000
01FFFFC000
01FFFFC000
01FFFF8000
03FFFF8000
03FFFF0000
03FFFF0000
07FFFF0000
07FFFE0000
07FFFE0000
0FFFFE0000
0FFFFC0000
1FFFFC0000
1FFFFC0000
1FFFF80000
3FFFF80000
3FFFF00000
3FFFF00000
7FFFF00000
7FFFE00000
7FFFE00000
FFFFE00000
FFFFC00000
FFFFFFFFFC
FFFFFFFFFC
FFFFFFFFFC
FFFFFFFFFC
FFFFFFFFFC
FFFFFFFFFC
FFFFFFFFFC
FFFFFFFFFC
FFFFFFFFFC
FFFFFFFFFC
FFFFFFFFFC
FFFFFFFFFC
FFFFFFFFFC
FFFFFFFFFC
FFFFFFFFFC
FFFFFFFFFC
ENDCHAR
STARTCHAR bracketleft
ENCODING 91
SWIDTH 318 0
DWIDTH 33 0
BBX 28 89 3 0
BITMAP
FFFFFFF0
FFFFFFF0
FFFFFFF0
FFFFFFF0
FFFFFFF0
FFFFFFF0
FFFFFFF0
FFFFFFF0
FFFFFFF0
FFFFFFF0
FFFFFFF0
FFFFFFF0
FFFFFFF0
FFFFFFF0
FFFFC000
FFFFC000
FFFFC000
FFFFC000
FFFFC000
FFFFC000
FFFFC000
FFFFC000
FFFFC000
FFFFC000
FFFFC000
FFFFC000
FFFFC000
FFFFC000
FFFFC000
FFFFC000
FFFFC000
FFFFC000
FFFFC000
FFFFC000
FFFFC000
FFFFC000
FFFFC000
FFFFC000
FFFFC000
FFFFC000
FFFFC000
FFFFC000
FFFFC000
FFFFC000
FFFFC000
FFFFC000
FFFFC000
FFFFC000
FFFFC000
FFFFC000
FFFFC000
FFFFC000
FFFFC000
FFFFC000
FFFFC000
FFFFC000
FFFFC000
FFFFC000
FFFFC000
FFFFC000
FFFFC000
FFFFC000
FFFFC000
FFFFC000
FFFFC000
FFFFC000
FFFFC000
FFFFC000
FFFFC000
FFFFC000
FFFFC000
FFFFC000
FFFFC000
FFFFC000
FFFFC000
FFFFFFF0
FFFFFFF0
FFFFFFF0
FFFFFFF0
FFFFFFF0
FFFFFFF0
FFFFFFF0
FFFFFFF0
FFFFFFF0
FFFFFFF0
FFFFFFF0
FFFFFFF0
FFFFFFF0
FFFFFFF0
ENDCHAR
STARTCHAR backslash
ENCODING 92
SWIDTH 405 0
DWIDTH 42 0
BBX 40 90 1 0
BITMAP
FFFFE00000
7FFFE00000
7FFFE00000
7FFFF00000
7FFFF00000
3FFFF00000
3FFFF00000
3FFFF80000
3FFFF80000
1FFFF80000
1FFFF80000
1FFFFC0000
1FFFFC0000
1FFFFC0000
0FFFFC0000
0FFFFC0000
0FFFFE0000
0FFFFE0000
07FFFE0000
07FFFE0000
07FFFF0000
07FFFF0000
03FFFF0000
03FFFF0000
03FFFF8000
03FFFF8000
01FFFF8000
01FFFF8000
01FFFF8000
01FFFFC000
01FFFFC000
00FFFFC000
00FFFFC000
00FFFFE000
00FFFFE000
007FFFE000
007FFFE000
007FFFF000
007FFFF000
003FFFF000
003FFFF000
003FFFF000
003FFFF800
003FFFF800
001FFFF800
001FFFF800
001FFFFC00
001FFFFC00
000FFFFC00
000FFFFC00
000FFFFE00
000FFFFE00
0007FFFE00
0007FFFE00
0007FFFE00
0007FFFF00
0007FFFF00
0003FFFF00
0003FFFF00
0003FFFF80
0003FFFF80
0001FFFF80
0001FFFF80
0001FFFFC0
0001FFFFC0
0000FFFFC0
0000FFFFC0
0000FFFFC0
0000FFFFE0
0000FFFFE0
00007FFFE0
00007FFFE0
00007FFFF0
00007FFFF0
00003FFFF0
00003FFFF0
00003FFFF8
00003FFFF8
00001FFFF8
00001FFFF8
00001FFFF8
00001FFFFC
00000FFFFC
00000FFFFC
00000FFFFC
00000FFFFE
00000FFFFE
000007FFFE
000007FFFE
000007FFFF
ENDCHAR
STARTCHAR bracketright
ENCODING 93
SWIDTH 318 0
DWIDTH 33 0
BBX 28 89 2 0
BITMAP
FFFFFFF0
FFFFFFF0
FFFFFFF0
FFFFFFF0
FFFFFFF0
FFFFFFF0
FFFFFFF0
FFFFFFF0
FFFFFFF0
FFFFFFF0
FFFFFFF0
FFFFFFF0
FFFFFFF0
FFFFFFF0
003FFFF0
003FFFF0
003FFFF0
003FFFF0
003FFFF0
003FFFF0
003FFFF0
003FFFF0
003FFFF0
003FFFF0
003FFFF0
003FFFF0
003FFFF0
003FFFF0
003FFFF0
003FFFF0
003FFFF0
003FFFF0
003FFFF0
003FFFF0
003FFFF0
003FFFF0
003FFFF0
003FFFF0
003FFFF0
003FFFF0
003FFFF0
003FFFF0
003FFFF0
003FFFF0
003FFFF0
003FFFF0
003FFFF0
003FFFF0
003FFFF0
003FFFF0
003FFFF0
003FFFF0
003FFFF0
003FFFF0
003FFFF0
003FFFF0
003FFFF0
003FFFF0
003FFFF0
003FFFF0
003FFFF0
003FFFF0
003FFFF0
003FFFF0
003FFFF0
003FFFF0
003FFFF0
003FFFF0
003FFFF0
003FFFF0
003FFFF0
003FFFF0
003FFFF0
003FFFF0
003FFFF0
FFFFFFF0
FFFFFFF0
FFFFFFF0
FFFFFFF0
FFFFFFF0
FFFFFFF0
FFFFFFF0
FFFFFFF0
FFFFFFF0
FFFFFFF0
FFFFFFF0
FFFFFFF0
FFFFFFF0
FFFFFFF0
ENDCHAR
STARTCHAR asciicircum
ENCODING 94
SWIDTH 474 0
DWIDTH 49 0
BBX 45 47 2 22
BITMAP
000FFFFF8000
000FFFFF8000
000FFFFFC000
001FFFFFC000
001FFFFFC000
001FFFFFC000
001FFFFFE000
003FFFFFE000
003FFFFFE000
003FFFFFE000
003FFFFFF000
007FFFFFF000
007FFFFFF000
007FFFFFF000
00FFFFFFF800
00FFFFFFF800
00FFFFFFF800
00FFFFFFFC00
01FFFDFFFC00
01FFFDFFFC00
01FFFDFFFC00
01FFFDFFFE00
03FFFDFFFE00
03FFFCFFFE00
03FFFCFFFE00
03FFF8FFFF00
07FFF8FFFF00
07FFF8FFFF00
07FFF8FFFF00
07FFF8FFFF80
0FFFF87FFF80
0FFFF87FFF80
0FFFF07FFF80
0FFFF07FFFC0
1FFFF07FFFC0
1FFFF07FFFC0
1FFFF07FFFC0
1FFFF03FFFE0
3FFFF03FFFE0
3FFFE03FFFE0
3FFFE03FFFF0
7FFFE03FFFF0
7FFFE03FFFF0
7FFFE01FFFF0
7FFFE01FFFF8
FFFFE01FFFF8
FFFFC01FFFF8
ENDCHAR
STARTCHAR underscore
ENCODING 95
SWIDTH 365 0
DWIDTH 38 0
BBX 33 12 3 -18
BITMAP
FFFFFFFF80
FFFFFFFF80
FFFFFFFF80
FFFFFFFF80
FFFFFFFF80
FFFFFFFF80
FFFFFFFF80
FFFFFFFF80
FFFFFFFF80
FFFFFFFF80
FFFFFFFF80
FFFFFFFF80
ENDCHAR
STARTCHAR grave
ENCODING 96
SWIDTH 317 0
DWIDTH 33 0
BBX 24 22 3 79
BITMAP
C00000
F00000
FC0000
FF0000
FFE000
FFF800
FFFE00
FFFF80
FFFFE0
FFFFF8
FFFFFF
FFFFFF
FFFFFF
FFFFFF
FFFFFF
FFFFFF
FFFFFF
7FFFFF
03FFFF
001FFF
0000FF
000007
ENDCHAR
STARTCHAR a
ENCODING 97
SWIDTH 483 0
DWIDTH 50 0
BBX 45 78 2 -1
BITMAP
000001000000
0003FFFE0000
001FFFFFC000
007FFFFFF000
01FFFFFFFC00
03FFFFFFFE00
07FFFFFFFF00
07FFFFFFFF80
0FFFFFFFFFC0
1FFFFFFFFFC0
1FFFFFFFFFE0
1FFFFFFFFFE0
3FFFFFFFFFF0
3FFFFFFFFFF0
3FFFFFFFFFF0
3FFFF07FFFF8
7FFFF03FFFF8
7FFFE03FFFF8
7FFFE03FFFF8
7FFFE01FFFF8
7FFFE01FFFF8
7FFFE01FFFF8
7FFFE01FFFF8
7FFFE01FFFF8
0000001FFFF8
0000001FFFF8
0000001FFFF8
0000001FFFF8
0000001FFFF8
000000FFFFF8
000007FFFFF8
00003FFFFFF8
0001FFFFFFF8
000FFFFFFFF8
003FFFFFFFF8
00FFFFFFFFF8
01FFFFFFFFF8
03FFFFFFFFF8
07FFFF3FFFF8
0FFFFC3FFFF8
1FFFF83FFFF8
1FFFF03FFFF8
3FFFF03FFFF8
3FFFE03FFFF8
7FFFE03FFFF8
7FFFE03FFFF8
7FFFE03FFFF8
7FFFE03FFFF8
7FFFE03FFFF8
FFFFE03FFFF8
FFFFE03FFFF8
FFFFE03FFFF8
FFFFE03FFFF8
FFFFE03FFFF8
FFFFE03FFFF8
FFFFE03FFFF8
FFFFE03FFFF8
FFFFE03FFFF8
FFFFE03FFFF8
FFFFE03FFFF8
FFFFE03FFFF8
FFFFE03FFFF8
FFFFF07FFFF8
7FFFF8FFFFF8
7FFFFFFFFFF8
7FFFFFFFFFF8
7FFFFFFFFFF8
7FFFFFFFFFF8
3FFFFFFFFFF8
3FFFFFDFFFF8
3FFFFFDFFFF8
1FFFFFDFFFF8
0FFFFF9FFFF8
0FFFFF1FFFF8
07FFFE1FFFF8
03FFFC1FFFF8
00FFF81FFFF8
001FE0000000
ENDCHAR
STARTCHAR b
ENCODING 98
SWIDTH 501 0
DWIDTH 52 0
BBX 45 91 4 -1
BITMAP
FFFFC0000000
FFFFC0000000
FFFFC0000000
FFFFC0000000
FFFFC0000000
FFFFC0000000
FFFFC0000000
FFFFC0000000
FFFFC0000000
FFFFC0000000
FFFFC0000000
FFFFC0000000
FFFFC0000000
FFFFC0080000
FFFFC1FFE000
FFFFC7FFFC00
FFFFCFFFFE00
FFFFDFFFFF00
FFFFFFFFFF80
FFFFFFFFFFC0
FFFFFFFFFFC0
FFFFFFFFFFE0
FFFFFFFFFFE0
FFFFFFFFFFF0
FFFFFFFFFFF0
FFFFFFFFFFF0
FFFFFFFFFFF0
FFFFFFFFFFF8
FFFFF07FFFF8
FFFFE03FFFF8
FFFFE03FFFF8
FFFFE03FFFF8
FFFFE01FFFF8
FFFFC01FFFF8
FFFFC01FFFF8
FFFFC01FFFF8
FFFFC01FFFF8
FFFFC01FFFF8
FFFFC01FFFF8
FFFFC01FFFF8
FFFFC01FFFF8
FFFFC01FFFF8
FFFFC01FFFF8
FFFFC01FFFF8
FFFFC01FFFF8
FFFFC01FFFF8
FFFFC01FFFF8
FFFFC01FFFF8
FFFFC01FFFF8
FFFFC01FFFF8
FFFFC01FFFF8
FFFFC01FFFF8
FFFFC01FFFF8
FFFFC01FFFF8
FFFFC01FFFF8
FFFFC01FFFF8
FFFFC01FFFF8
FFFFC01FFFF8
FFFFC01FFFF8
FFFFC01FFFF8
FFFFC01FFFF8
FFFFC01FFFF8
FFFFC01FFFF8
FFFFC01FFFF8
FFFFC01FFFF8
FFFFC01FFFF8
FFFFC01FFFF8
FFFFC01FFFF8
FFFFC01FFFF8
FFFFC01FFFF8
FFFFC01FFFF8
FFFFE01FFFF8
FFFFE01FFFF8
FFFFE03FFFF8
FFFFE03FFFF8
FFFFF03FFFF8
FFFFF87FFFF8
FFFFFFFFFFF0
FFFFFFFFFFF0
FFFFFFFFFFF0
FFFFFFFFFFF0
FFFFFFFFFFE0
FFFFFFFFFFE0
FFFFDFFFFFC0
FFFFDFFFFFC0
FFFFCFFFFF80
FFFFC7FFFF00
FFFFC7FFFE00
FFFFC3FFFC00
FFFFC0FFF000
0000003F8000
ENDCHAR
STARTCHAR c
ENCODING 99
SWIDTH 491 0
DWIDTH 51 0
BBX 45 78 3 -1
BITMAP
000001000000
0001FFFE0000
000FFFFFC000
003FFFFFF000
00FFFFFFFC00
01FFFFFFFE00
03FFFFFFFF00
07FFFFFFFF80
0FFFFFFFFFC0
0FFFFFFFFFE0
1FFFFFFFFFE0
1FFFFFFFFFF0
3FFFFFFFFFF0
3FFFFFFFFFF0
3FFFFFFFFFF8
7FFFF03FFFF8
7FFFE03FFFF8
7FFFE03FFFF8
7FFFE01FFFF8
7FFFC01FFFF8
FFFFC01FFFF8
FFFFC01FFFF8
FFFFC01FFFF8
FFFFC01FFFF8
FFFFC01FFFF8
FFFFC01FFFF8
FFFFC01FFFF8
FFFFC01FFFF8
FFFFC01FFFF8
FFFFC01FFFF8
FFFFC01FFFF8
FFFFC0000000
FFFFC0000000
FFFFC0000000
FFFFC0000000
FFFFC0000000
FFFFC0000000
FFFFC0000000
FFFFC0000000
FFFFC0000000
FFFFC0000000
FFFFC0000000
FFFFC0000000
FFFFC0000000
FFFFC0000000
FFFFC01FFFF8
FFFFC01FFFF8
FFFFC01FFFF8
FFFFC01FFFF8
FFFFC01FFFF8
FFFFC01FFFF8
FFFFC01FFFF8
FFFFC01FFFF8
FFFFC01FFFF8
FFFFC01FFFF8
FFFFC01FFFF8
FFFFC01FFFF8
FFFFC01FFFF8
FFFFC01FFFF8
7FFFC01FFFF8
7FFFE01FFFF8
7FFFE03FFFF8
7FFFF03FFFF8
7FFFF87FFFF8
3FFFFFFFFFF0
3FFFFFFFFFF0
3FFFFFFFFFF0
1FFFFFFFFFE0
1FFFFFFFFFE0
0FFFFFFFFFC0
07FFFFFFFF80
07FFFFFFFF80
03FFFFFFFE00
01FFFFFFFC00
007FFFFFF800
001FFFFFE000
0007FFFF8000
00007FF80000
ENDCHAR
STARTCHAR d
ENCODING 100
SWIDTH 498 0
DWIDTH 52 0
BBX 45 91 3 -1
BITMAP
0000001FFFF8
0000001FFFF8
0000001FFFF8
0000001FFFF8
0000001FFFF8
0000001FFFF8
0000001FFFF8
0000001FFFF8
0000001FFFF8
0000001FFFF8
0000001FFFF8
0000001FFFF8
0000001FFFF8
0001001FFFF8
003FFC1FFFF8
00FFFF1FFFF8
03FFFF9FFFF8
07FFFFDFFFF8
0FFFFFFFFFF8
0FFFFFFFFFF8
1FFFFFFFFFF8
3FFFFFFFFFF8
3FFFFFFFFFF8
3FFFFFFFFFF8
7FFFFFFFFFF8
7FFFFFFFFFF8
7FFFFFFFFFF8
7FFFFFFFFFF8
FFFFF07FFFF8
FFFFE03FFFF8
FFFFE03FFFF8
FFFFE01FFFF8
FFFFC01FFFF8
FFFFC01FFFF8
FFFFC01FFFF8
FFFFC01FFFF8
FFFFC01FFFF8
FFFFC01FFFF8
FFFFC01FFFF8
FFFFC01FFFF8
FFFFC01FFFF8
FFFFC01FFFF8
FFFFC01FFFF8
FFFFC01FFFF8
FFFFC01FFFF8
FFFFC01FFFF8
FFFFC01FFFF8
FFFFC01FFFF8
FFFFC01FFFF8
FFFFC01FFFF8
FFFFC01FFFF8
FFFFC01FFFF8
FFFFC01FFFF8
FFFFC01FFFF8
FFFFC01FFFF8
FFFFC01FFFF8
FFFFC01FFFF8
FFFFC01FFFF8
FFFFC01FFFF8
FFFFC01FFFF8
FFFFC01FFFF8
FFFFC01FFFF8
FFFFC01FFFF8
FFFFC01FFFF8
FFFFC01FFFF8
FFFFC01FFFF8
FFFFC01FFFF8
FFFFC01FFFF8
FFFFC01FFFF8
FFFFC01FFFF8
FFFFC01FFFF8
FFFFC01FFFF8
FFFFE01FFFF8
FFFFE03FFFF8
FFFFE03FFFF8
FFFFF03FFFF8
7FFFF8FFFFF8
7FFFFFFFFFF8
7FFFFFFFFFF8
7FFFFFFFFFF8
7FFFFFFFFFF8
3FFFFFFFFFF8
3FFFFFFFFFF8
3FFFFFDFFFF8
1FFFFFDFFFF8
0FFFFF9FFFF8
0FFFFF9FFFF8
07FFFF1FFFF8
03FFFE1FFFF8
00FFFC1FFFF8
001FE0000000
ENDCHAR
STARTCHAR e
ENCODING 101
SWIDTH 488 0
DWIDTH 51 0
BBX 45 78 3 -1
BITMAP
000002000000
0001FFFE0000
000FFFFFC000
003FFFFFF000
00FFFFFFFC00
01FFFFFFFE00
03FFFFFFFF00
07FFFFFFFF80
0FFFFFFFFF80
1FFFFFFFFFC0
1FFFFFFFFFE0
3FFFFFFFFFE0
3FFFFFFFFFE0
7FFFFFFFFFF0
7FFFFFFFFFF0
7FFFF07FFFF0
FFFFE03FFFF0
FFFFE03FFFF8
FFFFE03FFFF8
FFFFC01FFFF8
FFFFC01FFFF8
FFFFC01FFFF8
FFFFC01FFFF8
FFFFC01FFFF8
FFFFC01FFFF8
FFFFC01FFFF8
FFFFC01FFFF8
FFFFC01FFFF8
FFFFC01FFFF8
FFFFC01FFFF8
FFFFC01FFFF8
FFFFC01FFFF8
FFFFFFFFFFF8
FFFFFFFFFFF8
FFFFFFFFFFF8
FFFFFFFFFFF8
FFFFFFFFFFF8
FFFFFFFFFFF8
FFFFFFFFFFF8
FFFFFFFFFFF8
FFFFFFFFFFF8
FFFFC0000000
FFFFC0000000
FFFFC0000000
FFFFC0000000
FFFFC0000000
FFFFC0000000
FFFFC0000000
FFFFC01FFFF8
FFFFC01FFFF8
FFFFC01FFFF8
FFFFC01FFFF8
FFFFC01FFFF8
FFFFC01FFFF8
FFFFC01FFFF8
FFFFC01FFFF8
FFFFC01FFFF8
FFFFC01FFFF8
FFFFC01FFFF8
FFFFC01FFFF0
7FFFE03FFFF0
7FFFE03FFFF0
7FFFE03FFFF0
7FFFF87FFFF0
3FFFFFFFFFE0
3FFFFFFFFFE0
3FFFFFFFFFE0
1FFFFFFFFFC0
1FFFFFFFFFC0
0FFFFFFFFF80
0FFFFFFFFF80
07FFFFFFFF00
03FFFFFFFE00
01FFFFFFFC00
00FFFFFFF800
003FFFFFE000
000FFFFF0000
0000FFF00000
ENDCHAR
STARTCHAR f
ENCODING 102
SWIDTH 280 0
DWIDTH 29 0
BBX 25 90 2 0
BITMAP
001FF800
00FFFF80
01FFFF80
03FFFF80
07FFFF80
07FFFF80
0FFFFF80
0FFFFF80
0FFFFF80
1FFFFF80
1FFFFF80
1FFFFF80
1FFFFC00
1FFFF800
1FFFF800
1FFFF800
1FFFF800
FFFFFF80
FFFFFF80
FFFFFF80
FFFFFF80
FFFFFF80
FFFFFF80
FFFFFF80
FFFFFF80
FFFFFF80
FFFFFF80
FFFFFF80
FFFFFF80
FFFFFF80
FFFFFF80
1FFFF800
1FFFF800
1FFFF800
1FFFF800
1FFFF800
1FFFF800
1FFFF800
1FFFF800
1FFFF800
1FFFF800
1FFFF800
1FFFF800
1FFFF800
1FFFF800
1FFFF800
1FFFF800
1FFFF800
1FFFF800
1FFFF800
1FFFF800
1FFFF800
1FFFF800
1FFFF800
1FFFF800
1FFFF800
1FFFF800
1FFFF800
1FFFF800
1FFFF800
1FFFF800
1FFFF800
1FFFF800
1FFFF800
1FFFF800
1FFFF800
1FFFF800
1FFFF800
1FFFF800
1FFFF800
1FFFF800
1FFFF800
1FFFF800
1FFFF800
1FFFF800
1FFFF800
1FFFF800
1FFFF800
1FFFF800
1FFFF800
1FFFF800
1FFFF800
1FFFF800
1FFFF800
1FFFF800
1FFFF800
1FFFF800
1FFFF800
1FFFF800
1FFFF800
ENDCHAR
STARTCHAR g
ENCODING 103
SWIDTH 504 0
DWIDTH 52 0
BBX 47 89 2 -12
BITMAP
000080000000
001FFC0FFFFE
00FFFF0FFFFE
01FFFF8FFFFE
03FFFFCFFFFE
07FFFFEFFFFE
07FFFFEFFFFE
0FFFFFFFFFFE
0FFFFFFFFFFE
1FFFFFFFFFFE
1FFFFFFFFFFE
1FFFFFFFFFFE
3FFFFFFFFFFE
3FFFFFFFFFFE
3FFFFC7FFFFE
3FFFF81FFFFE
3FFFF81FFFFE
3FFFF00FFFFE
3FFFF00FFFFE
3FFFF00FFFFE
3FFFF00FFFFE
3FFFF00FFFFE
3FFFF00FFFFE
3FFFF00FFFFE
3FFFF00FFFFE
3FFFF00FFFFE
3FFFF00FFFFE
3FFFF00FFFFE
3FFFF00FFFFE
3FFFF00FFFFE
3FFFF00FFFFE
3FFFF00FFFFE
3FFFF00FFFFE
3FFFF00FFFFE
3FFFF00FFFFE
3FFFF00FFFFE
3FFFF00FFFFE
3FFFF00FFFFE
3FFFF00FFFFE
3FFFF00FFFFE
3FFFF00FFFFE
3FFFF00FFFFE
3FFFF00FFFFE
3FFFF00FFFFE
3FFFF00FFFFE
3FFFF00FFFFE
3FFFF00FFFFE
3FFFF00FFFFE
3FFFF00FFFFE
3FFFF00FFFFE
3FFFF00FFFFE
3FFFF00FFFFE
3FFFF00FFFFE
3FFFF80FFFFE
3FFFF81FFFFE
3FFFFC3FFFFE
3FFFFFFFFFFE
3FFFFFFFFFFE
1FFFFFFFFFFE
1FFFFFFFFFFE
1FFFFFFFFFFE
0FFFFFFFFFFE
0FFFFFFFFFFE
07FFFFFFFFFE
07FFFFEFFFFE
03FFFFEFFFFE
01FFFFCFFFFE
00FFFF8FFFFE
003FFF0FFFFE
000FF80FFFFE
0000000FFFFE
0000001FFFFE
0200001FFFFC
0380003FFFFC
07E0007FFFFC
07FE01FFFFFC
0FFFFFFFFFF8
1FFFFFFFFFF8
1FFFFFFFFFF0
3FFFFFFFFFF0
3FFFFFFFFFE0
7FFFFFFFFFE0
FFFFFFFFFFC0
7FFFFFFFFF80
1FFFFFFFFF00
0FFFFFFFFC00
03FFFFFFF000
007FFFFFC000
0003FFF80000
ENDCHAR
STARTCHAR h
ENCODING 104
SWIDTH 505 0
DWIDTH 53 0
BBX 45 90 4 0
BITMAP
FFFFC0000000
FFFFC0000000
FFFFC0000000
FFFFC0000000
FFFFC0000000
FFFFC0000000
FFFFC0000000
FFFFC0000000
FFFFC0000000
FFFFC0000000
FFFFC0000000
FFFFC0000000
FFFFC0000000
FFFFC0040000
FFFFC0FFF000
FFFFC1FFFC00
FFFFC3FFFE00
FFFFC7FFFF00
FFFFCFFFFF80
FFFFDFFFFFC0
FFFFDFFFFFE0
FFFFFFFFFFE0
FFFFFFFFFFF0
FFFFFFFFFFF0
FFFFFFFFFFF0
FFFFFFFFFFF0
FFFFFFFFFFF8
FFFFFFFFFFF8
FFFFF07FFFF8
FFFFE03FFFF8
FFFFE03FFFF8
FFFFC01FFFF8
FFFFC01FFFF8
FFFFC01FFFF8
FFFFC01FFFF8
FFFFC01FFFF8
FFFFC01FFFF8
FFFFC01FFFF8
FFFFC01FFFF8
FFFFC01FFFF8
FFFFC01FFFF8
FFFFC01FFFF8
FFFFC01FFFF8
FFFFC01FFFF8
FFFFC01FFFF8
FFFFC01FFFF8
FFFFC01FFFF8
FFFFC01FFFF8
FFFFC01FFFF8
FFFFC01FFFF8
FFFFC01FFFF8
FFFFC01FFFF8
FFFFC01FFFF8
FFFFC01FFFF8
FFFFC01FFFF8
FFFFC01FFFF8
FFFFC01FFFF8
FFFFC01FFFF8
FFFFC01FFFF8
FFFFC01FFFF8
FFFFC01FFFF8
FFFFC01FFFF8
FFFFC01FFFF8
FFFFC01FFFF8
FFFFC01FFFF8
FFFFC01FFFF8
FFFFC01FFFF8
FFFFC01FFFF8
FFFFC01FFFF8
FFFFC01FFFF8
FFFFC01FFFF8
FFFFC01FFFF8
FFFFC01FFFF8
FFFFC01FFFF8
FFFFC01FFFF8
FFFFC01FFFF8
FFFFC01FFFF8
FFFFC01FFFF8
FFFFC01FFFF8
FFFFC01FFFF8
FFFFC01FFFF8
FFFFC01FFFF8
FFFFC01FFFF8
FFFFC01FFFF8
FFFFC01FFFF8
FFFFC01FFFF8
FFFFC01FFFF8
FFFFC01FFFF8
FFFFC01FFFF8
FFFFC01FFFF8
ENDCHAR
STARTCHAR i
ENCODING 105
SWIDTH 243 0
DWIDTH 25 0
BBX 18 94 4 0
BITMAP
FFFFC0
FFFFC0
FFFFC0
FFFFC0
FFFFC0
FFFFC0
FFFFC0
FFFFC0
FFFFC0
FFFFC0
FFFFC0
FFFFC0
FFFFC0
000000
000000
000000
000000
000000
FFFFC0
FFFFC0
FFFFC0
FFFFC0
FFFFC0
FFFFC0
FFFFC0
FFFFC0
FFFFC0
FFFFC0
FFFFC0
FFFFC0
FFFFC0
FFFFC0
FFFFC0
FFFFC0
FFFFC0
FFFFC0
FFFFC0
FFFFC0
FFFFC0
FFFFC0
FFFFC0
FFFFC0
FFFFC0
FFFFC0
FFFFC0
FFFFC0
FFFFC0
FFFFC0
FFFFC0
FFFFC0
FFFFC0
FFFFC0
FFFFC0
FFFFC0
FFFFC0
FFFFC0
FFFFC0
FFFFC0
FFFFC0
FFFFC0
FFFFC0
FFFFC0
FFFFC0
FFFFC0
FFFFC0
FFFFC0
FFFFC0
FFFFC0
FFFFC0
FFFFC0
FFFFC0
FFFFC0
FFFFC0
FFFFC0
FFFFC0
FFFFC0
FFFFC0
FFFFC0
FFFFC0
FFFFC0
FFFFC0
FFFFC0
FFFFC0
FFFFC0
FFFFC0
FFFFC0
FFFFC0
FFFFC0
FFFFC0
FFFFC0
FFFFC0
FFFFC0
FFFFC0
FFFFC0
ENDCHAR
STARTCHAR j
ENCODING 106
SWIDTH 263 0
DWIDTH 27 0
BBX 22 103 2 -9
BITMAP
0FFFFC
0FFFFC
0FFFFC
0FFFFC
0FFFFC
0FFFFC
0FFFFC
0FFFFC
0FFFFC
0FFFFC
0FFFFC
0FFFFC
0FFFFC
000000
000000
000000
000000
000000
0FFFFC
0FFFFC
0FFFFC
0FFFFC
0FFFFC
0FFFFC
0FFFFC
0FFFFC
0FFFFC
0FFFFC
0FFFFC
0FFFFC
0FFFFC
0FFFFC
0FFFFC
0FFFFC
0FFFFC
0FFFFC
0FFFFC
0FFFFC
0FFFFC
0FFFFC
0FFFFC
0FFFFC
0FFFFC
0FFFFC
0FFFFC
0FFFFC
0FFFFC
0FFFFC
0FFFFC
0FFFFC
0FFFFC
0FFFFC
0FFFFC
0FFFFC
0FFFFC
0FFFFC
0FFFFC
0FFFFC
0FFFFC
0FFFFC
0FFFFC
0FFFFC
0FFFFC
0FFFFC
0FFFFC
0FFFFC
0FFFFC
0FFFFC
0FFFFC
0FFFFC
0FFFFC
0FFFFC
0FFFFC
0FFFFC
0FFFFC
0FFFFC
0FFFFC
0FFFFC
0FFFFC
0FFFFC
0FFFFC
0FFFFC
0FFFFC
0FFFFC
0FFFFC
0FFFFC
0FFFFC
0FFFFC
1FFFFC
1FFFFC
FFFFF8
FFFFF8
FFFFF8
FFFFF8
FFFFF8
FFFFF0
FFFFF0
FFFFE0
FFFFC0
FFFFC0
FFFF00
FFFE00
3FF000
ENDCHAR
STARTCHAR k
ENCODING 107
SWIDTH 491 0
DWIDTH 51 0
BBX 48 90 4 0
BITMAP
FFFFC0000000
FFFFC0000000
FFFFC0000000
FFFFC0000000
FFFFC0000000
FFFFC0000000
FFFFC0000000
FFFFC0000000
FFFFC0000000
FFFFC0000000
FFFFC0000000
FFFFC0000000
FFFFC0000000
FFFFC0000000
FFFFC03FFFF8
FFFFC03FFFF8
FFFFC03FFFF0
FFFFC07FFFF0
FFFFC07FFFF0
FFFFC07FFFE0
FFFFC0FFFFE0
FFFFC0FFFFE0
FFFFC0FFFFC0
FFFFC1FFFFC0
FFFFC1FFFFC0
FFFFC1FFFF80
FFFFC3FFFF80
FFFFC3FFFF80
FFFFC3FFFF00
FFFFC7FFFF00
FFFFC7FFFF00
FFFFC7FFFE00
FFFFCFFFFE00
FFFFCFFFFE00
FFFFCFFFFC00
FFFFDFFFFC00
FFFFDFFFFC00
FFFFDFFFF800
FFFFFFFFF800
FFFFFFFFF800
FFFFFFFFF000
FFFFFFFFF000
FFFFFFFFE000
FFFFFFFFE000
FFFFFFFFE000
FFFFFFFFC000
FFFFFFFFC000
FFFFFFFFC000
FFFFFFFFC000
FFFFFFFFC000
FFFFFFFFE000
FFFFFFFFE000
FFFFFFFFE000
FFFFFFFFF000
FFFFFFFFF000
FFFFFFFFF000
FFFFFFFFF800
FFFFDFFFF800
FFFFDFFFF800
FFFFDFFFFC00
FFFFCFFFFC00
FFFFCFFFFE00
FFFFCFFFFE00
FFFFCFFFFE00
FFFFC7FFFF00
FFFFC7FFFF00
FFFFC7FFFF00
FFFFC3FFFF80
FFFFC3FFFF80
FFFFC3FFFF80
FFFFC1FFFFC0
FFFFC1FFFFC0
FFFFC1FFFFC0
FFFFC0FFFFE0
FFFFC0FFFFE0
FFFFC0FFFFE0
FFFFC07FFFF0
FFFFC07FFFF0
FFFFC07FFFF0
FFFFC03FFFF8
FFFFC03FFFF8
FFFFC03FFFF8
FFFFC01FFFFC
FFFFC01FFFFC
FFFFC01FFFFC
FFFFC00FFFFE
FFFFC00FFFFE
FFFFC00FFFFE
FFFFC00FFFFF
FFFFC007FFFF
ENDCHAR
STARTCHAR l
ENCODING 108
SWIDTH 248 0
DWIDTH 26 0
BBX 18 90 4 0
BITMAP
FFFFC0
FFFFC0
FFFFC0
FFFFC0
FFFFC0
FFFFC0
FFFFC0
FFFFC0
FFFFC0
FFFFC0
FFFFC0
FFFFC0
FFFFC0
FFFFC0
FFFFC0
FFFFC0
FFFFC0
FFFFC0
FFFFC0
FFFFC0
FFFFC0
FFFFC0
FFFFC0
FFFFC0
FFFFC0
FFFFC0
FFFFC0
FFFFC0
FFFFC0
FFFFC0
FFFFC0
FFFFC0
FFFFC0
FFFFC0
FFFFC0
FFFFC0
FFFFC0
FFFFC0
FFFFC0
FFFFC0
FFFFC0
FFFFC0
FFFFC0
FFFFC0
FFFFC0
FFFFC0
FFFFC0
FFFFC0
FFFFC0
FFFFC0
FFFFC0
FFFFC0
FFFFC0
FFFFC0
FFFFC0
FFFFC0
FFFFC0
FFFFC0
FFFFC0
FFFFC0
FFFFC0
FFFFC0
FFFFC0
FFFFC0
FFFFC0
FFFFC0
FFFFC0
FFFFC0
FFFFC0
FFFFC0
FFFFC0
FFFFC0
FFFFC0
FFFFC0
FFFFC0
FFFFC0
FFFFC0
FFFFC0
FFFFC0
FFFFC0
FFFFC0
FFFFC0
FFFFC0
FFFFC0
FFFFC0
FFFFC0
FFFFC0
FFFFC0
FFFFC0
FFFFC0
ENDCHAR
STARTCHAR m
ENCODING 109
SWIDTH 758 0
DWIDTH 79 0
BBX 71 77 4 0
BITMAP
000000020000010000
FFFF80FFF0007FFC00
FFFF83FFFC01FFFF00
FFFF87FFFE03FFFFC0
FFFF8FFFFF07FFFFE0
FFFF9FFFFF8FFFFFF0
FFFF9FFFFFCFFFFFF0
FFFFBFFFFFDFFFFFF8
FFFFBFFFFFFFFFFFF8
FFFFBFFFFFFFFFFFFC
FFFFFFFFFFFFFFFFFC
FFFFFFFFFFFFFFFFFC
FFFFFFFFFFFFFFFFFE
FFFFFFFFFFFFFFFFFE
FFFFFFFFFFFFFFFFFE
FFFFF07FFFFE1FFFFE
FFFFE07FFFFC0FFFFE
FFFFC03FFFF80FFFFE
FFFFC03FFFF807FFFE
FFFFC03FFFF807FFFE
FFFFC03FFFF007FFFE
FFFFC03FFFF007FFFE
FFFF803FFFF007FFFE
FFFF803FFFF007FFFE
FFFF803FFFF007FFFE
FFFF803FFFF007FFFE
FFFF803FFFF007FFFE
FFFF803FFFF007FFFE
FFFF803FFFF007FFFE
FFFF803FFFF007FFFE
FFFF803FFFF007FFFE
FFFF803FFFF007FFFE
FFFF803FFFF007FFFE
FFFF803FFFF007FFFE
FFFF803FFFF007FFFE
FFFF803FFFF007FFFE
FFFF803FFFF007FFFE
FFFF803FFFF007FFFE
FFFF803FFFF007FFFE
FFFF803FFFF007FFFE
FFFF803FFFF007FFFE
FFFF803FFFF007FFFE
FFFF803FFFF007FFFE
FFFF803FFFF007FFFE
FFFF803FFFF007FFFE
FFFF803FFFF007FFFE
FFFF803FFFF007FFFE
FFFF803FFFF007FFFE
FFFF803FFFF007FFFE
FFFF803FFFF007FFFE
FFFF803FFFF007FFFE
FFFF803FFFF007FFFE
FFFF803FFFF007FFFE
FFFF803FFFF007FFFE
FFFF803FFFF007FFFE
FFFF803FFFF007FFFE
FFFF803FFFF007FFFE
FFFF803FFFF007FFFE
FFFF803FFFF007FFFE
FFFF803FFFF007FFFE
FFFF803FFFF007FFFE
FFFF803FFFF007FFFE
FFFF803FFFF007FFFE
FFFF803FFFF007FFFE
FFFF803FFFF007FFFE
FFFF803FFFF007FFFE
FFFF803FFFF007FFFE
FFFF803FFFF007FFFE
FFFF803FFFF007FFFE
FFFF803FFFF007FFFE
FFFF803FFFF007FFFE
FFFF803FFFF007FFFE
FFFF803FFFF007FFFE
FFFF803FFFF007FFFE
FFFF803FFFF007FFFE
FFFF803FFFF007FFFE
FFFF803FFFF007FFFE
ENDCHAR
STARTCHAR n
ENCODING 110
SWIDTH 499 0
DWIDTH 52 0
BBX 44 77 4 0
BITMAP
000000040000
FFFFC0FFE000
FFFFC1FFFC00
FFFFC3FFFE00
FFFFC7FFFF00
FFFFCFFFFF80
FFFFDFFFFFC0
FFFFDFFFFFC0
FFFFDFFFFFE0
FFFFFFFFFFE0
FFFFFFFFFFE0
FFFFFFFFFFF0
FFFFFFFFFFF0
FFFFFFFFFFF0
FFFFF8FFFFF0
FFFFE07FFFF0
FFFFE03FFFF0
FFFFC03FFFF0
FFFFC03FFFF0
FFFFC03FFFF0
FFFFC03FFFF0
FFFFC03FFFF0
FFFFC03FFFF0
FFFFC03FFFF0
FFFFC03FFFF0
FFFFC03FFFF0
FFFFC03FFFF0
FFFFC03FFFF0
FFFFC03FFFF0
FFFFC03FFFF0
FFFFC03FFFF0
FFFFC03FFFF0
FFFFC03FFFF0
FFFFC03FFFF0
FFFFC03FFFF0
FFFFC03FFFF0
FFFFC03FFFF0
FFFFC03FFFF0
FFFFC03FFFF0
FFFFC03FFFF0
FFFFC03FFFF0
FFFFC03FFFF0
FFFFC03FFFF0
FFFFC03FFFF0
FFFFC03FFFF0
FFFFC03FFFF0
FFFFC03FFFF0
FFFFC03FFFF0
FFFFC03FFFF0
FFFFC03FFFF0
FFFFC03FFFF0
FFFFC03FFFF0
FFFFC03FFFF0
FFFFC03FFFF0
FFFFC03FFFF0
FFFFC03FFFF0
FFFFC03FFFF0
FFFFC03FFFF0
FFFFC03FFFF0
FFFFC03FFFF0
FFFFC03FFFF0
FFFFC03FFFF0
FFFFC03FFFF0
FFFFC03FFFF0
FFFFC03FFFF0
FFFFC03FFFF0
FFFFC03FFFF0
FFFFC03FFFF0
FFFFC03FFFF0
FFFFC03FFFF0
FFFFC03FFFF0
FFFFC03FFFF0
FFFFC03FFFF0
FFFFC03FFFF0
FFFFC03FFFF0
FFFFC03FFFF0
FFFFC03FFFF0
ENDCHAR
STARTCHAR o
ENCODING 111
SWIDTH 497 0
DWIDTH 52 0
BBX 46 78 3 -1
BITMAP
000002000000
0001FFFC0000
000FFFFF8000
003FFFFFE000
007FFFFFF800
00FFFFFFFC00
03FFFFFFFE00
03FFFFFFFF00
07FFFFFFFF80
0FFFFFFFFFC0
1FFFFFFFFFC0
1FFFFFFFFFE0
3FFFFFFFFFE0
3FFFFFFFFFF0
7FFFFFFFFFF0
7FFFF07FFFF0
7FFFE03FFFF8
7FFFE01FFFF8
FFFFE01FFFF8
FFFFE01FFFF8
FFFFE01FFFF8
FFFFE01FFFF8
FFFFE01FFFFC
FFFFE01FFFFC
FFFFE01FFFFC
FFFFE01FFFFC
FFFFE01FFFFC
FFFFE01FFFFC
FFFFE01FFFFC
FFFFE01FFFFC
FFFFE01FFFFC
FFFFE01FFFFC
FFFFE01FFFFC
FFFFE01FFFFC
FFFFE01FFFFC
FFFFE01FFFFC
FFFFE01FFFFC
FFFFE01FFFFC
FFFFE01FFFFC
FFFFE01FFFFC
FFFFE01FFFFC
FFFFE01FFFFC
FFFFE01FFFFC
FFFFE01FFFFC
FFFFE01FFFFC
FFFFE01FFFFC
FFFFE01FFFFC
FFFFE01FFFFC
FFFFE01FFFFC
FFFFE01FFFFC
FFFFE01FFFFC
FFFFE01FFFFC
FFFFE01FFFFC
FFFFE01FFFFC
FFFFE01FFFFC
FFFFE01FFFFC
FFFFE01FFFFC
FFFFE01FFFF8
FFFFE01FFFF8
FFFFE01FFFF8
FFFFE01FFFF8
7FFFE03FFFF8
7FFFF03FFFF8
7FFFF87FFFF8
7FFFFFFFFFF0
3FFFFFFFFFF0
3FFFFFFFFFE0
3FFFFFFFFFE0
1FFFFFFFFFE0
0FFFFFFFFFC0
0FFFFFFFFF80
07FFFFFFFF00
03FFFFFFFE00
01FFFFFFFC00
007FFFFFF800
003FFFFFE000
0007FFFF8000
00007FF80000
ENDCHAR
STARTCHAR p
ENCODING 112
SWIDTH 500 0
DWIDTH 52 0
BBX 45 92 4 -15
BITMAP
000000040000
FFFFC1FFE000
FFFFC7FFF800
FFFFCFFFFE00
FFFFDFFFFF00
FFFFFFFFFF80
FFFFFFFFFF80
FFFFFFFFFFC0
FFFFFFFFFFC0
FFFFFFFFFFE0
FFFFFFFFFFE0
FFFFFFFFFFF0
FFFFFFFFFFF0
FFFFFFFFFFF0
FFFFFFFFFFF0
FFFFF07FFFF0
FFFFE03FFFF0
FFFFE03FFFF8
FFFFE03FFFF8
FFFFC03FFFF8
FFFFC03FFFF8
FFFFC03FFFF8
FFFFC03FFFF8
FFFFC03FFFF8
FFFFC03FFFF8
FFFFC03FFFF8
FFFFC03FFFF8
FFFFC03FFFF8
FFFFC03FFFF8
FFFFC03FFFF8
FFFFC03FFFF8
FFFFC03FFFF8
FFFFC03FFFF8
FFFFC03FFFF8
FFFFC03FFFF8
FFFFC03FFFF8
FFFFC03FFFF8
FFFFC03FFFF8
FFFFC03FFFF8
FFFFC03FFFF8
FFFFC03FFFF8
FFFFC03FFFF8
FFFFC03FFFF8
FFFFC03FFFF8
FFFFC03FFFF8
FFFFC03FFFF8
FFFFC03FFFF8
FFFFC03FFFF8
FFFFC03FFFF8
FFFFC03FFFF8
FFFFC03FFFF8
FFFFC03FFFF8
FFFFC03FFFF8
FFFFC03FFFF8
FFFFC03FFFF8
FFFFC03FFFF8
FFFFC03FFFF8
FFFFC03FFFF8
FFFFC03FFFF8
FFFFC03FFFF8
FFFFE03FFFF0
FFFFE03FFFF0
FFFFE07FFFF0
FFFFF8FFFFF0
FFFFFFFFFFF0
FFFFFFFFFFF0
FFFFFFFFFFF0
FFFFFFFFFFE0
FFFFFFFFFFE0
FFFFFFFFFFE0
FFFFFFFFFFC0
FFFFFFFFFFC0
FFFFFFFFFF80
FFFFFFFFFF00
FFFFFFFFFE00
FFFFCFFFFC00
FFFFC7FFF000
FFFFC0FFC000
FFFFC0000000
FFFFC0000000
FFFFC0000000
FFFFC0000000
FFFFC0000000
FFFFC0000000
FFFFC0000000
FFFFC0000000
FFFFC0000000
FFFFC0000000
FFFFC0000000
FFFFC0000000
FFFFC0000000
FFFFC0000000
ENDCHAR
STARTCHAR q
ENCODING 113
SWIDTH 500 0
DWIDTH 52 0
BBX 45 92 3 -15
BITMAP
000100000000
003FFC1FFFF8
01FFFF1FFFF8
03FFFF9FFFF8
07FFFFDFFFF8
0FFFFFFFFFF8
1FFFFFFFFFF8
1FFFFFFFFFF8
3FFFFFFFFFF8
3FFFFFFFFFF8
3FFFFFFFFFF8
7FFFFFFFFFF8
7FFFFFFFFFF8
7FFFFFFFFFF8
7FFFFFFFFFF8
FFFFF07FFFF8
FFFFE03FFFF8
FFFFE03FFFF8
FFFFE03FFFF8
FFFFE01FFFF8
FFFFC01FFFF8
FFFFC01FFFF8
FFFFC01FFFF8
FFFFC01FFFF8
FFFFC01FFFF8
FFFFC01FFFF8
FFFFC01FFFF8
FFFFC01FFFF8
FFFFC01FFFF8
FFFFC01FFFF8
FFFFC01FFFF8
FFFFC01FFFF8
FFFFC01FFFF8
FFFFC01FFFF8
FFFFC01FFFF8
FFFFC01FFFF8
FFFFC01FFFF8
FFFFC01FFFF8
FFFFC01FFFF8
FFFFC01FFFF8
FFFFC01FFFF8
FFFFC01FFFF8
FFFFC01FFFF8
FFFFC01FFFF8
FFFFC01FFFF8
FFFFC01FFFF8
FFFFC01FFFF8
FFFFC01FFFF8
FFFFC01FFFF8
FFFFC01FFFF8
FFFFC01FFFF8
FFFFC01FFFF8
FFFFC01FFFF8
FFFFC01FFFF8
FFFFC01FFFF8
FFFFC01FFFF8
FFFFC01FFFF8
FFFFC01FFFF8
FFFFE01FFFF8
FFFFE03FFFF8
FFFFE03FFFF8
FFFFE03FFFF8
FFFFF07FFFF8
7FFFF8FFFFF8
7FFFFFFFFFF8
7FFFFFFFFFF8
7FFFFFFFFFF8
7FFFFFFFFFF8
3FFFFFFFFFF8
3FFFFFFFFFF8
3FFFFFFFFFF8
1FFFFFFFFFF8
0FFFFFFFFFF8
0FFFFFDFFFF8
07FFFF9FFFF8
03FFFF1FFFF8
00FFFC1FFFF8
001FF01FFFF8
0000001FFFF8
0000001FFFF8
0000001FFFF8
0000001FFFF8
0000001FFFF8
0000001FFFF8
0000001FFFF8
0000001FFFF8
0000001FFFF8
0000001FFFF8
0000001FFFF8
0000001FFFF8
0000001FFFF8
0000001FFFF8
ENDCHAR
STARTCHAR r
ENCODING 114
SWIDTH 344 0
DWIDTH 36 0
BBX 31 77 4 0
BITMAP
00000002
FFFFC07E
FFFFC1FE
FFFFC3FE
FFFFC7FE
FFFFCFFE
FFFFDFFE
FFFFDFFE
FFFFFFFE
FFFFFFFE
FFFFFFFE
FFFFFFFE
FFFFFFFE
FFFFFFFE
FFFFFFFE
FFFFFFFE
FFFFFE00
FFFFF000
FFFFC000
FFFFC000
FFFFC000
FFFFC000
FFFFC000
FFFFC000
FFFFC000
FFFFC000
FFFFC000
FFFFC000
FFFFC000
FFFFC000
FFFFC000
FFFFC000
FFFFC000
FFFFC000
FFFFC000
FFFFC000
FFFFC000
FFFFC000
FFFFC000
FFFFC000
FFFFC000
FFFFC000
FFFFC000
FFFFC000
FFFFC000
FFFFC000
FFFFC000
FFFFC000
FFFFC000
FFFFC000
FFFFC000
FFFFC000
FFFFC000
FFFFC000
FFFFC000
FFFFC000
FFFFC000
FFFFC000
FFFFC000
FFFFC000
FFFFC000
FFFFC000
FFFFC000
FFFFC000
FFFFC000
FFFFC000
FFFFC000
FFFFC000
FFFFC000
FFFFC000
FFFFC000
FFFFC000
FFFFC000
FFFFC000
FFFFC000
FFFFC000
FFFFC000
ENDCHAR
STARTCHAR s
ENCODING 115
SWIDTH 475 0
DWIDTH 49 0
BBX 45 78 2 -1
BITMAP
000002000000
0001FFFE0000
000FFFFFC000
003FFFFFF000
00FFFFFFFC00
01FFFFFFFE00
07FFFFFFFF00
0FFFFFFFFF80
0FFFFFFFFF80
1FFFFFFFFFC0
3FFFFFFFFFE0
3FFFFFFFFFE0
7FFFFFFFFFE0
7FFFFFFFFFF0
7FFFFFFFFFF0
7FFFF07FFFF0
FFFFE07FFFF0
FFFFE03FFFF8
FFFFC03FFFF8
FFFFE03FFFF8
FFFFE03FFFF8
FFFFE03FFFF8
FFFFE03FFFF8
7FFFF03FFFF8
7FFFF8000000
7FFFFC000000
7FFFFF000000
7FFFFF800000
3FFFFFE00000
3FFFFFF00000
1FFFFFF80000
1FFFFFFE0000
0FFFFFFF0000
07FFFFFF8000
07FFFFFFE000
03FFFFFFF000
01FFFFFFF800
007FFFFFFC00
003FFFFFFE00
001FFFFFFF00
000FFFFFFF80
0003FFFFFF80
0001FFFFFFC0
0000FFFFFFE0
00003FFFFFE0
00001FFFFFF0
00000FFFFFF0
000007FFFFF0
000003FFFFF8
FFFFC1FFFFF8
FFFFC0FFFFF8
FFFFC07FFFF8
FFFFC03FFFF8
FFFFC03FFFF8
FFFFC03FFFF8
FFFFC03FFFF8
FFFFC03FFFF8
FFFFC03FFFF8
FFFFC03FFFF8
FFFFC03FFFF8
FFFFE03FFFF8
FFFFE03FFFF8
7FFFE03FFFF8
7FFFF87FFFF8
7FFFFFFFFFF0
7FFFFFFFFFF0
3FFFFFFFFFE0
3FFFFFFFFFE0
1FFFFFFFFFC0
1FFFFFFFFFC0
0FFFFFFFFF80
07FFFFFFFF00
03FFFFFFFE00
01FFFFFFFC00
00FFFFFFF800
003FFFFFE000
000FFFFF0000
0000FFF00000
ENDCHAR
STARTCHAR t
ENCODING 116
SWIDTH 305 0
DWIDTH 32 0
BBX 28 90 2 -1
BITMAP
07FFFC00
07FFFC00
07FFFC00
07FFFC00
07FFFC00
07FFFC00
07FFFC00
07FFFC00
07FFFC00
07FFFC00
07FFFC00
07FFFC00
07FFFC00
07FFFC00
07FFFC00
07FFFC00
FFFFFFF0
FFFFFFF0
FFFFFFF0
FFFFFFF0
FFFFFFF0
FFFFFFF0
FFFFFFF0
FFFFFFF0
FFFFFFF0
FFFFFFF0
FFFFFFF0
FFFFFFF0
FFFFFFF0
FFFFFFF0
07FFFC00
07FFFC00
07FFFC00
07FFFC00
07FFFC00
07FFFC00
07FFFC00
07FFFC00
07FFFC00
07FFFC00
07FFFC00
07FFFC00
07FFFC00
07FFFC00
07FFFC00
07FFFC00
07FFFC00
07FFFC00
07FFFC00
07FFFC00
07FFFC00
07FFFC00
07FFFC00
07FFFC00
07FFFC00
07FFFC00
07FFFC00
07FFFC00
07FFFC00
07FFFC00
07FFFC00
07FFFC00
07FFFC00
07FFFC00
07FFFC00
07FFFC00
07FFFC00
07FFFC00
07FFFC00
07FFFC00
07FFFC00
07FFFC00
07FFFC00
07FFFC00
07FFFE00
07FFFE00
07FFFFF0
07FFFFF0
07FFFFF0
07FFFFF0
07FFFFF0
07FFFFF0
07FFFFF0
03FFFFF0
03FFFFF0
03FFFFF0
01FFFFF0
00FFFFF0
007FFFF0
000FFE00
ENDCHAR
STARTCHAR u
ENCODING 117
SWIDTH 499 0
DWIDTH 52 0
BBX 45 77 3 -1
BITMAP
FFFFE01FFFF8
FFFFE01FFFF8
FFFFE01FFFF8
FFFFE01FFFF8
FFFFE01FFFF8
FFFFE01FFFF8
FFFFE01FFFF8
FFFFE01FFFF8
FFFFE01FFFF8
FFFFE01FFFF8
FFFFE01FFFF8
FFFFE01FFFF8
FFFFE01FFFF8
FFFFE01FFFF8
FFFFE01FFFF8
FFFFE01FFFF8
FFFFE01FFFF8
FFFFE01FFFF8
FFFFE01FFFF8
FFFFE01FFFF8
FFFFE01FFFF8
FFFFE01FFFF8
FFFFE01FFFF8
FFFFE01FFFF8
FFFFE01FFFF8
FFFFE01FFFF8
FFFFE01FFFF8
FFFFE01FFFF8
FFFFE01FFFF8
FFFFE01FFFF8
FFFFE01FFFF8
FFFFE01FFFF8
FFFFE01FFFF8
FFFFE01FFFF8
FFFFE01FFFF8
FFFFE01FFFF8
FFFFE01FFFF8
FFFFE01FFFF8
FFFFE01FFFF8
FFFFE01FFFF8
FFFFE01FFFF8
FFFFE01FFFF8
FFFFE01FFFF8
FFFFE01FFFF8
FFFFE01FFFF8
FFFFE01FFFF8
FFFFE01FFFF8
FFFFE01FFFF8
FFFFE01FFFF8
FFFFE01FFFF8
FFFFE01FFFF8
FFFFE01FFFF8
FFFFE01FFFF8
FFFFE01FFFF8
FFFFE01FFFF8
FFFFE01FFFF8
FFFFE01FFFF8
FFFFE01FFFF8
FFFFE01FFFF8
FFFFE01FFFF8
7FFFE03FFFF8
7FFFF03FFFF8
7FFFFCFFFFF8
7FFFFFFFFFF8
7FFFFFFFFFF8
7FFFFFFFFFF8
7FFFFFFFFFF8
3FFFFFFFFFF8
3FFFFFFFFFF8
3FFFFFDFFFF8
1FFFFFDFFFF8
1FFFFF9FFFF8
0FFFFF9FFFF8
07FFFF1FFFF8
03FFFE1FFFF8
00FFFC1FFFF8
001FF0000000
ENDCHAR
STARTCHAR v
ENCODING 118
SWIDTH 461 0
DWIDTH 48 0
BBX 46 76 1 0
BITMAP
FFFFC00FFFFC
FFFFC01FFFFC
7FFFE01FFFF8
7FFFE01FFFF8
7FFFE01FFFF8
7FFFE01FFFF8
7FFFE01FFFF8
7FFFE01FFFF8
3FFFE01FFFF0
3FFFE01FFFF0
3FFFE03FFFF0
3FFFE03FFFF0
3FFFF03FFFF0
3FFFF03FFFF0
3FFFF03FFFE0
1FFFF03FFFE0
1FFFF03FFFE0
1FFFF03FFFE0
1FFFF03FFFE0
1FFFF07FFFE0
1FFFF07FFFC0
0FFFF07FFFC0
0FFFF87FFFC0
0FFFF87FFFC0
0FFFF87FFFC0
0FFFF87FFFC0
0FFFF87FFFC0
07FFF87FFF80
07FFF87FFF80
07FFF8FFFF80
07FFF8FFFF80
07FFF8FFFF80
07FFF8FFFF80
03FFFCFFFF00
03FFFCFFFF00
03FFFCFFFF00
03FFFCFFFF00
03FFFCFFFF00
03FFFDFFFF00
03FFFDFFFE00
01FFFDFFFE00
01FFFDFFFE00
01FFFDFFFE00
01FFFDFFFE00
01FFFDFFFE00
01FFFDFFFC00
00FFFDFFFC00
00FFFFFFFC00
00FFFFFFFC00
00FFFFFFFC00
00FFFFFFFC00
00FFFFFFF800
007FFFFFF800
007FFFFFF800
007FFFFFF800
007FFFFFF800
007FFFFFF800
007FFFFFF000
003FFFFFF000
003FFFFFF000
003FFFFFF000
003FFFFFF000
003FFFFFF000
003FFFFFE000
003FFFFFE000
001FFFFFE000
001FFFFFE000
001FFFFFE000
001FFFFFE000
001FFFFFC000
001FFFFFC000
000FFFFFC000
000FFFFFC000
000FFFFFC000
000FFFFFC000
000FFFFFC000
ENDCHAR
STARTCHAR w
ENCODING 119
SWIDTH 696 0
DWIDTH 72 0
BBX 68 76 2 0
BITMAP
FFFF007FFF801FFFF0
7FFF007FFFC01FFFF0
7FFF007FFFC01FFFF0
7FFF007FFFC03FFFF0
7FFF807FFFC03FFFE0
7FFF807FFFC03FFFE0
7FFF807FFFC03FFFE0
7FFF807FFFC03FFFE0
7FFF807FFFC03FFFE0
3FFF80FFFFE03FFFE0
3FFF80FFFFE03FFFE0
3FFF80FFFFE03FFFE0
3FFFC0FFFFE03FFFC0
3FFFC0FFFFE07FFFC0
3FFFC0FFFFE07FFFC0
3FFFC0FFFFE07FFFC0
3FFFC0FFFFE07FFFC0
1FFFC0FFFFF07FFFC0
1FFFC1FFFFF07FFFC0
1FFFC1FFFFF07FFF80
1FFFE1FFFFF07FFF80
1FFFE1FFFFF07FFF80
1FFFE1FFFFF0FFFF80
1FFFE1FFFFF0FFFF80
1FFFE1FFFFF0FFFF80
1FFFE1FFFFF8FFFF80
0FFFE1FFFFF8FFFF80
0FFFE1FFFFF8FFFF00
0FFFF3FFFFF8FFFF00
0FFFF3FFFFF8FFFF00
0FFFF3FFFFF8FFFF00
0FFFF3FFFFF8FFFF00
0FFFF3FFFFF9FFFF00
0FFFF3FFFFFDFFFF00
07FFF3FFDFFDFFFF00
07FFF3FFDFFDFFFE00
07FFFBFFDFFDFFFE00
07FFFFFFDFFDFFFE00
07FFFFFFDFFDFFFE00
07FFFFFFDFFDFFFE00
07FFFFFFCFFDFFFE00
07FFFFFFCFFFFFFE00
03FFFFFFCFFFFFFE00
03FFFFFF8FFFFFFC00
03FFFFFF8FFFFFFC00
03FFFFFF8FFFFFFC00
03FFFFFF8FFFFFFC00
03FFFFFF8FFFFFFC00
03FFFFFF87FFFFFC00
03FFFFFF87FFFFFC00
01FFFFFF87FFFFFC00
01FFFFFF87FFFFF800
01FFFFFF07FFFFF800
01FFFFFF07FFFFF800
01FFFFFF07FFFFF800
01FFFFFF07FFFFF800
01FFFFFF03FFFFF800
01FFFFFF03FFFFF800
00FFFFFF03FFFFF000
00FFFFFF03FFFFF000
00FFFFFF03FFFFF000
00FFFFFE03FFFFF000
00FFFFFE03FFFFF000
00FFFFFE03FFFFF000
00FFFFFE01FFFFF000
00FFFFFE01FFFFF000
00FFFFFE01FFFFE000
007FFFFE01FFFFE000
007FFFFE01FFFFE000
007FFFFE01FFFFE000
007FFFFC01FFFFE000
007FFFFC01FFFFE000
007FFFFC00FFFFE000
007FFFFC00FFFFE000
007FFFFC00FFFFC000
003FFFFC00FFFFC000
ENDCHAR
STARTCHAR x
ENCODING 120
SWIDTH 459 0
DWIDTH 48 0
BBX 47 76 0 0
BITMAP
3FFFF0007FFE
3FFFF8007FFC
1FFFF800FFFC
1FFFF800FFFC
1FFFFC00FFF8
0FFFFC01FFF8
0FFFFC01FFF0
0FFFFE01FFF0
07FFFE03FFF0
07FFFE03FFE0
07FFFF03FFE0
03FFFF07FFE0
03FFFF07FFC0
03FFFF87FFC0
01FFFF8FFFC0
01FFFF8FFF80
00FFFFCFFF80
00FFFFDFFF80
00FFFFFFFF00
007FFFFFFF00
007FFFFFFF00
007FFFFFFE00
003FFFFFFE00
003FFFFFFE00
003FFFFFFC00
001FFFFFFC00
001FFFFFFC00
001FFFFFF800
000FFFFFF800
000FFFFFF800
000FFFFFF000
0007FFFFF000
0007FFFFF000
0003FFFFE000
0003FFFFE000
0003FFFFC000
0003FFFFC000
0003FFFFC000
0007FFFFC000
0007FFFFC000
0007FFFFC000
000FFFFFE000
000FFFFFE000
000FFFFFF000
001FFFFFF000
001FFFFFF000
001FFFFFF800
003FFFFFF800
003FFFFFF800
003FFFFFFC00
007FFFFFFC00
007FFFFFFC00
007FFFFFFE00
00FFFFFFFE00
00FFFFFFFF00
00FFFBFFFF00
01FFFBFFFF00
01FFFBFFFF80
03FFF1FFFF80
03FFF1FFFF80
03FFF1FFFFC0
07FFE0FFFFC0
07FFE0FFFFC0
07FFC07FFFE0
0FFFC07FFFE0
0FFFC07FFFF0
0FFF803FFFF0
1FFF803FFFF0
1FFF803FFFF8
1FFF001FFFF8
3FFF001FFFF8
3FFF001FFFFC
3FFE000FFFFC
7FFE000FFFFC
7FFE0007FFFE
FFFC0007FFFE
ENDCHAR
STARTCHAR y
ENCODING 121
SWIDTH 461 0
DWIDTH 48 0
BBX 46 88 1 -12
BITMAP
FFFF800FFFFC
FFFF800FFFFC
FFFF800FFFF8
FFFFC00FFFF8
7FFFC00FFFF8
7FFFC00FFFF8
7FFFC00FFFF8
7FFFC01FFFF0
7FFFC01FFFF0
7FFFC01FFFF0
3FFFC01FFFF0
3FFFC01FFFF0
3FFFC01FFFF0
3FFFC01FFFE0
3FFFE01FFFE0
3FFFE01FFFE0
3FFFE03FFFE0
1FFFE03FFFE0
1FFFE03FFFE0
1FFFE03FFFC0
1FFFE03FFFC0
1FFFE03FFFC0
1FFFE03FFFC0
0FFFE03FFFC0
0FFFE03FFF80
0FFFF07FFF80
0FFFF07FFF80
0FFFF07FFF80
0FFFF07FFF80
07FFF07FFF80
07FFF07FFF00
07FFF07FFF00
07FFF07FFF00
07FFF07FFF00
07FFF07FFF00
03FFF8FFFE00
03FFF8FFFE00
03FFF8FFFE00
03FFF8FFFE00
03FFF8FFFE00
03FFF8FFFE00
01FFF8FFFC00
01FFF8FFFC00
01FFF8FFFC00
01FFF9FFFC00
01FFF9FFFC00
01FFF9FFFC00
00FFFDFFF800
00FFFDFFF800
00FFFDFFF800
00FFFDFFF800
00FFFDFFF800
00FFFDFFF000
00FFFFFFF000
007FFFFFF000
007FFFFFF000
007FFFFFF000
007FFFFFF000
007FFFFFE000
007FFFFFE000
003FFFFFE000
003FFFFFE000
003FFFFFE000
003FFFFFC000
003FFFFFC000
003FFFFFC000
001FFFFFC000
001FFFFFC000
001FFFFFC000
001FFFFF8000
001FFFFF8000
001FFFFF8000
000FFFFF8000
000FFFFF8000
000FFFFF8000
001FFFFF0000
7FFFFFFF0000
7FFFFFFF0000
7FFFFFFF0000
7FFFFFFF0000
7FFFFFFE0000
7FFFFFFE0000
7FFFFFFE0000
7FFFFFFC0000
7FFFFFFC0000
7FFFFFF80000
7FFFFFF00000
7FFFFFC00000
ENDCHAR
STARTCHAR z
ENCODING 122
SWIDTH 386 0
DWIDTH 40 0
BBX 38 76 1 0
BITMAP
7FFFFFFFFC
7FFFFFFFFC
7FFFFFFFFC
7FFFFFFFFC
7FFFFFFFFC
7FFFFFFFFC
7FFFFFFFFC
7FFFFFFFFC
7FFFFFFFFC
7FFFFFFFFC
7FFFFFFFFC
7FFFFFFFFC
7FFFFFFFFC
7FFFFFFFFC
00001FFFF8
00001FFFF8
00003FFFF8
00003FFFF0
00003FFFF0
00007FFFF0
00007FFFE0
00007FFFE0
0000FFFFE0
0000FFFFC0
0001FFFFC0
0001FFFF80
0001FFFF80
0003FFFF80
0003FFFF00
0003FFFF00
0007FFFF00
0007FFFE00
000FFFFE00
000FFFFE00
000FFFFC00
001FFFFC00
001FFFF800
001FFFF800
003FFFF800
003FFFF000
007FFFF000
007FFFF000
007FFFE000
00FFFFE000
00FFFFE000
00FFFFC000
01FFFFC000
01FFFFC000
03FFFF8000
03FFFF8000
03FFFF0000
07FFFF0000
07FFFF0000
07FFFE0000
0FFFFE0000
0FFFFE0000
0FFFFC0000
1FFFFC0000
1FFFFC0000
3FFFF80000
3FFFF80000
3FFFF00000
7FFFFFFFFC
7FFFFFFFFC
7FFFFFFFFC
FFFFFFFFFC
FFFFFFFFFC
FFFFFFFFFC
FFFFFFFFFC
FFFFFFFFFC
FFFFFFFFFC
FFFFFFFFFC
FFFFFFFFFC
FFFFFFFFFC
FFFFFFFFFC
FFFFFFFFFC
ENDCHAR
STARTCHAR braceleft
ENCODING 123
SWIDTH 340 0
DWIDTH 35 0
BBX 32 102 2 -9
BITMAP
000003FF
00007FFF
0003FFFF
0007FFFF
001FFFFF
003FFFFF
007FFFFF
007FFFFF
00FFFFFF
00FFFFFF
00FFFFFF
01FFFFFF
01FFFFFF
01FFFFFF
01FFFFF8
01FFFFC0
01FFFF80
01FFFF80
01FFFF80
01FFFF80
01FFFF80
01FFFF80
01FFFF80
01FFFF80
01FFFF80
01FFFF80
01FFFF80
01FFFF80
01FFFF80
01FFFF80
01FFFF80
01FFFF80
01FFFF80
01FFFF80
01FFFF80
01FFFF80
01FFFF80
01FFFF80
01FFFF00
03FFFF00
03FFFF00
03FFFF00
03FFFF00
07FFFF00
0FFFFE00
1FFFFE00
FFFFFC00
FFFFF800
FFFFF000
FFFFC000
FFFF0000
FFFE0000
FFFF8000
FFFFE000
FFFFF000
FFFFFC00
3FFFFC00
0FFFFE00
07FFFE00
03FFFF00
03FFFF00
03FFFF00
03FFFF00
03FFFF00
01FFFF80
01FFFF80
01FFFF80
01FFFF80
01FFFF80
01FFFF80
01FFFF80
01FFFF80
01FFFF80
01FFFF80
01FFFF80
01FFFF80
01FFFF80
01FFFF80
01FFFF80
01FFFF80
01FFFF80
01FFFF80
01FFFF80
01FFFF80
01FFFF80
01FFFF80
01FFFF80
01FFFFE0
01FFFFFF
01FFFFFF
01FFFFFF
00FFFFFF
00FFFFFF
00FFFFFF
007FFFFF
007FFFFF
003FFFFF
001FFFFF
0007FFFF
0003FFFF
00007FFF
000003FF
ENDCHAR
STARTCHAR bar
ENCODING 124
SWIDTH 216 0
DWIDTH 22 0
BBX 16 104 3 -4
BITMAP
FFFF
FFFF
FFFF
FFFF
FFFF
FFFF
FFFF
FFFF
FFFF
FFFF
FFFF
FFFF
FFFF
FFFF
FFFF
FFFF
FFFF
FFFF
FFFF
FFFF
FFFF
FFFF
FFFF
FFFF
FFFF
FFFF
FFFF
FFFF
FFFF
FFFF
FFFF
FFFF
FFFF
FFFF
FFFF
FFFF
FFFF
FFFF
FFFF
FFFF
FFFF
FFFF
FFFF
FFFF
FFFF
FFFF
FFFF
FFFF
FFFF
FFFF
FFFF
FFFF
FFFF
FFFF
FFFF
FFFF
FFFF
FFFF
FFFF
FFFF
FFFF
FFFF
FFFF
FFFF
FFFF
FFFF
FFFF
FFFF
FFFF
FFFF
FFFF
FFFF
FFFF
FFFF
FFFF
FFFF
FFFF
FFFF
FFFF
FFFF
FFFF
FFFF
FFFF
FFFF
FFFF
FFFF
FFFF
FFFF
FFFF
FFFF
FFFF
FFFF
FFFF
FFFF
FFFF
FFFF
FFFF
FFFF
FFFF
FFFF
FFFF
FFFF
FFFF
FFFF
ENDCHAR
STARTCHAR braceright
ENCODING 125
SWIDTH 340 0
DWIDTH 35 0
BBX 32 102 2 -9
BITMAP
FF800000
FFFC0000
FFFF8000
FFFFE000
FFFFF000
FFFFF800
FFFFFC00
FFFFFE00
FFFFFE00
FFFFFF00
FFFFFF00
FFFFFF00
FFFFFF00
FFFFFF80
3FFFFF80
03FFFF80
01FFFF80
01FFFF80
01FFFF80
01FFFF80
01FFFF80
01FFFF80
01FFFF80
01FFFF80
01FFFF80
01FFFF80
01FFFF80
01FFFF80
01FFFF80
01FFFF80
01FFFF80
01FFFF80
01FFFF80
01FFFF80
01FFFF80
01FFFF80
01FFFF80
01FFFF80
01FFFF80
01FFFF80
01FFFF80
01FFFF80
00FFFFC0
00FFFFC0
00FFFFE0
007FFFF8
003FFFFF
001FFFFF
000FFFFF
0007FFFF
0000FFFF
00007FFF
0003FFFF
000FFFFF
001FFFFF
003FFFFF
007FFFFC
007FFFF0
00FFFFE0
00FFFFC0
01FFFFC0
01FFFF80
01FFFF80
01FFFF80
01FFFF80
01FFFF80
01FFFF80
01FFFF80
01FFFF80
01FFFF80
01FFFF80
01FFFF80
01FFFF80
01FFFF80
01FFFF80
01FFFF80
01FFFF80
01FFFF80
01FFFF80
01FFFF80
01FFFF80
01FFFF80
01FFFF80
01FFFF80
01FFFF80
01FFFF80
03FFFF80
0FFFFF80
FFFFFF80
FFFFFF00
FFFFFF00
FFFFFF00
FFFFFF00
FFFFFE00
FFFFFE00
FFFFFC00
FFFFF800
FFFFF000
FFFFE000
FFFF8000
FFFC0000
FF800000
ENDCHAR
STARTCHAR asciitilde
ENCODING 126
SWIDTH 493 0
DWIDTH 51 0
BBX 48 18 3 41
BITMAP
007FE0000000
01FFFE0003C0
03FFFFC003F0
07FFFFF007FE
0FFFFFFE0FFF
1FFFFFFFFFFE
3FFFFFFFFFFE
3FFFFFFFFFFC
7FFFFFFFFFFC
7FFFFFFFFFFC
FFFFFFFFFFF8
FFFFFFFFFFF8
FFFFFFFFFFF0
3FE0FFFFFFE0
0F801FFFFFC0
078003FFFF80
0100007FFF00
00000007FC00
ENDCHAR
STARTCHAR uni00A0
ENCODING 160
SWIDTH 234 0
DWIDTH 24 0
BBX 1 1 0 0
BITMAP
00
ENDCHAR
STARTCHAR exclamdown
ENCODING 161
SWIDTH 227 0
DWIDTH 24 0
BBX 18 89 3 -5
BITMAP
FFFFC0
FFFFC0
FFFFC0
FFFFC0
FFFFC0
FFFFC0
FFFFC0
FFFFC0
FFFFC0
FFFFC0
FFFFC0
FFFFC0
FFFFC0
FFFFC0
FFFFC0
000000
000000
000000
000000
000000
000000
000000
000000
000000
1FFC00
1FFC00
1FFE00
1FFE00
1FFE00
1FFE00
1FFE00
1FFE00
1FFE00
1FFE00
1FFE00
1FFE00
1FFE00
1FFE00
1FFE00
3FFE00
3FFE00
3FFE00
3FFE00
3FFE00
3FFF00
3FFF00
3FFF00
3FFF00
3FFF00
3FFF00
3FFF00
3FFF00
3FFF00
3FFF00
3FFF00
3FFF00
3FFF00
3FFF00
7FFF00
7FFF00
7FFF00
7FFF00
7FFF80
7FFF80
7FFF80
7FFF80
7FFF80
7FFF80
7FFF80
7FFF80
7FFF80
7FFF80
7FFF80
7FFF80
7FFF80
7FFF80
FFFF80
FFFF80
FFFF80
FFFF80
FFFFC0
FFFFC0
FFFFC0
FFFFC0
FFFFC0
FFFFC0
FFFFC0
FFFFC0
FFFFC0
ENDCHAR
STARTCHAR cent
ENCODING 162
SWIDTH 481 0
DWIDTH 50 0
BBX 46 93 2 -8
BITMAP
00001FF00000
00001FF00000
00001FF00000
00001FF00000
00001FF00000
00001FF00000
00001FF00000
00001FF00000
00003FF80000
0007FFFF8000
001FFFFFE000
007FFFFFF800
00FFFFFFFE00
01FFFFFFFF00
03FFFFFFFF80
07FFFFFFFFC0
0FFFFFFFFFE0
0FFFFFFFFFE0
1FFFFFFFFFF0
1FFFFFFFFFF0
1FFFFFFFFFF8
3FFFFFFFFFF8
3FFFF87FFFF8
3FFFF03FFFF8
7FFFE01FFFFC
7FFFE01FFFFC
7FFFE01FFFFC
7FFFE01FFFFC
7FFFE01FFFFC
7FFFE01FFFFC
7FFFE01FFFFC
7FFFE01FFFFC
FFFFE01FFFFC
FFFFE01FFFFC
FFFFE01FFFFC
FFFFE01FFFFC
FFFFE01FFFFC
FFFFE01FFFFC
FFFFE01FFFFC
FFFFE01FFFFC
FFFFE0000000
FFFFE0000000
FFFFE0000000
FFFFE0000000
FFFFE0000000
FFFFE0000000
FFFFE0000000
FFFFE0000000
FFFFE0000000
FFFFE0000000
FFFFE0000000
FFFFE0000000
FFFFE0000000
FFFFE01FFFFC
FFFFE01FFFFC
FFFFE01FFFFC
FFFFE01FFFFC
FFFFE01FFFFC
FFFFE01FFFFC
FFFFE01FFFFC
FFFFE01FFFFC
FFFFE01FFFFC
FFFFE01FFFFC
FFFFE01FFFFC
7FFFE01FFFFC
7FFFE01FFFFC
7FFFE01FFFFC
7FFFE01FFFFC
7FFFE01FFFFC
7FFFF03FFFF8
3FFFF87FFFF8
3FFFFFFFFFF8
3FFFFFFFFFF8
3FFFFFFFFFF0
1FFFFFFFFFF0
1FFFFFFFFFE0
0FFFFFFFFFE0
07FFFFFFFFC0
07FFFFFFFF80
03FFFFFFFF00
01FFFFFFFE00
00FFFFFFFC00
003FFFFFF800
000FFFFFE000
0001FFFF0000
00001FF00000
00001FF00000
00001FF00000
00001FF00000
00001FF00000
00001FF00000
00001FF00000
00001FF00000
ENDCHAR
STARTCHAR sterling
ENCODING 163
SWIDTH 474 0
DWIDTH 49 0
BBX 45 82 2 0
BITMAP
00000FFE0000
0000FFFFC000
0007FFFFF000
000FFFFFFC00
003FFFFFFE00
007FFFFFFF00
00FFFFFFFF80
00FFFFFFFFC0
01FFFFFFFFC0
03FFFFFFFFE0
03FFFFFFFFE0
03FFFFFFFFE0
07FFFFFFFFF0
07FFFFFFFFF0
07FFFFFFFFF0
07FFFF0FFFF8
07FFFF0FFFF8
0FFFFE07FFF8
0FFFFE07FFF8
0FFFFE07FFF8
0FFFFE07FFF8
07FFFE07FFF8
07FFFE07FFF8
07FFFE07FFF8
07FFFE07FFF8
07FFFE000000
07FFFF000000
07FFFF000000
03FFFF000000
03FFFF000000
03FFFF800000
03FFFF800000
03FFFF800000
01FFFF800000
01FFFFC00000
01FFFFC00000
FFFFFFFFFF00
FFFFFFFFFF00
FFFFFFFFFF00
FFFFFFFFFF00
FFFFFFFFFF00
FFFFFFFFFF00
FFFFFFFFFF00
FFFFFFFFFF00
FFFFFFFFFF00
FFFFFFFFFF00
FFFFFFFFFF00
FFFFFFFFFF00
007FFFF00000
007FFFF00000
007FFFF00000
007FFFF00000
007FFFF00000
007FFFF00000
007FFFF00000
007FFFF00000
007FFFF00000
007FFFF00000
00FFFFF00000
00FFFFE00000
00FFFFE00000
01FFFFC00000
01FFFFC00000
03FFFF800000
07FFFF000000
1FFFFE000000
3FFFFC000000
FFFFFFFFFFF8
FFFFFFFFFFF8
FFFFFFFFFFF8
FFFFFFFFFFF8
FFFFFFFFFFF8
FFFFFFFFFFF8
FFFFFFFFFFF8
FFFFFFFFFFF8
FFFFFFFFFFF8
FFFFFFFFFFF8
FFFFFFFFFFF8
FFFFFFFFFFF8
FFFFFFFFFFF8
FFFFFFFFFFF8
FFFFFFFFFFF8
ENDCHAR
STARTCHAR currency
ENCODING 164
SWIDTH 488 0
DWIDTH 51 0
BBX 46 47 2 26
BITMAP
010000000200
018000000300
03C01FF00780
07E1FFFF0FC0
0FF7FFFFDFE0
1FFFFFFFFFF0
3FFFFFFFFFF8
FFFFFFFFFFFC
7FFFFFFFFFFC
3FFFFFFFFFF8
1FFFFFFFFFF0
0FFFFFFFFFE0
07FFF01FFFC0
0FFFC007FFC0
0FFF0003FFE0
0FFF0001FFE0
1FFE0000FFF0
1FFC00007FF0
1FFC00007FF0
1FF800007FF0
3FF800003FF0
3FF800003FF8
3FF800003FF8
3FF800003FF8
3FF800003FF8
3FF800003FF8
3FF800003FF0
1FF800007FF0
1FFC00007FF0
1FFC00007FF0
1FFE0000FFF0
0FFE0001FFE0
0FFF0003FFE0
0FFFC007FFC0
07FFF01FFFC0
0FFFFFFFFFE0
1FFFFFFFFFF0
3FFFFFFFFFF8
7FFFFFFFFFFC
FFFFFFFFFFFC
3FFFFFFFFFF8
1FFFFFFFFFF0
0FF7FFFFDFE0
07E1FFFF0FC0
03C03FF80780
018000000300
010000000200
ENDCHAR
STARTCHAR yen
ENCODING 165
SWIDTH 463 0
DWIDTH 48 0
BBX 45 89 1 0
BITMAP
FFFF801FFFF8
FFFF801FFFF8
FFFFC01FFFF0
FFFFC01FFFF0
7FFFC03FFFF0
7FFFC03FFFF0
7FFFC03FFFE0
7FFFC03FFFE0
3FFFE03FFFE0
3FFFE03FFFE0
3FFFE07FFFC0
3FFFE07FFFC0
3FFFE07FFFC0
1FFFE07FFFC0
1FFFF07FFF80
1FFFF07FFF80
1FFFF0FFFF80
0FFFF0FFFF80
0FFFF0FFFF00
0FFFF0FFFF00
0FFFF8FFFF00
07FFF8FFFF00
07FFF9FFFF00
07FFF9FFFE00
07FFF9FFFE00
03FFF9FFFE00
03FFFDFFFE00
03FFFDFFFC00
03FFFFFFFC00
01FFFFFFFC00
01FFFFFFFC00
01FFFFFFF800
01FFFFFFF800
01FFFFFFF800
00FFFFFFF800
00FFFFFFF000
00FFFFFFF000
00FFFFFFF000
007FFFFFF000
007FFFFFE000
007FFFFFE000
007FFFFFE000
003FFFFFE000
003FFFFFE000
003FFFFFC000
003FFFFFC000
001FFFFFC000
001FFFFFC000
001FFFFF8000
001FFFFF8000
000FFFFF8000
000FFFFF8000
000FFFFF0000
0FFFFFFFFF00
0FFFFFFFFF00
0FFFFFFFFF00
0FFFFFFFFF00
0FFFFFFFFF00
0FFFFFFFFF00
0FFFFFFFFF00
0FFFFFFFFF00
0FFFFFFFFF00
0003FFFE0000
0003FFFE0000
0003FFFE0000
0003FFFE0000
0FFFFFFFFF00
0FFFFFFFFF00
0FFFFFFFFF00
0FFFFFFFFF00
0FFFFFFFFF00
0FFFFFFFFF00
0FFFFFFFFF00
0FFFFFFFFF00
0FFFFFFFFF00
0003FFFE0000
0003FFFE0000
0003FFFE0000
0003FFFE0000
0003FFFE0000
0003FFFE0000
0003FFFE0000
0003FFFE0000
0003FFFE0000
0003FFFE0000
0003FFFE0000
0003FFFE0000
0003FFFE0000
0003FFFE0000
ENDCHAR
STARTCHAR brokenbar
ENCODING 166
SWIDTH 222 0
DWIDTH 23 0
BBX 17 103 3 -4
BITMAP
FFFF80
FFFF80
FFFF80
FFFF80
FFFF80
FFFF80
FFFF80
FFFF80
FFFF80
FFFF80
FFFF80
FFFF80
FFFF80
FFFF80
FFFF80
FFFF80
FFFF80
FFFF80
FFFF80
FFFF80
FFFF80
FFFF80
FFFF80
FFFF80
FFFF80
FFFF80
FFFF80
FFFF80
FFFF80
FFFF80
FFFF80
FFFF80
FFFF80
FFFF80
FFFF80
FFFF80
FFFF80
FFFF80
FFFF80
FFFF80
FFFF80
FFFF80
FFFF80
FFFF80
FFFF80
FFFF80
000000
000000
000000
000000
000000
000000
000000
000000
000000
000000
000000
000000
FFFF80
FFFF80
FFFF80
FFFF80
FFFF80
FFFF80
FFFF80
FFFF80
FFFF80
FFFF80
FFFF80
FFFF80
FFFF80
FFFF80
FFFF80
FFFF80
FFFF80
FFFF80
FFFF80
FFFF80
FFFF80
FFFF80
FFFF80
FFFF80
FFFF80
FFFF80
FFFF80
FFFF80
FFFF80
FFFF80
FFFF80
FFFF80
FFFF80
FFFF80
FFFF80
FFFF80
FFFF80
FFFF80
FFFF80
FFFF80
FFFF80
FFFF80
FFFF80
FFFF80
FFFF80
ENDCHAR
STARTCHAR section
ENCODING 167
SWIDTH 449 0
DWIDTH 47 0
BBX 42 82 2 -1
BITMAP
00007FF00000
0007FFFF0000
003FFFFFC000
007FFFFFF000
01FFFFFFF800
03FFFFFFFC00
07FFFFFFFE00
0FFFFFFFFF00
1FFFFFFFFF00
1FFFFFFFFF80
3FFFFFFFFF80
3FFFFFFFFF80
3FFFFFFFFFC0
7FFFF0FFFFC0
7FFFC03FFFC0
7FFFC03FFFC0
7FFF801FFFC0
7FFF801FFFC0
7FFFC01FFFC0
7FFFC0000000
7FFFE0000000
3FFFF0000000
3FFFF8000000
1FFFFE000000
1FFFFF000000
0FFFFFC00000
07FFFFF00000
03FFFFF80000
01FFFFFE0000
00FFFFFF8000
01FFFFFFC000
03FFFFFFF000
07FFFFFFF800
0FFFFFFFFC00
1FFFFFFFFE00
3FFFDFFFFF00
3FFF83FFFF80
3FFF00FFFF80
7FFF003FFFC0
7FFF001FFFC0
7FFF000FFFC0
7FFF000FFFC0
7FFF000FFFC0
7FFF800FFFC0
3FFFE00FFFC0
3FFFFC1FFFC0
1FFFFF9FFF80
0FFFFFFFFF80
07FFFFFFFF00
03FFFFFFFE00
01FFFFFFFC00
007FFFFFF800
003FFFFFF000
000FFFFFF000
0003FFFFF800
0000FFFFFC00
00007FFFFE00
00001FFFFF00
00000FFFFF00
000003FFFF80
000001FFFF80
000000FFFFC0
0000007FFFC0
FFFF803FFFC0
FFFF803FFFC0
FFFF803FFFC0
FFFFC03FFFC0
FFFFC07FFFC0
7FFFF0FFFFC0
7FFFFFFFFFC0
7FFFFFFFFFC0
3FFFFFFFFF80
3FFFFFFFFF80
3FFFFFFFFF00
1FFFFFFFFE00
0FFFFFFFFE00
07FFFFFFFC00
03FFFFFFF000
01FFFFFFE000
007FFFFF8000
001FFFFE0000
0001FFE00000
ENDCHAR
STARTCHAR dieresis
ENCODING 168
SWIDTH 477 0
DWIDTH 50 0
BBX 43 15 3 81
BITMAP
FFFFE07FFFE0
FFFFE07FFFE0
FFFFE07FFFE0
FFFFE07FFFE0
FFFFE07FFFE0
FFFFE07FFFE0
FFFFE07FFFE0
FFFFE07FFFE0
FFFFE07FFFE0
FFFFE07FFFE0
FFFFE07FFFE0
FFFFE07FFFE0
FFFFE07FFFE0
FFFFE07FFFE0
FFFFE07FFFE0
ENDCHAR
STARTCHAR copyright
ENCODING 169
SWIDTH 675 0
DWIDTH 70 0
BBX 66 67 2 10
BITMAP
0000001FFE00000000
000001FFFFE0000000
00000FFFFFFC000000
00003FFFFFFF000000
0000FFFFFFFFC00000
0003FFFFFFFFF00000
0007FFFFFFFFF80000
000FFFF003FFFE0000
003FFF00003FFF0000
007FFC00000FFF8000
00FFF0000003FFC000
00FFE007F801FFE000
01FF803FFF007FE000
03FF007FFF803FF000
07FE00FFFFC01FF800
07FC01FFFFE00FF800
0FF803FFFFF007FC00
0FF803FFFFF007FE00
1FF003FFFFF803FE00
1FE007FFFFF801FF00
3FE007FF3FF801FF00
3FC007FE1FF800FF00
7FC007FE1FF800FF80
7FC007FE1FF8007F80
7F8007FE1FF8007F80
7F8007FE1FF8007FC0
FF8007FE1FF8003FC0
FF0007FE1FF8003FC0
FF0007FE1FF8003FC0
FF0007FE0000003FC0
FF0007FE0000003FC0
FF0007FE0000003FC0
FF0007FE0000003FC0
FF0007FE0000003FC0
FF0007FE0000003FC0
FF0007FE0000003FC0
FF0007FE0000003FC0
FF0007FE1FF8003FC0
FF0007FE1FF8003FC0
FF0007FE1FF8003FC0
FF8007FE1FF8003FC0
7F8007FE1FF8007FC0
7F8007FE1FF8007F80
7FC007FE1FF8007F80
7FC007FE1FF800FF80
3FC007FE1FF800FF00
3FE007FE1FF801FF00
1FE007FF3FF801FF00
1FF003FFFFF803FE00
0FF803FFFFF007FE00
0FF803FFFFF007FC00
07FC01FFFFF00FFC00
07FE00FFFFE01FF800
03FF007FFFC03FF000
01FF803FFF007FE000
00FFE007F800FFE000
00FFF0000003FFC000
007FFC00000FFF8000
003FFF00003FFF0000
000FFFF003FFFE0000
0007FFFFFFFFF80000
0003FFFFFFFFF00000
0000FFFFFFFFC00000
00003FFFFFFF000000
00000FFFFFFC000000
000001FFFFE0000000
0000001FFE00000000
ENDCHAR
STARTCHAR ordfeminine
ENCODING 170
SWIDTH 392 0
DWIDTH 41 0
BBX 36 62 2 40
BITMAP
0007FF0000
007FFFE000
01FFFFF800
03FFFFFE00
07FFFFFF00
0FFFFFFF80
1FFFFFFF80
1FFFFFFFC0
3FFFFFFFE0
3FFFFFFFE0
3FFFFFFFE0
3FFF0FFFE0
7FFF07FFF0
7FFE07FFF0
7FFE07FFF0
7FFE07FFF0
7FFE07FFF0
7FFE07FFF0
7FFE07FFF0
000007FFF0
000007FFF0
000007FFF0
00001FFFF0
0000FFFFF0
0007FFFFF0
001FFFFFF0
00FFFFFFF0
01FFFFFFF0
07FFFFFFF0
0FFFFFFFF0
1FFFF7FFF0
1FFFC7FFF0
3FFF87FFF0
3FFF07FFF0
7FFF07FFF0
7FFE07FFF0
7FFE07FFF0
7FFE07FFF0
FFFE07FFF0
FFFE07FFF0
FFFE07FFF0
FFFE07FFF0
FFFE07FFF0
FFFE07FFF0
FFFE07FFF0
FFFE07FFF0
FFFE07FFF0
FFFE07FFF0
FFFE07FFF0
7FFF07FFF0
7FFF8FFFF0
7FFFFFFFF0
7FFFFFFFF0
7FFFFFFFF0
3FFFFFFFF0
3FFFFFFFF0
3FFFFFFFF0
1FFFF7FFF0
0FFFF7FFF0
07FFE7FFF0
03FF87FFF0
007E000000
ENDCHAR
STARTCHAR guillemotleft
ENCODING 171
SWIDTH 578 0
DWIDTH 60 0
BBX 55 50 2 13
BITMAP
00000040000002
000000C0000006
000003C000001E
00000FC000003E
00003FC00000FE
0000FFC00003FE
0001FFC0000FFE
0007FFC0003FFE
001FFFC000FFFE
007FFFC003FFFE
01FFFFC00FFFFE
07FFFFC01FFFFE
1FFFFFC07FFFFE
7FFFFFC1FFFFFE
FFFFFFC7FFFFFE
FFFFFFC7FFFFFE
FFFFFFC7FFFFFE
FFFFFFC7FFFFFE
FFFFFFC7FFFFFE
FFFFFF07FFFFF8
FFFFF807FFFFE0
FFFFE007FFFF00
FFFF0007FFFC00
FFFC0007FFE000
FFE00007FF0000
FFE00007FF8000
FFFC0007FFE000
FFFF0007FFF800
FFFFE007FFFF00
FFFFF807FFFFC0
FFFFFE07FFFFF8
FFFFFFC7FFFFFE
FFFFFFC7FFFFFE
FFFFFFC7FFFFFE
FFFFFFC7FFFFFE
FFFFFFC3FFFFFE
3FFFFFC1FFFFFE
0FFFFFC07FFFFE
03FFFFC01FFFFE
01FFFFC007FFFE
007FFFC001FFFE
001FFFC000FFFE
0007FFC0003FFE
0001FFC0000FFE
0000FFC00003FE
00003FC00000FE
00000FC000007E
000003C000001E
000000C0000006
00000040000002
ENDCHAR
STARTCHAR logicalnot
ENCODING 172
SWIDTH 404 0
DWIDTH 42 0
BBX 37 27 2 23
BITMAP
FFFFFFFFF8
FFFFFFFFF8
FFFFFFFFF8
FFFFFFFFF8
FFFFFFFFF8
FFFFFFFFF8
FFFFFFFFF8
FFFFFFFFF8
FFFFFFFFF8
000007FFF8
000007FFF8
000007FFF8
000007FFF8
000007FFF8
000007FFF8
000007FFF8
000007FFF8
000007FFF8
000007FFF8
000007FFF8
000007FFF8
000007FFF8
000007FFF8
000007FFF8
000007FFF8
000007FFF8
000007FFF8
ENDCHAR
STARTCHAR uni00AD
ENCODING 173
SWIDTH 293 0
DWIDTH 30 0
BBX 26 12 3 26
BITMAP
FFFFFFC0
FFFFFFC0
FFFFFFC0
FFFFFFC0
FFFFFFC0
FFFFFFC0
FFFFFFC0
FFFFFFC0
FFFFFFC0
FFFFFFC0
FFFFFFC0
FFFFFFC0
ENDCHAR
STARTCHAR registered
ENCODING 174
SWIDTH 675 0
DWIDTH 70 0
BBX 66 67 2 10
BITMAP
0000001FFE00000000
000001FFFFE0000000
00000FFFFFFC000000
00003FFFFFFF000000
0000FFFFFFFFC00000
0003FFFFFFFFF00000
0007FFFFFFFFF80000
000FFFF003FFFE0000
003FFF00003FFF0000
007FFC00000FFF8000
00FFF0000003FFC000
00FFE0000001FFE000
01FF83FFFF007FE000
03FF03FFFFC03FF000
07FE03FFFFE01FF800
07FC03FFFFF00FF800
0FF803FFFFF007FC00
0FF803FFFFF007FE00
1FF003FFFFF803FE00
1FE003FFFFF801FF00
3FE003FE1FF801FF00
3FC003FE1FF800FF00
7FC003FE0FF800FF80
7FC003FE0FF8007F80
7F8003FE0FF8007F80
7F8003FE0FF8007FC0
FF8003FE0FF8003FC0
FF0003FE0FF8003FC0
FF0003FE1FF8003FC0
FF0003FFFFF8003FC0
FF0003FFFFF0003FC0
FF0003FFFFE0003FC0
FF0003FFFFC0003FC0
FF0003FFFF80003FC0
FF0003FFFFE0003FC0
FF0003FFFFF0003FC0
FF0003FE3FF0003FC0
FF0003FE1FF0003FC0
FF0003FE1FF0003FC0
FF0003FE1FF0003FC0
FF8003FE1FF0003FC0
7F8003FE1FF0007FC0
7F8003FE1FF0007F80
7FC003FE1FF0007F80
7FC003FE1FF000FF80
3FC003FE1FF000FF00
3FE003FE1FF001FF00
1FE003FE1FF001FF00
1FF003FE1FF003FE00
0FF803FE1FF007FE00
0FF803FE1FF007FC00
07FC03FE1FF00FFC00
07FE03FE1FF01FF800
03FF03FE1FF03FF000
01FF83FE1FF07FE000
00FFE0000000FFE000
00FFF0000003FFC000
007FFC00000FFF8000
003FFF00003FFF0000
000FFFF003FFFE0000
0007FFFFFFFFF80000
0003FFFFFFFFF00000
0000FFFFFFFFC00000
00003FFFFFFF000000
00000FFFFFFC000000
000001FFFFE0000000
0000001FFE00000000
ENDCHAR
STARTCHAR macron
ENCODING 175
SWIDTH 833 0
DWIDTH 87 0
BBX 33 8 27 82
BITMAP
FFFFFFFF80
FFFFFFFF80
FFFFFFFF80
FFFFFFFF80
FFFFFFFF80
FFFFFFFF80
FFFFFFFF80
FFFFFFFF80
ENDCHAR
STARTCHAR degree
ENCODING 176
SWIDTH 389 0
DWIDTH 40 0
BBX 36 34 2 47
BITMAP
0007FE0000
003FFFC000
00FFFFF000
03FFFFFC00
07FFFFFE00
0FFFFFFF00
1FFFFFFF80
1FFFFFFFC0
3FFFFFFFC0
3FFF07FFE0
7FFC01FFE0
7FF800FFE0
7FF000FFF0
FFF0007FF0
FFE0007FF0
FFE0007FF0
FFE0007FF0
FFE0007FF0
FFE0007FF0
FFE0007FF0
FFF0007FF0
7FF000FFF0
7FF800FFE0
7FFC01FFE0
3FFE07FFE0
3FFFFFFFC0
1FFFFFFFC0
1FFFFFFF80
0FFFFFFF00
07FFFFFE00
03FFFFFC00
00FFFFF800
003FFFE000
0007FE0000
ENDCHAR
STARTCHAR plusminus
ENCODING 177
SWIDTH 358 0
DWIDTH 37 0
BBX 33 54 2 0
BITMAP
001FFE0000
001FFE0000
001FFE0000
001FFE0000
001FFE0000
001FFE0000
001FFE0000
001FFE0000
001FFE0000
001FFE0000
001FFE0000
FFFFFFFF80
FFFFFFFF80
FFFFFFFF80
FFFFFFFF80
FFFFFFFF80
FFFFFFFF80
FFFFFFFF80
FFFFFFFF80
FFFFFFFF80
FFFFFFFF80
FFFFFFFF80
FFFFFFFF80
001FFE0000
001FFE0000
001FFE0000
001FFE0000
001FFE0000
001FFE0000
001FFE0000
001FFE0000
001FFE0000
001FFE0000
0000000000
0000000000
0000000000
0000000000
0000000000
0000000000
0000000000
0000000000
0000000000
3FFFFFF800
3FFFFFF800
3FFFFFF800
3FFFFFF800
3FFFFFF800
3FFFFFF800
3FFFFFF800
3FFFFFF800
3FFFFFF800
3FFFFFF800
3FFFFFF800
3FFFFFF800
ENDCHAR
STARTCHAR uni00B2
ENCODING 178
SWIDTH 302 0
DWIDTH 31 0
BBX 27 49 2 41
BITMAP
007FC000
03FFF800
0FFFFC00
1FFFFF00
1FFFFF00
3FFFFF80
3FFFFFC0
7FFFFFC0
7FFFFFC0
7FF1FFE0
7FE0FFE0
FFE0FFE0
FFE0FFE0
FFE0FFE0
FFE0FFE0
FFE0FFE0
FFE0FFE0
FFE0FFE0
FFE1FFE0
0001FFC0
0003FFC0
0003FFC0
0007FF80
000FFF80
001FFF00
001FFF00
003FFE00
007FFC00
00FFFC00
01FFF800
03FFF000
03FFE000
07FFC000
0FFF8000
0FFF8000
1FFF0000
1FFE0000
3FFC0000
3FFC0000
7FF80000
7FFFFFE0
7FFFFFE0
7FFFFFE0
7FFFFFE0
FFFFFFE0
FFFFFFE0
FFFFFFE0
FFFFFFE0
FFFFFFE0
ENDCHAR
STARTCHAR uni00B3
ENCODING 179
SWIDTH 298 0
DWIDTH 31 0
BBX 26 49 2 41
BITMAP
007FC000
03FFF800
0FFFFC00
1FFFFE00
3FFFFF00
3FFFFF80
7FFFFF80
7FFFFF80
7FFFFFC0
7FF1FFC0
FFE1FFC0
FFE0FFC0
FFE0FFC0
FFE0FFC0
0000FFC0
0001FFC0
0001FFC0
0007FFC0
001FFF80
001FFF80
001FFF00
001FFE00
001FFC00
001FFE00
001FFF00
001FFF80
001FFFC0
0003FFC0
0001FFC0
0001FFC0
0000FFC0
FFC0FFC0
FFC0FFC0
FFC0FFC0
FFC0FFC0
FFC0FFC0
FFC0FFC0
FFE0FFC0
FFE1FFC0
FFF1FFC0
7FFFFFC0
7FFFFF80
7FFFFF80
3FFFFF00
3FFFFF00
1FFFFE00
0FFFFC00
07FFF000
00FF8000
ENDCHAR
STARTCHAR acute
ENCODING 180
SWIDTH 317 0
DWIDTH 33 0
BBX 24 22 5 79
BITMAP
000003
00000F
00003F
0001FF
0007FF
001FFF
007FFF
01FFFF
07FFFF
3FFFFF
FFFFFF
FFFFFF
FFFFFF
FFFFFF
FFFFFF
FFFFFF
FFFFFF
FFFFFE
FFFFC0
FFF800
FF0000
E00000
ENDCHAR
STARTCHAR uni00B5
ENCODING 181
SWIDTH 490 0
DWIDTH 51 0
BBX 45 86 3 -10
BITMAP
FFFFE01FFFF8
FFFFE01FFFF8
FFFFE01FFFF8
FFFFE01FFFF8
FFFFE01FFFF8
FFFFE01FFFF8
FFFFE01FFFF8
FFFFE01FFFF8
FFFFE01FFFF8
FFFFE01FFFF8
FFFFE01FFFF8
FFFFE01FFFF8
FFFFE01FFFF8
FFFFE01FFFF8
FFFFE01FFFF8
FFFFE01FFFF8
FFFFE01FFFF8
FFFFE01FFFF8
FFFFE01FFFF8
FFFFE01FFFF8
FFFFE01FFFF8
FFFFE01FFFF8
FFFFE01FFFF8
FFFFE01FFFF8
FFFFE01FFFF8
FFFFE01FFFF8
FFFFE01FFFF8
FFFFE01FFFF8
FFFFE01FFFF8
FFFFE01FFFF8
FFFFE01FFFF8
FFFFE01FFFF8
FFFFE01FFFF8
FFFFE01FFFF8
FFFFE01FFFF8
FFFFE01FFFF8
FFFFE01FFFF8
FFFFE01FFFF8
FFFFE01FFFF8
FFFFE01FFFF8
FFFFE01FFFF8
FFFFE01FFFF8
FFFFE01FFFF8
FFFFE01FFFF8
FFFFE01FFFF8
FFFFE01FFFF8
FFFFE01FFFF8
FFFFE01FFFF8
FFFFE01FFFF8
FFFFE01FFFF8
FFFFE01FFFF8
FFFFE01FFFF8
FFFFE01FFFF8
FFFFE01FFFF8
FFFFE01FFFF8
FFFFE01FFFF8
FFFFE01FFFF8
FFFFE01FFFF8
FFFFE01FFFF8
FFFFE01FFFF8
FFFFE03FFFF8
FFFFF03FFFF8
FFFFFCFFFFF8
FFFFFFFFFFF8
FFFFFFFFFFF8
FFFFFFFFFFF8
FFFFFFFFFFF8
FFFFFFFFFFF8
FFFFFFFFFFF8
FFFFFFDFFFF8
FFFFFFDFFFF8
FFFFFF9FFFF8
FFFFFF9FFFF8
FFFFFF1FFFF8
FFFFFE1FFFF8
FFFFFC1FFFF8
FFFFE0000000
FFFFE0000000
FFFFE0000000
FFFFE0000000
FFFFE0000000
FFFFE0000000
FFFFE0000000
FFFFE0000000
FFFFE0000000
FFFFE0000000
ENDCHAR
STARTCHAR paragraph
ENCODING 182
SWIDTH 498 0
DWIDTH 52 0
BBX 47 81 2 0
BITMAP
00000FFFFFFE
0003FFFFFFFE
001FFFFFFFFE
007FFFFFFFFE
01FFFFFFFFFE
07FFFFFFFFFE
0FFFFFFFFFFE
1FFFFFFFFFFE
1FFFFFFFFFFE
3FFFFFFFFFFE
7FFFFFFFFFFE
7FFFFFFFFFFE
7FFFFFFFFFFE
FFFFFFFFFFFE
FFFFFFFFFFFE
FFFFFFFFFFFE
FFFFFFFC3FFE
FFFFFFFC3FFE
FFFFFFFC3FFE
FFFFFFFC3FFE
FFFFFFFC3FFE
FFFFFFFC3FFE
FFFFFFFC3FFE
FFFFFFFC3FFE
FFFFFFFC3FFE
FFFFFFFC3FFE
FFFFFFFC3FFE
FFFFFFFC3FFE
7FFFFFFC3FFE
7FFFFFFC3FFE
7FFFFFFC3FFE
3FFFFFFC3FFE
3FFFFFFC3FFE
1FFFFFFC3FFE
1FFFFFFC3FFE
0FFFFFFC3FFE
07FFFFFC3FFE
03FFFFFC3FFE
00FFFFFC3FFE
003FFFFC3FFE
0007FFFC3FFE
00007FFC3FFE
00007FFC3FFE
00007FFC3FFE
00007FFC3FFE
00007FFC3FFE
00007FFC3FFE
00007FFC3FFE
00007FFC3FFE
00007FFC3FFE
00007FFC3FFE
00007FFC3FFE
00007FFC3FFE
00007FFC3FFE
00007FFC3FFE
00007FFC3FFE
00007FFC3FFE
00007FFC3FFE
00007FFC3FFE
00007FFC3FFE
00007FFC3FFE
00007FFC3FFE
00007FFC3FFE
00007FFC3FFE
00007FFC3FFE
00007FFC3FFE
00007FFC3FFE
00007FFC3FFE
00007FFC3FFE
00007FFC3FFE
00007FFC3FFE
00007FFC3FFE
00007FFC3FFE
00007FFC3FFE
00007FFC3FFE
00007FFC3FFE
00007FFC3FFE
00007FFC3FFE
00007FFC3FFE
00007FFC3FFE
00007FFC3FFE
ENDCHAR
STARTCHAR periodcentered
ENCODING 183
SWIDTH 234 0
DWIDTH 24 0
BBX 16 15 4 37
BITMAP
FFFF
FFFF
FFFF
FFFF
FFFF
FFFF
FFFF
FFFF
FFFF
FFFF
FFFF
FFFF
FFFF
FFFF
FFFF
ENDCHAR
STARTCHAR cedilla
ENCODING 184
SWIDTH 496 0
DWIDTH 52 0
BBX 26 32 13 -32
BITMAP
01FF0000
00FF8000
007FC000
007FE000
003FF000
003FF000
001FF800
001FFC00
001FFC00
000FFE00
000FFE00
000FFF00
000FFF00
000FFF80
000FFF80
000FFF80
000FFF80
000FFFC0
001FFFC0
E07FFFC0
FFFFFFC0
FFFFFFC0
FFFFFF80
FFFFFF80
FFFFFF80
FFFFFF00
FFFFFF00
FFFFFE00
FFFFFC00
FFFFF800
3FFFE000
07FF0000
ENDCHAR
STARTCHAR uni00B9
ENCODING 185
SWIDTH 206 0
DWIDTH 21 0
BBX 17 48 1 41
BITMAP
007F80
007F80
00FF80
01FF80
07FF80
1FFF80
FFFF80
7FFF80
7FFF80
7FFF80
7FFF80
7FFF80
FDFF80
F1FF80
01FF80
01FF80
01FF80
01FF80
01FF80
01FF80
01FF80
01FF80
01FF80
01FF80
01FF80
01FF80
01FF80
01FF80
01FF80
01FF80
01FF80
01FF80
01FF80
01FF80
01FF80
01FF80
01FF80
01FF80
01FF80
01FF80
01FF80
01FF80
01FF80
01FF80
01FF80
01FF80
01FF80
01FF80
ENDCHAR
STARTCHAR ordmasculine
ENCODING 186
SWIDTH 397 0
DWIDTH 41 0
BBX 36 62 3 40
BITMAP
0007FC0000
003FFFC000
00FFFFF000
03FFFFF800
07FFFFFC00
0FFFFFFE00
1FFFFFFF00
3FFFFFFF80
3FFFFFFF80
7FFFFFFFC0
7FFFFFFFC0
7FFF1FFFE0
FFFE0FFFE0
FFFE07FFE0
FFFC07FFE0
FFFC07FFE0
FFFC07FFF0
FFFC07FFF0
FFFC07FFF0
FFFC07FFF0
FFFC07FFF0
FFFC07FFF0
FFFC07FFF0
FFFC07FFF0
FFFC07FFF0
FFFC07FFF0
FFFC07FFF0
FFFC07FFF0
FFFC07FFF0
FFFC07FFF0
FFFC07FFF0
FFFC07FFF0
FFFC07FFF0
FFFC07FFF0
FFFC07FFF0
FFFC07FFF0
FFFC07FFF0
FFFC07FFF0
FFFC07FFF0
FFFC07FFF0
FFFC07FFF0
FFFC07FFF0
FFFC07FFF0
FFFC07FFF0
FFFC07FFF0
FFFC07FFF0
FFFC07FFF0
FFFC07FFE0
FFFE07FFE0
FFFE0FFFE0
FFFF1FFFE0
7FFFFFFFC0
7FFFFFFFC0
7FFFFFFFC0
3FFFFFFF80
1FFFFFFF80
1FFFFFFF00
0FFFFFFE00
07FFFFFC00
01FFFFF000
007FFFC000
000FFE0000
ENDCHAR
STARTCHAR guillemotright
ENCODING 187
SWIDTH 578 0
DWIDTH 60 0
BBX 55 50 3 13
BITMAP
80000004000000
C0000006000000
F0000007800000
FC000007E00000
FE000007F80000
FF800007FE0000
FFE00007FF8000
FFF80007FFC000
FFFE0007FFF000
FFFF8007FFFC00
FFFFE007FFFF00
FFFFF807FFFFC0
FFFFFC07FFFFF0
FFFFFF07FFFFFC
FFFFFFC7FFFFFE
FFFFFFC7FFFFFE
FFFFFFC7FFFFFE
FFFFFFC7FFFFFE
FFFFFFC7FFFFFE
3FFFFFC1FFFFFE
0FFFFFC03FFFFE
01FFFFC00FFFFE
003FFFC001FFFE
000FFFC0007FFE
0001FFC0000FFE
0003FFC0000FFE
000FFFC0007FFE
003FFFC001FFFE
01FFFFC007FFFE
07FFFFC03FFFFE
3FFFFFC0FFFFFE
FFFFFFC7FFFFFE
FFFFFFC7FFFFFE
FFFFFFC7FFFFFE
FFFFFFC7FFFFFE
FFFFFFC7FFFFFE
FFFFFF07FFFFF8
FFFFFC07FFFFE0
FFFFF007FFFF80
FFFFC007FFFF00
FFFF8007FFFC00
FFFE0007FFF000
FFF80007FFC000
FFE00007FF8000
FF800007FE0000
FF000007F80000
FC000007E00000
F0000007800000
C0000007000000
80000004000000
ENDCHAR
STARTCHAR onequarter
ENCODING 188
SWIDTH 814 0
DWIDTH 85 0
BBX 69 91 8 -1
BITMAP
00000000003FFF8000
00FF8000003FFF8000
00FF8000003FFF0000
01FF8000007FFF0000
03FF8000007FFE0000
07FF8000007FFE0000
3FFF800000FFFE0000
FFFF800000FFFC0000
FFFF800000FFFC0000
FFFF800000FFF80000
FFFF800001FFF80000
FFFF800001FFF80000
FFFF800001FFF00000
FFFF800003FFF00000
E3FF800003FFF00000
03FF800003FFE00000
03FF800007FFE00000
03FF800007FFC00000
03FF800007FFC00000
03FF80000FFFC00000
03FF80000FFF800000
03FF80000FFF800000
03FF80001FFF000000
03FF80001FFF000000
03FF80001FFF000000
03FF80003FFE000000
03FF80003FFE000000
03FF80003FFE000000
03FF80007FFC000000
03FF80007FFC000000
03FF80007FF8000000
03FF8000FFF8000000
03FF8000FFF8000000
03FF8000FFF0000000
03FF8001FFF0000000
03FF8001FFF0000000
03FF8001FFE0000000
03FF8003FFE0000000
03FF8003FFC0000000
03FF8003FFC0000000
03FF8007FFC0000000
03FF8007FF80000000
03FF8007FF80000000
03FF800FFF001FFFE0
03FF800FFF001FFFE0
03FF800FFF003FFFE0
03FF801FFE003FFFE0
03FF801FFE003FFFE0
03FF801FFE007FFFE0
0000003FFC007FFFE0
0000003FFC007FFFE0
0000003FF8007FFFE0
0000007FF800FFFFE0
0000007FF800FFFFE0
0000007FF000FF7FE0
000000FFF001FF7FE0
000000FFE001FF7FE0
000000FFE001FF7FE0
000001FFE003FE7FE0
000001FFC003FE7FE0
000001FFC003FE7FE0
000001FFC003FE7FE0
000003FF8007FC7FE0
000003FF8007FC7FE0
000003FF0007FC7FE0
000007FF000FF87FE0
000007FF000FF87FE0
000007FE000FF87FE0
00000FFE000FF87FE0
00000FFC001FF07FE0
00000FFC001FF07FE0
00001FFC001FF07FE0
00001FF8003FF07FE0
00001FF8003FE07FE0
00003FF8003FFFFFF8
00003FF0003FFFFFF8
00003FF0003FFFFFF8
00007FE0003FFFFFF8
00007FE0003FFFFFF8
00007FE0003FFFFFF8
0000FFC0003FFFFFF8
0000FFC0003FFFFFF8
0000FF80003FFFFFF8
0001FF800000007FE0
0001FF800000007FE0
0001FF000000007FE0
0003FF000000007FE0
0003FF000000007FE0
0003FE000000007FE0
0007FE000000007FE0
000000000000007FE0
ENDCHAR
STARTCHAR onehalf
ENCODING 189
SWIDTH 861 0
DWIDTH 90 0
BBX 74 91 8 0
BITMAP
00000000001FFFC00000
00000000001FFF800000
00FF8000003FFF800000
00FF8000003FFF000000
01FF8000003FFF000000
03FF8000007FFF000000
07FF8000007FFE000000
3FFF8000007FFE000000
FFFF800000FFFC000000
FFFF800000FFFC000000
FFFF800000FFFC000000
FFFF800001FFF8000000
FFFF800001FFF8000000
FFFF800001FFF8000000
FFFF800003FFF0000000
E3FF800003FFF0000000
03FF800003FFE0000000
03FF800007FFE0000000
03FF800007FFE0000000
03FF800007FFC0000000
03FF800007FFC0000000
03FF80000FFF80000000
03FF80000FFF80000000
03FF80000FFF80000000
03FF80001FFF00000000
03FF80001FFF00000000
03FF80001FFF00000000
03FF80003FFE00000000
03FF80003FFE00000000
03FF80003FFC00000000
03FF80007FFC00000000
03FF80007FFC00000000
03FF80007FF800000000
03FF8000FFF800000000
03FF8000FFF000000000
03FF8000FFF000000000
03FF8001FFF000000000
03FF8001FFE000000000
03FF8001FFE000000000
03FF8003FFE000000000
03FF8003FFC000000000
03FF8003FFC000000000
03FF8007FF8000FF8000
03FF8007FF8007FFF000
03FF8007FF801FFFF800
03FF800FFF003FFFFE00
03FF800FFF003FFFFE00
03FF800FFE007FFFFF00
03FF801FFE007FFFFF80
03FF801FFE00FFFFFF80
0000001FFC00FFFFFF80
0000003FFC00FFE3FFC0
0000003FFC00FFC1FFC0
0000003FF801FFC1FFC0
0000007FF801FFC1FFC0
0000007FF001FFC1FFC0
0000007FF001FFC1FFC0
000000FFF001FFC1FFC0
000000FFE001FFC1FFC0
000000FFE001FFC1FFC0
000001FFE001FFC3FFC0
000001FFC0000003FF80
000001FFC0000007FF80
000003FF80000007FF80
000003FF8000000FFF00
000003FF8000001FFF00
000007FF0000003FFE00
000007FF0000003FFE00
000007FE0000007FFC00
00000FFE000000FFF800
00000FFE000001FFF800
00000FFC000003FFF000
00000FFC000007FFE000
00001FFC000007FFC000
00001FF800000FFF8000
00001FF800001FFF0000
00003FF000001FFF0000
00003FF000003FFE0000
00003FF000003FFC0000
00007FE000007FF80000
00007FE000007FF80000
00007FC00000FFF00000
0000FFC00000FFFFFFC0
0000FFC00000FFFFFFC0
0000FF800000FFFFFFC0
0001FF800000FFFFFFC0
0001FF800001FFFFFFC0
0001FF000001FFFFFFC0
0003FF000001FFFFFFC0
0003FE000001FFFFFFC0
000000000001FFFFFFC0
ENDCHAR
STARTCHAR threequarters
ENCODING 190
SWIDTH 854 0
DWIDTH 89 0
BBX 73 91 8 -1
BITMAP
00FF80000001FFFC0000
07FFF0000001FFFC0000
0FFFFC000001FFF80000
3FFFFE000003FFF80000
3FFFFE000003FFF00000
7FFFFF000003FFF00000
7FFFFF800007FFF00000
FFFFFF800007FFE00000
FFFFFF800007FFE00000
FFE3FF800007FFC00000
FFE1FFC0000FFFC00000
FFC1FFC0000FFFC00000
FFC1FFC0000FFF800000
FFC1FFC0001FFF800000
0001FFC0001FFF800000
0001FFC0001FFF000000
0003FF80003FFF000000
0007FF80003FFE000000
003FFF80003FFE000000
003FFF80007FFE000000
003FFF00007FFC000000
003FFE00007FFC000000
003FF80000FFF8000000
003FFE0000FFF8000000
003FFF0000FFF8000000
003FFF8001FFF0000000
003FFF8001FFF0000000
0007FF8001FFF0000000
0003FFC003FFE0000000
0001FFC003FFE0000000
0001FFC003FFC0000000
FFC1FFC007FFC0000000
FFC1FFC007FFC0000000
FFC1FFC007FF80000000
FFC1FFC00FFF80000000
FFC1FFC00FFF80000000
FFC1FFC00FFF00000000
FFC1FFC01FFF00000000
FFC1FFC01FFE00000000
FFE3FF801FFE00000000
FFFFFF803FFE00000000
FFFFFF803FFC00000000
7FFFFF003FFC00000000
7FFFFF007FF801FFFE00
3FFFFE007FF801FFFE00
1FFFFC007FF803FFFE00
0FFFF800FFF003FFFE00
07FFF000FFF003FFFE00
00FF8000FFF007FFFE00
00000001FFE007FFFE00
00000001FFE007FFFE00
00000001FFC007FFFE00
00000003FFC00FFFFE00
00000003FFC00FFFFE00
00000003FF800FF7FE00
00000007FF801FF7FE00
00000007FF001FF7FE00
00000007FF001FF7FE00
0000000FFF003FE7FE00
0000000FFE003FE7FE00
0000000FFE003FE7FE00
0000000FFE003FE7FE00
0000001FFC007FC7FE00
0000001FFC007FC7FE00
0000001FF8007FC7FE00
0000003FF800FF87FE00
0000003FF800FF87FE00
0000003FF000FF87FE00
0000007FF000FF87FE00
0000007FE001FF07FE00
0000007FE001FF07FE00
000000FFE001FF07FE00
000000FFC003FF07FE00
000000FFC003FE07FE00
000001FFC003FFFFFF80
000001FF8003FFFFFF80
000001FF8003FFFFFF80
000003FF0003FFFFFF80
000003FF0003FFFFFF80
000003FF0003FFFFFF80
000007FE0003FFFFFF80
000007FE0003FFFFFF80
000007FC0003FFFFFF80
00000FFC00000007FE00
00000FFC00000007FE00
00000FF800000007FE00
00001FF800000007FE00
00001FF800000007FE00
00001FF000000007FE00
00003FF000000007FE00
0000000000000007FE00
ENDCHAR
STARTCHAR questiondown
ENCODING 191
SWIDTH 493 0
DWIDTH 51 0
BBX 47 90 2 -7
BITMAP
0000003FFFF0
0000003FFFF0
0000003FFFF0
0000003FFFF0
0000003FFFF0
0000003FFFF0
0000003FFFF0
0000003FFFF0
0000003FFFF0
0000003FFFF0
0000003FFFF0
0000003FFFF0
0000003FFFF0
0000003FFFF0
0000003FFFF0
000000000000
000000000000
000000000000
000000000000
000000000000
000000000000
000000000000
000000000000
0000003FFFE0
0000003FFFE0
0000003FFFE0
0000003FFFE0
0000003FFFE0
0000003FFFE0
0000003FFFE0
0000003FFFE0
0000003FFFE0
00003FFFFFE0
0001FFFFFFE0
0007FFFFFFE0
001FFFFFFFE0
003FFFFFFFE0
007FFFFFFFE0
00FFFFFFFFE0
01FFFFFFFFE0
03FFFFFFFFE0
07FFFFFFFFE0
07FFFFFFFFE0
0FFFFFFFFFE0
0FFFFFFFC000
1FFFFFF80000
1FFFFFC00000
3FFFFF800000
3FFFFF000000
3FFFFE000000
7FFFFC000000
7FFFF8000000
7FFFF8000000
7FFFF8000000
FFFFF0000000
FFFFF0000000
FFFFF0000000
FFFFF007FFFE
FFFFF007FFFE
FFFFE007FFFE
FFFFE007FFFE
FFFFE007FFFE
FFFFE007FFFE
FFFFE007FFFE
FFFFE007FFFE
FFFFE007FFFE
FFFFE007FFFE
FFFFE00FFFFE
FFFFE00FFFFE
FFFFE00FFFFE
FFFFF00FFFFE
7FFFF00FFFFE
7FFFF01FFFFE
7FFFFC3FFFFE
7FFFFFFFFFFE
3FFFFFFFFFFE
3FFFFFFFFFFC
3FFFFFFFFFFC
1FFFFFFFFFFC
1FFFFFFFFFF8
0FFFFFFFFFF8
0FFFFFFFFFF0
07FFFFFFFFE0
03FFFFFFFFC0
01FFFFFFFF80
00FFFFFFFF00
007FFFFFFE00
001FFFFFF800
0007FFFFC000
00007FFC0000
ENDCHAR
STARTCHAR Agrave
ENCODING 192
SWIDTH 485 0
DWIDTH 50 0
BBX 47 114 2 0
BITMAP
001800000000
001E00000000
001F80000000
001FE0000000
001FFC000000
001FFF000000
001FFFC00000
001FFFF00000
001FFFFC0000
001FFFFF0000
001FFFFFE000
001FFFFFE000
001FFFFFE000
001FFFFFE000
001FFFFFE000
001FFFFFE000
001FFFFFE000
000FFFFFE000
00007FFFE000
000003FFE000
0000001FE000
00000000E000
000000000000
000000000000
000000000000
00FFFFFFFE00
00FFFFFFFE00
00FFFFFFFE00
00FFFFFFFE00
00FFFFFFFE00
00FFFFFFFE00
00FFFFFFFE00
01FFFFFFFE00
01FFFFFFFE00
01FFFFFFFE00
01FFFFFFFE00
01FFFFFFFF00
01FFFFFFFF00
01FFFFFFFF00
01FFFFFFFF00
01FFFEFFFF00
01FFFEFFFF00
03FFFCFFFF00
03FFFCFFFF00
03FFFCFFFF00
03FFFCFFFF00
03FFFCFFFF80
03FFFCFFFF80
03FFFCFFFF80
03FFFCFFFF80
03FFFCFFFF80
03FFFCFFFF80
03FFFC7FFF80
07FFFC7FFF80
07FFFC7FFF80
07FFFC7FFF80
07FFF87FFF80
07FFF87FFFC0
07FFF87FFFC0
07FFF87FFFC0
07FFF87FFFC0
07FFF87FFFC0
07FFF87FFFC0
0FFFF83FFFC0
0FFFF83FFFC0
0FFFF83FFFC0
0FFFF83FFFC0
0FFFF83FFFE0
0FFFF83FFFE0
0FFFF03FFFE0
0FFFF03FFFE0
0FFFF03FFFE0
0FFFF03FFFE0
1FFFF03FFFE0
1FFFF01FFFE0
1FFFF01FFFE0
1FFFF01FFFE0
1FFFF01FFFE0
1FFFF01FFFF0
1FFFF01FFFF0
1FFFF01FFFF0
1FFFF01FFFF0
1FFFF01FFFF0
1FFFE01FFFF0
3FFFE01FFFF0
3FFFFFFFFFF0
3FFFFFFFFFF0
3FFFFFFFFFF0
3FFFFFFFFFF8
3FFFFFFFFFF8
3FFFFFFFFFF8
3FFFFFFFFFF8
3FFFFFFFFFF8
3FFFFFFFFFF8
7FFFFFFFFFF8
7FFFFFFFFFF8
7FFFFFFFFFF8
7FFFFFFFFFF8
7FFFFFFFFFF8
7FFFC007FFFC
7FFFC007FFFC
7FFFC007FFFC
7FFFC007FFFC
7FFFC007FFFC
FFFFC007FFFC
FFFFC007FFFC
FFFF8007FFFC
FFFF8007FFFC
FFFF8003FFFC
FFFF8003FFFE
FFFF8003FFFE
FFFF8003FFFE
FFFF8003FFFE
FFFF8003FFFE
ENDCHAR
STARTCHAR Aacute
ENCODING 193
SWIDTH 485 0
DWIDTH 50 0
BBX 47 114 2 0
BITMAP
000000003000
00000000F000
00000003F000
0000001FF000
0000007FF000
000001FFF000
000007FFF000
00001FFFF000
00007FFFF000
0003FFFFF000
000FFFFFF000
000FFFFFF000
000FFFFFF000
000FFFFFF000
000FFFFFF000
000FFFFFF000
000FFFFFF000
000FFFFFE000
000FFFFC0000
000FFF800000
000FF0000000
000E00000000
000000000000
000000000000
000000000000
00FFFFFFFE00
00FFFFFFFE00
00FFFFFFFE00
00FFFFFFFE00
00FFFFFFFE00
00FFFFFFFE00
00FFFFFFFE00
01FFFFFFFE00
01FFFFFFFE00
01FFFFFFFE00
01FFFFFFFE00
01FFFFFFFF00
01FFFFFFFF00
01FFFFFFFF00
01FFFFFFFF00
01FFFEFFFF00
01FFFEFFFF00
03FFFCFFFF00
03FFFCFFFF00
03FFFCFFFF00
03FFFCFFFF00
03FFFCFFFF80
03FFFCFFFF80
03FFFCFFFF80
03FFFCFFFF80
03FFFCFFFF80
03FFFCFFFF80
03FFFC7FFF80
07FFFC7FFF80
07FFFC7FFF80
07FFFC7FFF80
07FFF87FFF80
07FFF87FFFC0
07FFF87FFFC0
07FFF87FFFC0
07FFF87FFFC0
07FFF87FFFC0
07FFF87FFFC0
0FFFF83FFFC0
0FFFF83FFFC0
0FFFF83FFFC0
0FFFF83FFFC0
0FFFF83FFFE0
0FFFF83FFFE0
0FFFF03FFFE0
0FFFF03FFFE0
0FFFF03FFFE0
0FFFF03FFFE0
1FFFF03FFFE0
1FFFF01FFFE0
1FFFF01FFFE0
1FFFF01FFFE0
1FFFF01FFFE0
1FFFF01FFFF0
1FFFF01FFFF0
1FFFF01FFFF0
1FFFF01FFFF0
1FFFF01FFFF0
1FFFE01FFFF0
3FFFE01FFFF0
3FFFFFFFFFF0
3FFFFFFFFFF0
3FFFFFFFFFF0
3FFFFFFFFFF8
3FFFFFFFFFF8
3FFFFFFFFFF8
3FFFFFFFFFF8
3FFFFFFFFFF8
3FFFFFFFFFF8
7FFFFFFFFFF8
7FFFFFFFFFF8
7FFFFFFFFFF8
7FFFFFFFFFF8
7FFFFFFFFFF8
7FFFC007FFFC
7FFFC007FFFC
7FFFC007FFFC
7FFFC007FFFC
7FFFC007FFFC
FFFFC007FFFC
FFFFC007FFFC
FFFF8007FFFC
FFFF8007FFFC
FFFF8003FFFC
FFFF8003FFFE
FFFF8003FFFE
FFFF8003FFFE
FFFF8003FFFE
FFFF8003FFFE
ENDCHAR
STARTCHAR Acircumflex
ENCODING 194
SWIDTH 485 0
DWIDTH 50 0
BBX 47 114 2 0
BITMAP
0007FFFFC000
000FFFFFE000
000FFFFFE000
001FFFFFF000
003FFFFFF800
003FFFFFF800
007FFEFFFC00
007FFEFFFE00
00FFFEFFFE00
01FFFE7FFF00
01FFFC7FFF00
03FFFC7FFF80
03FFFC3FFFC0
07FFF83FFFC0
0FFFF83FFFE0
0FFFF81FFFE0
1FFFF01FFFF0
1FFFF01FFFF8
3FFFF00FFFF8
7FFFE00FFFFC
000000000000
000000000000
000000000000
000000000000
000000000000
00FFFFFFFE00
00FFFFFFFE00
00FFFFFFFE00
00FFFFFFFE00
00FFFFFFFE00
00FFFFFFFE00
00FFFFFFFE00
01FFFFFFFE00
01FFFFFFFE00
01FFFFFFFE00
01FFFFFFFE00
01FFFFFFFF00
01FFFFFFFF00
01FFFFFFFF00
01FFFFFFFF00
01FFFEFFFF00
01FFFEFFFF00
03FFFCFFFF00
03FFFCFFFF00
03FFFCFFFF00
03FFFCFFFF00
03FFFCFFFF80
03FFFCFFFF80
03FFFCFFFF80
03FFFCFFFF80
03FFFCFFFF80
03FFFCFFFF80
03FFFC7FFF80
07FFFC7FFF80
07FFFC7FFF80
07FFFC7FFF80
07FFF87FFF80
07FFF87FFFC0
07FFF87FFFC0
07FFF87FFFC0
07FFF87FFFC0
07FFF87FFFC0
07FFF87FFFC0
0FFFF83FFFC0
0FFFF83FFFC0
0FFFF83FFFC0
0FFFF83FFFC0
0FFFF83FFFE0
0FFFF83FFFE0
0FFFF03FFFE0
0FFFF03FFFE0
0FFFF03FFFE0
0FFFF03FFFE0
1FFFF03FFFE0
1FFFF01FFFE0
1FFFF01FFFE0
1FFFF01FFFE0
1FFFF01FFFE0
1FFFF01FFFF0
1FFFF01FFFF0
1FFFF01FFFF0
1FFFF01FFFF0
1FFFF01FFFF0
1FFFE01FFFF0
3FFFE01FFFF0
3FFFFFFFFFF0
3FFFFFFFFFF0
3FFFFFFFFFF0
3FFFFFFFFFF8
3FFFFFFFFFF8
3FFFFFFFFFF8
3FFFFFFFFFF8
3FFFFFFFFFF8
3FFFFFFFFFF8
7FFFFFFFFFF8
7FFFFFFFFFF8
7FFFFFFFFFF8
7FFFFFFFFFF8
7FFFFFFFFFF8
7FFFC007FFFC
7FFFC007FFFC
7FFFC007FFFC
7FFFC007FFFC
7FFFC007FFFC
FFFFC007FFFC
FFFFC007FFFC
FFFF8007FFFC
FFFF8007FFFC
FFFF8003FFFC
FFFF8003FFFE
FFFF8003FFFE
FFFF8003FFFE
FFFF8003FFFE
FFFF8003FFFE
ENDCHAR
STARTCHAR Atilde
ENCODING 195
SWIDTH 485 0
DWIDTH 50 0
BBX 47 111 2 0
BITMAP
001FE0000800
007FFE001E00
00FFFFC01FE0
01FFFFF87FF0
03FFFFFFFFF0
07FFFFFFFFF0
07FFFFFFFFE0
0FFFFFFFFFE0
0FFFFFFFFFC0
1FFFFFFFFFC0
1FFFFFFFFF80
3FFFFFFFFF80
07F83FFFFF00
01E007FFFE00
004000FFF800
0000001FE000
000000000000
000000000000
000000000000
000000000000
000000000000
000000000000
00FFFFFFFE00
00FFFFFFFE00
00FFFFFFFE00
00FFFFFFFE00
00FFFFFFFE00
00FFFFFFFE00
00FFFFFFFE00
01FFFFFFFE00
01FFFFFFFE00
01FFFFFFFE00
01FFFFFFFE00
01FFFFFFFF00
01FFFFFFFF00
01FFFFFFFF00
01FFFFFFFF00
01FFFEFFFF00
01FFFEFFFF00
03FFFCFFFF00
03FFFCFFFF00
03FFFCFFFF00
03FFFCFFFF00
03FFFCFFFF80
03FFFCFFFF80
03FFFCFFFF80
03FFFCFFFF80
03FFFCFFFF80
03FFFCFFFF80
03FFFC7FFF80
07FFFC7FFF80
07FFFC7FFF80
07FFFC7FFF80
07FFF87FFF80
07FFF87FFFC0
07FFF87FFFC0
07FFF87FFFC0
07FFF87FFFC0
07FFF87FFFC0
07FFF87FFFC0
0FFFF83FFFC0
0FFFF83FFFC0
0FFFF83FFFC0
0FFFF83FFFC0
0FFFF83FFFE0
0FFFF83FFFE0
0FFFF03FFFE0
0FFFF03FFFE0
0FFFF03FFFE0
0FFFF03FFFE0
1FFFF03FFFE0
1FFFF01FFFE0
1FFFF01FFFE0
1FFFF01FFFE0
1FFFF01FFFE0
1FFFF01FFFF0
1FFFF01FFFF0
1FFFF01FFFF0
1FFFF01FFFF0
1FFFF01FFFF0
1FFFE01FFFF0
3FFFE01FFFF0
3FFFFFFFFFF0
3FFFFFFFFFF0
3FFFFFFFFFF0
3FFFFFFFFFF8
3FFFFFFFFFF8
3FFFFFFFFFF8
3FFFFFFFFFF8
3FFFFFFFFFF8
3FFFFFFFFFF8
7FFFFFFFFFF8
7FFFFFFFFFF8
7FFFFFFFFFF8
7FFFFFFFFFF8
7FFFFFFFFFF8
7FFFC007FFFC
7FFFC007FFFC
7FFFC007FFFC
7FFFC007FFFC
7FFFC007FFFC
FFFFC007FFFC
FFFFC007FFFC
FFFF8007FFFC
FFFF8007FFFC
FFFF8003FFFC
FFFF8003FFFE
FFFF8003FFFE
FFFF8003FFFE
FFFF8003FFFE
FFFF8003FFFE
ENDCHAR
STARTCHAR Adieresis
ENCODING 196
SWIDTH 485 0
DWIDTH 50 0
BBX 47 109 2 0
BITMAP
7FFFF03FFFF0
7FFFF03FFFF0
7FFFF03FFFF0
7FFFF03FFFF0
7FFFF03FFFF0
7FFFF03FFFF0
7FFFF03FFFF0
7FFFF03FFFF0
7FFFF03FFFF0
7FFFF03FFFF0
7FFFF03FFFF0
7FFFF03FFFF0
7FFFF03FFFF0
7FFFF03FFFF0
7FFFF03FFFF0
000000000000
000000000000
000000000000
000000000000
000000000000
00FFFFFFFE00
00FFFFFFFE00
00FFFFFFFE00
00FFFFFFFE00
00FFFFFFFE00
00FFFFFFFE00
00FFFFFFFE00
01FFFFFFFE00
01FFFFFFFE00
01FFFFFFFE00
01FFFFFFFE00
01FFFFFFFF00
01FFFFFFFF00
01FFFFFFFF00
01FFFFFFFF00
01FFFEFFFF00
01FFFEFFFF00
03FFFCFFFF00
03FFFCFFFF00
03FFFCFFFF00
03FFFCFFFF00
03FFFCFFFF80
03FFFCFFFF80
03FFFCFFFF80
03FFFCFFFF80
03FFFCFFFF80
03FFFCFFFF80
03FFFC7FFF80
07FFFC7FFF80
07FFFC7FFF80
07FFFC7FFF80
07FFF87FFF80
07FFF87FFFC0
07FFF87FFFC0
07FFF87FFFC0
07FFF87FFFC0
07FFF87FFFC0
07FFF87FFFC0
0FFFF83FFFC0
0FFFF83FFFC0
0FFFF83FFFC0
0FFFF83FFFC0
0FFFF83FFFE0
0FFFF83FFFE0
0FFFF03FFFE0
0FFFF03FFFE0
0FFFF03FFFE0
0FFFF03FFFE0
1FFFF03FFFE0
1FFFF01FFFE0
1FFFF01FFFE0
1FFFF01FFFE0
1FFFF01FFFE0
1FFFF01FFFF0
1FFFF01FFFF0
1FFFF01FFFF0
1FFFF01FFFF0
1FFFF01FFFF0
1FFFE01FFFF0
3FFFE01FFFF0
3FFFFFFFFFF0
3FFFFFFFFFF0
3FFFFFFFFFF0
3FFFFFFFFFF8
3FFFFFFFFFF8
3FFFFFFFFFF8
3FFFFFFFFFF8
3FFFFFFFFFF8
3FFFFFFFFFF8
7FFFFFFFFFF8
7FFFFFFFFFF8
7FFFFFFFFFF8
7FFFFFFFFFF8
7FFFFFFFFFF8
7FFFC007FFFC
7FFFC007FFFC
7FFFC007FFFC
7FFFC007FFFC
7FFFC007FFFC
FFFFC007FFFC
FFFFC007FFFC
FFFF8007FFFC
FFFF8007FFFC
FFFF8003FFFC
FFFF8003FFFE
FFFF8003FFFE
FFFF8003FFFE
FFFF8003FFFE
FFFF8003FFFE
ENDCHAR
STARTCHAR Aring
ENCODING 197
SWIDTH 485 0
DWIDTH 50 0
BBX 47 127 2 0
BITMAP
00003FF00000
0003FFFE0000
000FFFFF8000
001FFFFFE000
003FFFFFF000
007FFFFFF800
00FFFFFFFC00
01FFFFFFFC00
01FFFFFFFE00
03FFF07FFE00
03FFC01FFF00
07FF800FFF00
07FF8007FF00
07FF0007FF00
07FF0003FF80
07FF0003FF80
07FF0003FF80
07FF0003FF80
07FF0003FF80
07FF0003FF80
07FF0007FF00
07FF8007FF00
07FF800FFF00
03FFC01FFF00
03FFF07FFE00
01FFFFFFFE00
01FFFFFFFC00
00FFFFFFFC00
007FFFFFF800
003FFFFFF000
001FFFFFE000
000FFFFF8000
0003FFFE0000
00003FF00000
000000000000
000000000000
000000000000
000000000000
00FFFFFFFE00
00FFFFFFFE00
00FFFFFFFE00
00FFFFFFFE00
00FFFFFFFE00
00FFFFFFFE00
00FFFFFFFE00
01FFFFFFFE00
01FFFFFFFE00
01FFFFFFFE00
01FFFFFFFE00
01FFFFFFFF00
01FFFFFFFF00
01FFFFFFFF00
01FFFFFFFF00
01FFFEFFFF00
01FFFEFFFF00
03FFFCFFFF00
03FFFCFFFF00
03FFFCFFFF00
03FFFCFFFF00
03FFFCFFFF80
03FFFCFFFF80
03FFFCFFFF80
03FFFCFFFF80
03FFFCFFFF80
03FFFCFFFF80
03FFFC7FFF80
07FFFC7FFF80
07FFFC7FFF80
07FFFC7FFF80
07FFF87FFF80
07FFF87FFFC0
07FFF87FFFC0
07FFF87FFFC0
07FFF87FFFC0
07FFF87FFFC0
07FFF87FFFC0
0FFFF83FFFC0
0FFFF83FFFC0
0FFFF83FFFC0
0FFFF83FFFC0
0FFFF83FFFE0
0FFFF83FFFE0
0FFFF03FFFE0
0FFFF03FFFE0
0FFFF03FFFE0
0FFFF03FFFE0
1FFFF03FFFE0
1FFFF01FFFE0
1FFFF01FFFE0
1FFFF01FFFE0
1FFFF01FFFE0
1FFFF01FFFF0
1FFFF01FFFF0
1FFFF01FFFF0
1FFFF01FFFF0
1FFFF01FFFF0
1FFFE01FFFF0
3FFFE01FFFF0
3FFFFFFFFFF0
3FFFFFFFFFF0
3FFFFFFFFFF0
3FFFFFFFFFF8
3FFFFFFFFFF8
3FFFFFFFFFF8
3FFFFFFFFFF8
3FFFFFFFFFF8
3FFFFFFFFFF8
7FFFFFFFFFF8
7FFFFFFFFFF8
7FFFFFFFFFF8
7FFFFFFFFFF8
7FFFFFFFFFF8
7FFFC007FFFC
7FFFC007FFFC
7FFFC007FFFC
7FFFC007FFFC
7FFFC007FFFC
FFFFC007FFFC
FFFFC007FFFC
FFFF8007FFFC
FFFF8007FFFC
FFFF8003FFFC
FFFF8003FFFE
FFFF8003FFFE
FFFF8003FFFE
FFFF8003FFFE
FFFF8003FFFE
ENDCHAR
STARTCHAR AE
ENCODING 198
SWIDTH 640 0
DWIDTH 67 0
BBX 67 89 -2 0
BITMAP
0000FFFFFFFFFFFF80
0000FFFFFFFFFFFF80
0000FFFFFFFFFFFF80
0001FFFFFFFFFFFF80
0001FFFFFFFFFFFF80
0001FFFFFFFFFFFF80
0001FFFFFFFFFFFF80
0001FFFFFFFFFFFF80
0003FFFFFFFFFFFF80
0003FFFFFFFFFFFF80
0003FFFFFFFFFFFF80
0003FFFFFFFFFFFF80
0003FFFFFFFFFFFF80
0003FFFFFFFFFFFF80
0007FFFFFFFFFFFF80
0007FFFE7FFFFFFF80
0007FFFC7FFFE00000
0007FFFC7FFFE00000
0007FFFC7FFFE00000
000FFFFC7FFFE00000
000FFFFC7FFFE00000
000FFFFC7FFFE00000
000FFFFC7FFFE00000
000FFFF87FFFE00000
000FFFF87FFFE00000
001FFFF87FFFE00000
001FFFF87FFFE00000
001FFFF87FFFE00000
001FFFF87FFFE00000
001FFFF07FFFE00000
003FFFF07FFFE00000
003FFFF07FFFE00000
003FFFF07FFFE00000
003FFFF07FFFE00000
003FFFF07FFFE00000
003FFFF07FFFE00000
007FFFE07FFFFFFF80
007FFFE07FFFFFFF80
007FFFE07FFFFFFF80
007FFFE07FFFFFFF80
007FFFE07FFFFFFF80
00FFFFE07FFFFFFF80
00FFFFE07FFFFFFF80
00FFFFC07FFFFFFF80
00FFFFC07FFFFFFF80
00FFFFC07FFFFFFF80
00FFFFC07FFFFFFF80
01FFFFC07FFFFFFF80
01FFFFC07FFFFFFF80
01FFFFC07FFFFFFF80
01FFFFFFFFFFFFFF80
01FFFFFFFFFFE00000
03FFFFFFFFFFE00000
03FFFFFFFFFFE00000
03FFFFFFFFFFE00000
03FFFFFFFFFFE00000
03FFFFFFFFFFE00000
03FFFFFFFFFFE00000
07FFFFFFFFFFE00000
07FFFFFFFFFFE00000
07FFFFFFFFFFE00000
07FFFFFFFFFFE00000
07FFFFFFFFFFE00000
0FFFFFFFFFFFE00000
0FFFFFFFFFFFE00000
0FFFFE003FFFE00000
0FFFFE003FFFE00000
0FFFFE003FFFE00000
0FFFFE003FFFE00000
1FFFFC003FFFE00000
1FFFFC003FFFE00000
1FFFFC003FFFE00000
1FFFFC003FFFE00000
1FFFFC003FFFFFFFE0
3FFFFC003FFFFFFFE0
3FFFF8003FFFFFFFE0
3FFFF8003FFFFFFFE0
3FFFF8003FFFFFFFE0
3FFFF8003FFFFFFFE0
3FFFF8003FFFFFFFE0
7FFFF8003FFFFFFFE0
7FFFF0003FFFFFFFE0
7FFFF0003FFFFFFFE0
7FFFF0003FFFFFFFE0
7FFFF0003FFFFFFFE0
FFFFF0003FFFFFFFE0
FFFFF0003FFFFFFFE0
FFFFE0003FFFFFFFE0
FFFFE0003FFFFFFFE0
ENDCHAR
STARTCHAR Ccedilla
ENCODING 199
SWIDTH 474 0
DWIDTH 49 0
BBX 44 122 3 -32
BITMAP
00007FF00000
0007FFFE0000
001FFFFFC000
007FFFFFF000
00FFFFFFF800
01FFFFFFFC00
03FFFFFFFE00
07FFFFFFFF00
0FFFFFFFFF80
0FFFFFFFFF80
1FFFFFFFFFC0
1FFFFFFFFFC0
3FFFFFFFFFE0
3FFFFFFFFFE0
3FFFFFFFFFE0
7FFFFFFFFFF0
7FFFF0FFFFF0
7FFFE07FFFF0
7FFFE03FFFF0
7FFFC03FFFF0
7FFFC03FFFF0
FFFFC03FFFF0
FFFFC03FFFF0
FFFFC03FFFF0
FFFFC03FFFF0
FFFFC03FFFF0
FFFFC03FFFF0
FFFFC03FFFF0
FFFFC03FFFF0
FFFFC03FFFF0
FFFFC03FFFF0
FFFFC03FFFF0
FFFFC03FFFF0
FFFFC03FFFF0
FFFFC03FFFF0
FFFFC03FFFF0
FFFFC0000000
FFFFC0000000
FFFFC0000000
FFFFC0000000
FFFFC0000000
FFFFC0000000
FFFFC0000000
FFFFC0000000
FFFFC0000000
FFFFC0000000
FFFFC0000000
FFFFC0000000
FFFFC0000000
FFFFC0000000
FFFFC0000000
FFFFC03FFFF0
FFFFC03FFFF0
FFFFC03FFFF0
FFFFC03FFFF0
FFFFC03FFFF0
FFFFC03FFFF0
FFFFC03FFFF0
FFFFC03FFFF0
FFFFC03FFFF0
FFFFC03FFFF0
FFFFC03FFFF0
FFFFC03FFFF0
FFFFC03FFFF0
FFFFC03FFFF0
FFFFC03FFFF0
FFFFC03FFFF0
FFFFC03FFFF0
FFFFC03FFFF0
FFFFC03FFFF0
FFFFC03FFFF0
FFFFC03FFFF0
FFFFE07FFFF0
7FFFF07FFFF0
7FFFFFFFFFF0
7FFFFFFFFFF0
7FFFFFFFFFE0
3FFFFFFFFFE0
3FFFFFFFFFE0
3FFFFFFFFFC0
1FFFFFFFFFC0
0FFFFFFFFFC0
0FFFFFFFFF80
07FFFFFFFF00
03FFFFFFFE00
01FFFFFFFE00
00FFFFFFF800
007FFFFFF000
001FFFFFC000
0007FFFF0000
00007FF00000
00003FE00000
00001FF00000
00001FF80000
00000FF80000
00000FFC0000
000007FE0000
000007FF0000
000007FF0000
000003FF8000
000003FF8000
000003FFC000
000003FFC000
000003FFE000
000003FFE000
000003FFE000
000003FFE000
000003FFF000
000007FFF000
00381FFFF000
003FFFFFF000
003FFFFFF000
003FFFFFE000
003FFFFFE000
003FFFFFE000
003FFFFFC000
003FFFFFC000
003FFFFF8000
003FFFFF0000
003FFFFE0000
000FFFF80000
0001FFC00000
ENDCHAR
STARTCHAR Egrave
ENCODING 200
SWIDTH 412 0
DWIDTH 43 0
BBX 37 114 4 0
BITMAP
0300000000
03C0000000
03F0000000
03FC000000
03FF800000
03FFE00000
03FFF80000
03FFFE0000
03FFFF8000
03FFFFE000
03FFFFFC00
03FFFFFC00
03FFFFFC00
03FFFFFC00
03FFFFFC00
03FFFFFC00
03FFFFFC00
01FFFFFC00
000FFFFC00
00007FFC00
000003FC00
0000001C00
0000000000
0000000000
0000000000
FFFFFFFFF0
FFFFFFFFF0
FFFFFFFFF0
FFFFFFFFF0
FFFFFFFFF0
FFFFFFFFF0
FFFFFFFFF0
FFFFFFFFF0
FFFFFFFFF0
FFFFFFFFF0
FFFFFFFFF0
FFFFFFFFF0
FFFFFFFFF0
FFFFFFFFF0
FFFFFFFFF0
FFFFFFFFF0
FFFFFFFFF0
FFFFC00000
FFFFC00000
FFFFC00000
FFFFC00000
FFFFC00000
FFFFC00000
FFFFC00000
FFFFC00000
FFFFC00000
FFFFC00000
FFFFC00000
FFFFC00000
FFFFC00000
FFFFC00000
FFFFC00000
FFFFC00000
FFFFC00000
FFFFFFFFE0
FFFFFFFFE0
FFFFFFFFE0
FFFFFFFFE0
FFFFFFFFE0
FFFFFFFFE0
FFFFFFFFE0
FFFFFFFFE0
FFFFFFFFE0
FFFFFFFFE0
FFFFFFFFE0
FFFFFFFFE0
FFFFFFFFE0
FFFFFFFFE0
FFFFFFFFE0
FFFFFFFFE0
FFFFFFFFE0
FFFFC00000
FFFFC00000
FFFFC00000
FFFFC00000
FFFFC00000
FFFFC00000
FFFFC00000
FFFFC00000
FFFFC00000
FFFFC00000
FFFFC00000
FFFFC00000
FFFFC00000
FFFFC00000
FFFFC00000
FFFFC00000
FFFFC00000
FFFFC00000
FFFFC00000
FFFFC00000
FFFFC00000
FFFFFFFFF8
FFFFFFFFF8
FFFFFFFFF8
FFFFFFFFF8
FFFFFFFFF8
FFFFFFFFF8
FFFFFFFFF8
FFFFFFFFF8
FFFFFFFFF8
FFFFFFFFF8
FFFFFFFFF8
FFFFFFFFF8
FFFFFFFFF8
FFFFFFFFF8
FFFFFFFFF8
FFFFFFFFF8
FFFFFFFFF8
ENDCHAR
STARTCHAR Eacute
ENCODING 201
SWIDTH 412 0
DWIDTH 43 0
BBX 37 114 4 0
BITMAP
0000000600
0000001E00
0000007E00
000003FE00
00000FFE00
00003FFE00
0000FFFE00
0003FFFE00
000FFFFE00
007FFFFE00
01FFFFFE00
01FFFFFE00
01FFFFFE00
01FFFFFE00
01FFFFFE00
01FFFFFE00
01FFFFFE00
01FFFFFC00
01FFFF8000
01FFF00000
01FE000000
01C0000000
0000000000
0000000000
0000000000
FFFFFFFFF0
FFFFFFFFF0
FFFFFFFFF0
FFFFFFFFF0
FFFFFFFFF0
FFFFFFFFF0
FFFFFFFFF0
FFFFFFFFF0
FFFFFFFFF0
FFFFFFFFF0
FFFFFFFFF0
FFFFFFFFF0
FFFFFFFFF0
FFFFFFFFF0
FFFFFFFFF0
FFFFFFFFF0
FFFFFFFFF0
FFFFC00000
FFFFC00000
FFFFC00000
FFFFC00000
FFFFC00000
FFFFC00000
FFFFC00000
FFFFC00000
FFFFC00000
FFFFC00000
FFFFC00000
FFFFC00000
FFFFC00000
FFFFC00000
FFFFC00000
FFFFC00000
FFFFC00000
FFFFFFFFE0
FFFFFFFFE0
FFFFFFFFE0
FFFFFFFFE0
FFFFFFFFE0
FFFFFFFFE0
FFFFFFFFE0
FFFFFFFFE0
FFFFFFFFE0
FFFFFFFFE0
FFFFFFFFE0
FFFFFFFFE0
FFFFFFFFE0
FFFFFFFFE0
FFFFFFFFE0
FFFFFFFFE0
FFFFFFFFE0
FFFFC00000
FFFFC00000
FFFFC00000
FFFFC00000
FFFFC00000
FFFFC00000
FFFFC00000
FFFFC00000
FFFFC00000
FFFFC00000
FFFFC00000
FFFFC00000
FFFFC00000
FFFFC00000
FFFFC00000
FFFFC00000
FFFFC00000
FFFFC00000
FFFFC00000
FFFFC00000
FFFFC00000
FFFFFFFFF8
FFFFFFFFF8
FFFFFFFFF8
FFFFFFFFF8
FFFFFFFFF8
FFFFFFFFF8
FFFFFFFFF8
FFFFFFFFF8
FFFFFFFFF8
FFFFFFFFF8
FFFFFFFFF8
FFFFFFFFF8
FFFFFFFFF8
FFFFFFFFF8
FFFFFFFFF8
FFFFFFFFF8
FFFFFFFFF8
ENDCHAR
STARTCHAR Ecircumflex
ENCODING 202
SWIDTH 412 0
DWIDTH 43 0
BBX 45 114 0 0
BITMAP
000FFFFF8000
001FFFFFC000
001FFFFFC000
003FFFFFE000
007FFFFFF000
007FFFFFF000
00FFFDFFF800
00FFFDFFFC00
01FFFDFFFC00
03FFFCFFFE00
03FFF8FFFE00
07FFF8FFFF00
07FFF87FFF80
0FFFF07FFF80
1FFFF07FFFC0
1FFFF03FFFC0
3FFFE03FFFE0
3FFFE03FFFF0
7FFFE01FFFF0
FFFFC01FFFF8
000000000000
000000000000
000000000000
000000000000
000000000000
0FFFFFFFFF00
0FFFFFFFFF00
0FFFFFFFFF00
0FFFFFFFFF00
0FFFFFFFFF00
0FFFFFFFFF00
0FFFFFFFFF00
0FFFFFFFFF00
0FFFFFFFFF00
0FFFFFFFFF00
0FFFFFFFFF00
0FFFFFFFFF00
0FFFFFFFFF00
0FFFFFFFFF00
0FFFFFFFFF00
0FFFFFFFFF00
0FFFFFFFFF00
0FFFFC000000
0FFFFC000000
0FFFFC000000
0FFFFC000000
0FFFFC000000
0FFFFC000000
0FFFFC000000
0FFFFC000000
0FFFFC000000
0FFFFC000000
0FFFFC000000
0FFFFC000000
0FFFFC000000
0FFFFC000000
0FFFFC000000
0FFFFC000000
0FFFFC000000
0FFFFFFFFE00
0FFFFFFFFE00
0FFFFFFFFE00
0FFFFFFFFE00
0FFFFFFFFE00
0FFFFFFFFE00
0FFFFFFFFE00
0FFFFFFFFE00
0FFFFFFFFE00
0FFFFFFFFE00
0FFFFFFFFE00
0FFFFFFFFE00
0FFFFFFFFE00
0FFFFFFFFE00
0FFFFFFFFE00
0FFFFFFFFE00
0FFFFFFFFE00
0FFFFC000000
0FFFFC000000
0FFFFC000000
0FFFFC000000
0FFFFC000000
0FFFFC000000
0FFFFC000000
0FFFFC000000
0FFFFC000000
0FFFFC000000
0FFFFC000000
0FFFFC000000
0FFFFC000000
0FFFFC000000
0FFFFC000000
0FFFFC000000
0FFFFC000000
0FFFFC000000
0FFFFC000000
0FFFFC000000
0FFFFC000000
0FFFFFFFFF80
0FFFFFFFFF80
0FFFFFFFFF80
0FFFFFFFFF80
0FFFFFFFFF80
0FFFFFFFFF80
0FFFFFFFFF80
0FFFFFFFFF80
0FFFFFFFFF80
0FFFFFFFFF80
0FFFFFFFFF80
0FFFFFFFFF80
0FFFFFFFFF80
0FFFFFFFFF80
0FFFFFFFFF80
0FFFFFFFFF80
0FFFFFFFFF80
ENDCHAR
STARTCHAR Edieresis
ENCODING 203
SWIDTH 412 0
DWIDTH 43 0
BBX 43 109 1 0
BITMAP
FFFFE07FFFE0
FFFFE07FFFE0
FFFFE07FFFE0
FFFFE07FFFE0
FFFFE07FFFE0
FFFFE07FFFE0
FFFFE07FFFE0
FFFFE07FFFE0
FFFFE07FFFE0
FFFFE07FFFE0
FFFFE07FFFE0
FFFFE07FFFE0
FFFFE07FFFE0
FFFFE07FFFE0
FFFFE07FFFE0
000000000000
000000000000
000000000000
000000000000
000000000000
1FFFFFFFFE00
1FFFFFFFFE00
1FFFFFFFFE00
1FFFFFFFFE00
1FFFFFFFFE00
1FFFFFFFFE00
1FFFFFFFFE00
1FFFFFFFFE00
1FFFFFFFFE00
1FFFFFFFFE00
1FFFFFFFFE00
1FFFFFFFFE00
1FFFFFFFFE00
1FFFFFFFFE00
1FFFFFFFFE00
1FFFFFFFFE00
1FFFFFFFFE00
1FFFF8000000
1FFFF8000000
1FFFF8000000
1FFFF8000000
1FFFF8000000
1FFFF8000000
1FFFF8000000
1FFFF8000000
1FFFF8000000
1FFFF8000000
1FFFF8000000
1FFFF8000000
1FFFF8000000
1FFFF8000000
1FFFF8000000
1FFFF8000000
1FFFF8000000
1FFFFFFFFC00
1FFFFFFFFC00
1FFFFFFFFC00
1FFFFFFFFC00
1FFFFFFFFC00
1FFFFFFFFC00
1FFFFFFFFC00
1FFFFFFFFC00
1FFFFFFFFC00
1FFFFFFFFC00
1FFFFFFFFC00
1FFFFFFFFC00
1FFFFFFFFC00
1FFFFFFFFC00
1FFFFFFFFC00
1FFFFFFFFC00
1FFFFFFFFC00
1FFFF8000000
1FFFF8000000
1FFFF8000000
1FFFF8000000
1FFFF8000000
1FFFF8000000
1FFFF8000000
1FFFF8000000
1FFFF8000000
1FFFF8000000
1FFFF8000000
1FFFF8000000
1FFFF8000000
1FFFF8000000
1FFFF8000000
1FFFF8000000
1FFFF8000000
1FFFF8000000
1FFFF8000000
1FFFF8000000
1FFFF8000000
1FFFFFFFFF00
1FFFFFFFFF00
1FFFFFFFFF00
1FFFFFFFFF00
1FFFFFFFFF00
1FFFFFFFFF00
1FFFFFFFFF00
1FFFFFFFFF00
1FFFFFFFFF00
1FFFFFFFFF00
1FFFFFFFFF00
1FFFFFFFFF00
1FFFFFFFFF00
1FFFFFFFFF00
1FFFFFFFFF00
1FFFFFFFFF00
1FFFFFFFFF00
ENDCHAR
STARTCHAR Igrave
ENCODING 204
SWIDTH 227 0
DWIDTH 24 0
BBX 24 114 0 0
BITMAP
C00000
F00000
FC0000
FF0000
FFE000
FFF800
FFFE00
FFFF80
FFFFE0
FFFFF8
FFFFFF
FFFFFF
FFFFFF
FFFFFF
FFFFFF
FFFFFF
FFFFFF
7FFFFF
03FFFF
001FFF
0000FF
000007
000000
000000
000000
1FFFF0
1FFFF0
1FFFF0
1FFFF0
1FFFF0
1FFFF0
1FFFF0
1FFFF0
1FFFF0
1FFFF0
1FFFF0
1FFFF0
1FFFF0
1FFFF0
1FFFF0
1FFFF0
1FFFF0
1FFFF0
1FFFF0
1FFFF0
1FFFF0
1FFFF0
1FFFF0
1FFFF0
1FFFF0
1FFFF0
1FFFF0
1FFFF0
1FFFF0
1FFFF0
1FFFF0
1FFFF0
1FFFF0
1FFFF0
1FFFF0
1FFFF0
1FFFF0
1FFFF0
1FFFF0
1FFFF0
1FFFF0
1FFFF0
1FFFF0
1FFFF0
1FFFF0
1FFFF0
1FFFF0
1FFFF0
1FFFF0
1FFFF0
1FFFF0
1FFFF0
1FFFF0
1FFFF0
1FFFF0
1FFFF0
1FFFF0
1FFFF0
1FFFF0
1FFFF0
1FFFF0
1FFFF0
1FFFF0
1FFFF0
1FFFF0
1FFFF0
1FFFF0
1FFFF0
1FFFF0
1FFFF0
1FFFF0
1FFFF0
1FFFF0
1FFFF0
1FFFF0
1FFFF0
1FFFF0
1FFFF0
1FFFF0
1FFFF0
1FFFF0
1FFFF0
1FFFF0
1FFFF0
1FFFF0
1FFFF0
1FFFF0
1FFFF0
1FFFF0
ENDCHAR
STARTCHAR Iacute
ENCODING 205
SWIDTH 227 0
DWIDTH 24 0
BBX 24 114 0 0
BITMAP
000003
00000F
00003F
0001FF
0007FF
001FFF
007FFF
01FFFF
07FFFF
3FFFFF
FFFFFF
FFFFFF
FFFFFF
FFFFFF
FFFFFF
FFFFFF
FFFFFF
FFFFFE
FFFFC0
FFF800
FF0000
E00000
000000
000000
000000
1FFFF0
1FFFF0
1FFFF0
1FFFF0
1FFFF0
1FFFF0
1FFFF0
1FFFF0
1FFFF0
1FFFF0
1FFFF0
1FFFF0
1FFFF0
1FFFF0
1FFFF0
1FFFF0
1FFFF0
1FFFF0
1FFFF0
1FFFF0
1FFFF0
1FFFF0
1FFFF0
1FFFF0
1FFFF0
1FFFF0
1FFFF0
1FFFF0
1FFFF0
1FFFF0
1FFFF0
1FFFF0
1FFFF0
1FFFF0
1FFFF0
1FFFF0
1FFFF0
1FFFF0
1FFFF0
1FFFF0
1FFFF0
1FFFF0
1FFFF0
1FFFF0
1FFFF0
1FFFF0
1FFFF0
1FFFF0
1FFFF0
1FFFF0
1FFFF0
1FFFF0
1FFFF0
1FFFF0
1FFFF0
1FFFF0
1FFFF0
1FFFF0
1FFFF0
1FFFF0
1FFFF0
1FFFF0
1FFFF0
1FFFF0
1FFFF0
1FFFF0
1FFFF0
1FFFF0
1FFFF0
1FFFF0
1FFFF0
1FFFF0
1FFFF0
1FFFF0
1FFFF0
1FFFF0
1FFFF0
1FFFF0
1FFFF0
1FFFF0
1FFFF0
1FFFF0
1FFFF0
1FFFF0
1FFFF0
1FFFF0
1FFFF0
1FFFF0
1FFFF0
ENDCHAR
STARTCHAR Icircumflex
ENCODING 206
SWIDTH 227 0
DWIDTH 24 0
BBX 45 114 -11 0
BITMAP
000FFFFF8000
001FFFFFC000
001FFFFFC000
003FFFFFE000
007FFFFFF000
007FFFFFF000
00FFFDFFF800
00FFFDFFFC00
01FFFDFFFC00
03FFFCFFFE00
03FFF8FFFE00
07FFF8FFFF00
07FFF87FFF80
0FFFF07FFF80
1FFFF07FFFC0
1FFFF03FFFC0
3FFFE03FFFE0
3FFFE03FFFF0
7FFFE01FFFF0
FFFFC01FFFF8
000000000000
000000000000
000000000000
000000000000
000000000000
0003FFFE0000
0003FFFE0000
0003FFFE0000
0003FFFE0000
0003FFFE0000
0003FFFE0000
0003FFFE0000
0003FFFE0000
0003FFFE0000
0003FFFE0000
0003FFFE0000
0003FFFE0000
0003FFFE0000
0003FFFE0000
0003FFFE0000
0003FFFE0000
0003FFFE0000
0003FFFE0000
0003FFFE0000
0003FFFE0000
0003FFFE0000
0003FFFE0000
0003FFFE0000
0003FFFE0000
0003FFFE0000
0003FFFE0000
0003FFFE0000
0003FFFE0000
0003FFFE0000
0003FFFE0000
0003FFFE0000
0003FFFE0000
0003FFFE0000
0003FFFE0000
0003FFFE0000
0003FFFE0000
0003FFFE0000
0003FFFE0000
0003FFFE0000
0003FFFE0000
0003FFFE0000
0003FFFE0000
0003FFFE0000
0003FFFE0000
0003FFFE0000
0003FFFE0000
0003FFFE0000
0003FFFE0000
0003FFFE0000
0003FFFE0000
0003FFFE0000
0003FFFE0000
0003FFFE0000
0003FFFE0000
0003FFFE0000
0003FFFE0000
0003FFFE0000
0003FFFE0000
0003FFFE0000
0003FFFE0000
0003FFFE0000
0003FFFE0000
0003FFFE0000
0003FFFE0000
0003FFFE0000
0003FFFE0000
0003FFFE0000
0003FFFE0000
0003FFFE0000
0003FFFE0000
0003FFFE0000
0003FFFE0000
0003FFFE0000
0003FFFE0000
0003FFFE0000
0003FFFE0000
0003FFFE0000
0003FFFE0000
0003FFFE0000
0003FFFE0000
0003FFFE0000
0003FFFE0000
0003FFFE0000
0003FFFE0000
0003FFFE0000
0003FFFE0000
0003FFFE0000
0003FFFE0000
0003FFFE0000
ENDCHAR
STARTCHAR Idieresis
ENCODING 207
SWIDTH 227 0
DWIDTH 24 0
BBX 43 109 -10 0
BITMAP
FFFFE07FFFE0
FFFFE07FFFE0
FFFFE07FFFE0
FFFFE07FFFE0
FFFFE07FFFE0
FFFFE07FFFE0
FFFFE07FFFE0
FFFFE07FFFE0
FFFFE07FFFE0
FFFFE07FFFE0
FFFFE07FFFE0
FFFFE07FFFE0
FFFFE07FFFE0
FFFFE07FFFE0
FFFFE07FFFE0
000000000000
000000000000
000000000000
000000000000
000000000000
0007FFFC0000
0007FFFC0000
0007FFFC0000
0007FFFC0000
0007FFFC0000
0007FFFC0000
0007FFFC0000
0007FFFC0000
0007FFFC0000
0007FFFC0000
0007FFFC0000
0007FFFC0000
0007FFFC0000
0007FFFC0000
0007FFFC0000
0007FFFC0000
0007FFFC0000
0007FFFC0000
0007FFFC0000
0007FFFC0000
0007FFFC0000
0007FFFC0000
0007FFFC0000
0007FFFC0000
0007FFFC0000
0007FFFC0000
0007FFFC0000
0007FFFC0000
0007FFFC0000
0007FFFC0000
0007FFFC0000
0007FFFC0000
0007FFFC0000
0007FFFC0000
0007FFFC0000
0007FFFC0000
0007FFFC0000
0007FFFC0000
0007FFFC0000
0007FFFC0000
0007FFFC0000
0007FFFC0000
0007FFFC0000
0007FFFC0000
0007FFFC0000
0007FFFC0000
0007FFFC0000
0007FFFC0000
0007FFFC0000
0007FFFC0000
0007FFFC0000
0007FFFC0000
0007FFFC0000
0007FFFC0000
0007FFFC0000
0007FFFC0000
0007FFFC0000
0007FFFC0000
0007FFFC0000
0007FFFC0000
0007FFFC0000
0007FFFC0000
0007FFFC0000
0007FFFC0000
0007FFFC0000
0007FFFC0000
0007FFFC0000
0007FFFC0000
0007FFFC0000
0007FFFC0000
0007FFFC0000
0007FFFC0000
0007FFFC0000
0007FFFC0000
0007FFFC0000
0007FFFC0000
0007FFFC0000
0007FFFC0000
0007FFFC0000
0007FFFC0000
0007FFFC0000
0007FFFC0000
0007FFFC0000
0007FFFC0000
0007FFFC0000
0007FFFC0000
0007FFFC0000
0007FFFC0000
0007FFFC0000
ENDCHAR
STARTCHAR Eth
ENCODING 208
SWIDTH 493 0
DWIDTH 51 0
BBX 48 89 0 0
BITMAP
0FFFFFFFC000
0FFFFFFFF800
0FFFFFFFFE00
0FFFFFFFFF80
0FFFFFFFFFC0
0FFFFFFFFFE0
0FFFFFFFFFF0
0FFFFFFFFFF8
0FFFFFFFFFF8
0FFFFFFFFFFC
0FFFFFFFFFFC
0FFFFFFFFFFC
0FFFFFFFFFFE
0FFFFFFFFFFE
0FFFFFFFFFFE
0FFFFFFFFFFE
0FFFFC0FFFFF
0FFFFC07FFFF
0FFFFC07FFFF
0FFFFC03FFFF
0FFFFC03FFFF
0FFFFC03FFFF
0FFFFC03FFFF
0FFFFC03FFFF
0FFFFC03FFFF
0FFFFC03FFFF
0FFFFC03FFFF
0FFFFC03FFFF
0FFFFC03FFFF
0FFFFC03FFFF
0FFFFC03FFFF
0FFFFC03FFFF
0FFFFC03FFFF
0FFFFC03FFFF
0FFFFC03FFFF
0FFFFC03FFFF
FFFFFFC3FFFF
FFFFFFC3FFFF
FFFFFFC3FFFF
FFFFFFC3FFFF
FFFFFFC3FFFF
FFFFFFC3FFFF
FFFFFFC3FFFF
FFFFFFC3FFFF
FFFFFFC3FFFF
FFFFFFC3FFFF
FFFFFFC3FFFF
FFFFFFC3FFFF
0FFFFC03FFFF
0FFFFC03FFFF
0FFFFC03FFFF
0FFFFC03FFFF
0FFFFC03FFFF
0FFFFC03FFFF
0FFFFC03FFFF
0FFFFC03FFFF
0FFFFC03FFFF
0FFFFC03FFFF
0FFFFC03FFFF
0FFFFC03FFFF
0FFFFC03FFFF
0FFFFC03FFFF
0FFFFC03FFFF
0FFFFC03FFFF
0FFFFC03FFFF
0FFFFC03FFFF
0FFFFC03FFFF
0FFFFC03FFFF
0FFFFC03FFFF
0FFFFC03FFFF
0FFFFC03FFFF
0FFFFC07FFFE
0FFFFC0FFFFE
0FFFFFFFFFFE
0FFFFFFFFFFE
0FFFFFFFFFFE
0FFFFFFFFFFC
0FFFFFFFFFFC
0FFFFFFFFFFC
0FFFFFFFFFF8
0FFFFFFFFFF8
0FFFFFFFFFF0
0FFFFFFFFFE0
0FFFFFFFFFE0
0FFFFFFFFFC0
0FFFFFFFFF00
0FFFFFFFFE00
0FFFFFFFF800
0FFFFFFF8000
ENDCHAR
STARTCHAR Ntilde
ENCODING 209
SWIDTH 498 0
DWIDTH 52 0
BBX 44 111 4 0
BITMAP
003FC0001000
00FFFC003C00
01FFFF803FC0
03FFFFF0FFE0
07FFFFFFFFE0
0FFFFFFFFFE0
0FFFFFFFFFC0
1FFFFFFFFFC0
1FFFFFFFFF80
3FFFFFFFFF80
3FFFFFFFFF00
7FFFFFFFFF00
0FF07FFFFE00
03C00FFFFC00
008001FFF000
0000003FC000
000000000000
000000000000
000000000000
000000000000
000000000000
000000000000
FFFFC01FFFF0
FFFFE01FFFF0
FFFFE01FFFF0
FFFFE01FFFF0
FFFFE01FFFF0
FFFFE01FFFF0
FFFFF01FFFF0
FFFFF01FFFF0
FFFFF01FFFF0
FFFFF01FFFF0
FFFFF01FFFF0
FFFFF81FFFF0
FFFFF81FFFF0
FFFFF81FFFF0
FFFFF81FFFF0
FFFFF81FFFF0
FFFFFC1FFFF0
FFFFFC1FFFF0
FFFFFC1FFFF0
FFFFFC1FFFF0
FFFFFC1FFFF0
FFFFFC1FFFF0
FFFFFE1FFFF0
FFFFFE1FFFF0
FFFFFE1FFFF0
FFFFFE1FFFF0
FFFFFE1FFFF0
FFFFFF1FFFF0
FFFFFF1FFFF0
FFFFFF1FFFF0
FFFFFF1FFFF0
FFFFFF1FFFF0
FFFFFF9FFFF0
FFFFFF9FFFF0
FFFFFF9FFFF0
FFFFFF9FFFF0
FFFFFF9FFFF0
FFFFFFDFFFF0
FFFFFFDFFFF0
FFFFFFDFFFF0
FFFFFFDFFFF0
FFFFFFDFFFF0
FFFFFFDFFFF0
FFFFFFFFFFF0
FFFFFFFFFFF0
FFFFBFFFFFF0
FFFFBFFFFFF0
FFFFBFFFFFF0
FFFFBFFFFFF0
FFFFBFFFFFF0
FFFF9FFFFFF0
FFFF9FFFFFF0
FFFF9FFFFFF0
FFFF9FFFFFF0
FFFF9FFFFFF0
FFFF8FFFFFF0
FFFF8FFFFFF0
FFFF8FFFFFF0
FFFF8FFFFFF0
FFFF8FFFFFF0
FFFF87FFFFF0
FFFF87FFFFF0
FFFF87FFFFF0
FFFF87FFFFF0
FFFF87FFFFF0
FFFF83FFFFF0
FFFF83FFFFF0
FFFF83FFFFF0
FFFF83FFFFF0
FFFF83FFFFF0
FFFF81FFFFF0
FFFF81FFFFF0
FFFF81FFFFF0
FFFF81FFFFF0
FFFF81FFFFF0
FFFF80FFFFF0
FFFF80FFFFF0
FFFF80FFFFF0
FFFF80FFFFF0
FFFF80FFFFF0
FFFF807FFFF0
FFFF807FFFF0
FFFF807FFFF0
FFFF807FFFF0
FFFF807FFFF0
FFFF803FFFF0
FFFF803FFFF0
FFFF803FFFF0
FFFF803FFFF0
ENDCHAR
STARTCHAR Ograve
ENCODING 210
SWIDTH 486 0
DWIDTH 51 0
BBX 44 115 3 -1
BITMAP
003000000000
003C00000000
003F00000000
003FC0000000
003FF8000000
003FFE000000
003FFF800000
003FFFE00000
003FFFF80000
003FFFFE0000
003FFFFFC000
003FFFFFC000
003FFFFFC000
003FFFFFC000
003FFFFFC000
003FFFFFC000
003FFFFFC000
001FFFFFC000
0000FFFFC000
000007FFC000
0000003FC000
00000001C000
000000000000
000000000000
00007FF00000
0007FFFF0000
003FFFFFC000
007FFFFFF000
01FFFFFFF800
03FFFFFFFC00
07FFFFFFFE00
0FFFFFFFFF00
0FFFFFFFFF80
1FFFFFFFFF80
1FFFFFFFFFC0
3FFFFFFFFFC0
3FFFFFFFFFE0
7FFFFFFFFFE0
7FFFFFFFFFE0
7FFFFFFFFFF0
7FFFF0FFFFF0
7FFFE07FFFF0
FFFFE03FFFF0
FFFFC03FFFF0
FFFFC03FFFF0
FFFFC03FFFF0
FFFFC03FFFF0
FFFFC03FFFF0
FFFFC03FFFF0
FFFFC03FFFF0
FFFFC03FFFF0
FFFFC03FFFF0
FFFFC03FFFF0
FFFFC03FFFF0
FFFFC03FFFF0
FFFFC03FFFF0
FFFFC03FFFF0
FFFFC03FFFF0
FFFFC03FFFF0
FFFFC03FFFF0
FFFFC03FFFF0
FFFFC03FFFF0
FFFFC03FFFF0
FFFFC03FFFF0
FFFFC03FFFF0
FFFFC03FFFF0
FFFFC03FFFF0
FFFFC03FFFF0
FFFFC03FFFF0
FFFFC03FFFF0
FFFFC03FFFF0
FFFFC03FFFF0
FFFFC03FFFF0
FFFFC03FFFF0
FFFFC03FFFF0
FFFFC03FFFF0
FFFFC03FFFF0
FFFFC03FFFF0
FFFFC03FFFF0
FFFFC03FFFF0
FFFFC03FFFF0
FFFFC03FFFF0
FFFFC03FFFF0
FFFFC03FFFF0
FFFFC03FFFF0
FFFFC03FFFF0
FFFFC03FFFF0
FFFFC03FFFF0
FFFFC03FFFF0
FFFFC03FFFF0
FFFFC03FFFF0
FFFFC03FFFF0
FFFFC03FFFF0
FFFFC03FFFF0
FFFFC03FFFF0
7FFFC03FFFF0
7FFFE03FFFF0
7FFFE07FFFF0
7FFFF0FFFFE0
7FFFFFFFFFE0
3FFFFFFFFFE0
3FFFFFFFFFE0
3FFFFFFFFFC0
1FFFFFFFFFC0
1FFFFFFFFF80
0FFFFFFFFF80
0FFFFFFFFF00
07FFFFFFFE00
03FFFFFFFE00
01FFFFFFFC00
00FFFFFFF800
007FFFFFE000
001FFFFFC000
0007FFFE0000
00007FF00000
ENDCHAR
STARTCHAR Oacute
ENCODING 211
SWIDTH 486 0
DWIDTH 51 0
BBX 44 115 3 -1
BITMAP
000000006000
00000001E000
00000007E000
0000003FE000
000000FFE000
000003FFE000
00000FFFE000
00003FFFE000
0000FFFFE000
0007FFFFE000
001FFFFFE000
001FFFFFE000
001FFFFFE000
001FFFFFE000
001FFFFFE000
001FFFFFE000
001FFFFFE000
001FFFFFC000
001FFFF80000
001FFF000000
001FE0000000
001C00000000
000000000000
000000000000
00007FF00000
0007FFFF0000
003FFFFFC000
007FFFFFF000
01FFFFFFF800
03FFFFFFFC00
07FFFFFFFE00
0FFFFFFFFF00
0FFFFFFFFF80
1FFFFFFFFF80
1FFFFFFFFFC0
3FFFFFFFFFC0
3FFFFFFFFFE0
7FFFFFFFFFE0
7FFFFFFFFFE0
7FFFFFFFFFF0
7FFFF0FFFFF0
7FFFE07FFFF0
FFFFE03FFFF0
FFFFC03FFFF0
FFFFC03FFFF0
FFFFC03FFFF0
FFFFC03FFFF0
FFFFC03FFFF0
FFFFC03FFFF0
FFFFC03FFFF0
FFFFC03FFFF0
FFFFC03FFFF0
FFFFC03FFFF0
FFFFC03FFFF0
FFFFC03FFFF0
FFFFC03FFFF0
FFFFC03FFFF0
FFFFC03FFFF0
FFFFC03FFFF0
FFFFC03FFFF0
FFFFC03FFFF0
FFFFC03FFFF0
FFFFC03FFFF0
FFFFC03FFFF0
FFFFC03FFFF0
FFFFC03FFFF0
FFFFC03FFFF0
FFFFC03FFFF0
FFFFC03FFFF0
FFFFC03FFFF0
FFFFC03FFFF0
FFFFC03FFFF0
FFFFC03FFFF0
FFFFC03FFFF0
FFFFC03FFFF0
FFFFC03FFFF0
FFFFC03FFFF0
FFFFC03FFFF0
FFFFC03FFFF0
FFFFC03FFFF0
FFFFC03FFFF0
FFFFC03FFFF0
FFFFC03FFFF0
FFFFC03FFFF0
FFFFC03FFFF0
FFFFC03FFFF0
FFFFC03FFFF0
FFFFC03FFFF0
FFFFC03FFFF0
FFFFC03FFFF0
FFFFC03FFFF0
FFFFC03FFFF0
FFFFC03FFFF0
FFFFC03FFFF0
FFFFC03FFFF0
7FFFC03FFFF0
7FFFE03FFFF0
7FFFE07FFFF0
7FFFF0FFFFE0
7FFFFFFFFFE0
3FFFFFFFFFE0
3FFFFFFFFFE0
3FFFFFFFFFC0
1FFFFFFFFFC0
1FFFFFFFFF80
0FFFFFFFFF80
0FFFFFFFFF00
07FFFFFFFE00
03FFFFFFFE00
01FFFFFFFC00
00FFFFFFF800
007FFFFFE000
001FFFFFC000
0007FFFE0000
00007FF00000
ENDCHAR
STARTCHAR Ocircumflex
ENCODING 212
SWIDTH 486 0
DWIDTH 51 0
BBX 45 115 3 -1
BITMAP
000FFFFF8000
001FFFFFC000
001FFFFFC000
003FFFFFE000
007FFFFFF000
007FFFFFF000
00FFFDFFF800
00FFFDFFFC00
01FFFDFFFC00
03FFFCFFFE00
03FFF8FFFE00
07FFF8FFFF00
07FFF87FFF80
0FFFF07FFF80
1FFFF07FFFC0
1FFFF03FFFC0
3FFFE03FFFE0
3FFFE03FFFF0
7FFFE01FFFF0
FFFFC01FFFF8
000000000000
000000000000
000000000000
000000000000
00007FF00000
0007FFFF0000
003FFFFFC000
007FFFFFF000
01FFFFFFF800
03FFFFFFFC00
07FFFFFFFE00
0FFFFFFFFF00
0FFFFFFFFF80
1FFFFFFFFF80
1FFFFFFFFFC0
3FFFFFFFFFC0
3FFFFFFFFFE0
7FFFFFFFFFE0
7FFFFFFFFFE0
7FFFFFFFFFF0
7FFFF0FFFFF0
7FFFE07FFFF0
FFFFE03FFFF0
FFFFC03FFFF0
FFFFC03FFFF0
FFFFC03FFFF0
FFFFC03FFFF0
FFFFC03FFFF0
FFFFC03FFFF0
FFFFC03FFFF0
FFFFC03FFFF0
FFFFC03FFFF0
FFFFC03FFFF0
FFFFC03FFFF0
FFFFC03FFFF0
FFFFC03FFFF0
FFFFC03FFFF0
FFFFC03FFFF0
FFFFC03FFFF0
FFFFC03FFFF0
FFFFC03FFFF0
FFFFC03FFFF0
FFFFC03FFFF0
FFFFC03FFFF0
FFFFC03FFFF0
FFFFC03FFFF0
FFFFC03FFFF0
FFFFC03FFFF0
FFFFC03FFFF0
FFFFC03FFFF0
FFFFC03FFFF0
FFFFC03FFFF0
FFFFC03FFFF0
FFFFC03FFFF0
FFFFC03FFFF0
FFFFC03FFFF0
FFFFC03FFFF0
FFFFC03FFFF0
FFFFC03FFFF0
FFFFC03FFFF0
FFFFC03FFFF0
FFFFC03FFFF0
FFFFC03FFFF0
FFFFC03FFFF0
FFFFC03FFFF0
FFFFC03FFFF0
FFFFC03FFFF0
FFFFC03FFFF0
FFFFC03FFFF0
FFFFC03FFFF0
FFFFC03FFFF0
FFFFC03FFFF0
FFFFC03FFFF0
FFFFC03FFFF0
FFFFC03FFFF0
7FFFC03FFFF0
7FFFE03FFFF0
7FFFE07FFFF0
7FFFF0FFFFE0
7FFFFFFFFFE0
3FFFFFFFFFE0
3FFFFFFFFFE0
3FFFFFFFFFC0
1FFFFFFFFFC0
1FFFFFFFFF80
0FFFFFFFFF80
0FFFFFFFFF00
07FFFFFFFE00
03FFFFFFFE00
01FFFFFFFC00
00FFFFFFF800
007FFFFFE000
001FFFFFC000
0007FFFE0000
00007FF00000
ENDCHAR
STARTCHAR Otilde
ENCODING 213
SWIDTH 486 0
DWIDTH 51 0
BBX 44 112 3 -1
BITMAP
003FC0001000
00FFFC003C00
01FFFF803FC0
03FFFFF0FFE0
07FFFFFFFFE0
0FFFFFFFFFE0
0FFFFFFFFFC0
1FFFFFFFFFC0
1FFFFFFFFF80
3FFFFFFFFF80
3FFFFFFFFF00
7FFFFFFFFF00
0FF07FFFFE00
03C00FFFFC00
008001FFF000
0000003FC000
000000000000
000000000000
000000000000
000000000000
000000000000
00007FF00000
0007FFFF0000
003FFFFFC000
007FFFFFF000
01FFFFFFF800
03FFFFFFFC00
07FFFFFFFE00
0FFFFFFFFF00
0FFFFFFFFF80
1FFFFFFFFF80
1FFFFFFFFFC0
3FFFFFFFFFC0
3FFFFFFFFFE0
7FFFFFFFFFE0
7FFFFFFFFFE0
7FFFFFFFFFF0
7FFFF0FFFFF0
7FFFE07FFFF0
FFFFE03FFFF0
FFFFC03FFFF0
FFFFC03FFFF0
FFFFC03FFFF0
FFFFC03FFFF0
FFFFC03FFFF0
FFFFC03FFFF0
FFFFC03FFFF0
FFFFC03FFFF0
FFFFC03FFFF0
FFFFC03FFFF0
FFFFC03FFFF0
FFFFC03FFFF0
FFFFC03FFFF0
FFFFC03FFFF0
FFFFC03FFFF0
FFFFC03FFFF0
FFFFC03FFFF0
FFFFC03FFFF0
FFFFC03FFFF0
FFFFC03FFFF0
FFFFC03FFFF0
FFFFC03FFFF0
FFFFC03FFFF0
FFFFC03FFFF0
FFFFC03FFFF0
FFFFC03FFFF0
FFFFC03FFFF0
FFFFC03FFFF0
FFFFC03FFFF0
FFFFC03FFFF0
FFFFC03FFFF0
FFFFC03FFFF0
FFFFC03FFFF0
FFFFC03FFFF0
FFFFC03FFFF0
FFFFC03FFFF0
FFFFC03FFFF0
FFFFC03FFFF0
FFFFC03FFFF0
FFFFC03FFFF0
FFFFC03FFFF0
FFFFC03FFFF0
FFFFC03FFFF0
FFFFC03FFFF0
FFFFC03FFFF0
FFFFC03FFFF0
FFFFC03FFFF0
FFFFC03FFFF0
FFFFC03FFFF0
FFFFC03FFFF0
FFFFC03FFFF0
FFFFC03FFFF0
7FFFC03FFFF0
7FFFE03FFFF0
7FFFE07FFFF0
7FFFF0FFFFE0
7FFFFFFFFFE0
3FFFFFFFFFE0
3FFFFFFFFFE0
3FFFFFFFFFC0
1FFFFFFFFFC0
1FFFFFFFFF80
0FFFFFFFFF80
0FFFFFFFFF00
07FFFFFFFE00
03FFFFFFFE00
01FFFFFFFC00
00FFFFFFF800
007FFFFFE000
001FFFFFC000
0007FFFE0000
00007FF00000
ENDCHAR
STARTCHAR Odieresis
ENCODING 214
SWIDTH 486 0
DWIDTH 51 0
BBX 44 110 3 -1
BITMAP
FFFFE07FFFE0
FFFFE07FFFE0
FFFFE07FFFE0
FFFFE07FFFE0
FFFFE07FFFE0
FFFFE07FFFE0
FFFFE07FFFE0
FFFFE07FFFE0
FFFFE07FFFE0
FFFFE07FFFE0
FFFFE07FFFE0
FFFFE07FFFE0
FFFFE07FFFE0
FFFFE07FFFE0
FFFFE07FFFE0
000000000000
000000000000
000000000000
000000000000
00007FF00000
0007FFFF0000
003FFFFFC000
007FFFFFF000
01FFFFFFF800
03FFFFFFFC00
07FFFFFFFE00
0FFFFFFFFF00
0FFFFFFFFF80
1FFFFFFFFF80
1FFFFFFFFFC0
3FFFFFFFFFC0
3FFFFFFFFFE0
7FFFFFFFFFE0
7FFFFFFFFFE0
7FFFFFFFFFF0
7FFFF0FFFFF0
7FFFE07FFFF0
FFFFE03FFFF0
FFFFC03FFFF0
FFFFC03FFFF0
FFFFC03FFFF0
FFFFC03FFFF0
FFFFC03FFFF0
FFFFC03FFFF0
FFFFC03FFFF0
FFFFC03FFFF0
FFFFC03FFFF0
FFFFC03FFFF0
FFFFC03FFFF0
FFFFC03FFFF0
FFFFC03FFFF0
FFFFC03FFFF0
FFFFC03FFFF0
FFFFC03FFFF0
FFFFC03FFFF0
FFFFC03FFFF0
FFFFC03FFFF0
FFFFC03FFFF0
FFFFC03FFFF0
FFFFC03FFFF0
FFFFC03FFFF0
FFFFC03FFFF0
FFFFC03FFFF0
FFFFC03FFFF0
FFFFC03FFFF0
FFFFC03FFFF0
FFFFC03FFFF0
FFFFC03FFFF0
FFFFC03FFFF0
FFFFC03FFFF0
FFFFC03FFFF0
FFFFC03FFFF0
FFFFC03FFFF0
FFFFC03FFFF0
FFFFC03FFFF0
FFFFC03FFFF0
FFFFC03FFFF0
FFFFC03FFFF0
FFFFC03FFFF0
FFFFC03FFFF0
FFFFC03FFFF0
FFFFC03FFFF0
FFFFC03FFFF0
FFFFC03FFFF0
FFFFC03FFFF0
FFFFC03FFFF0
FFFFC03FFFF0
FFFFC03FFFF0
FFFFC03FFFF0
FFFFC03FFFF0
7FFFC03FFFF0
7FFFE03FFFF0
7FFFE07FFFF0
7FFFF0FFFFE0
7FFFFFFFFFE0
3FFFFFFFFFE0
3FFFFFFFFFE0
3FFFFFFFFFC0
1FFFFFFFFFC0
1FFFFFFFFF80
0FFFFFFFFF80
0FFFFFFFFF00
07FFFFFFFE00
03FFFFFFFE00
01FFFFFFFC00
00FFFFFFF800
007FFFFFE000
001FFFFFC000
0007FFFE0000
00007FF00000
ENDCHAR
STARTCHAR multiply
ENCODING 215
SWIDTH 347 0
DWIDTH 36 0
BBX 32 32 2 16
BITMAP
00800100
00C00380
01E007C0
03F00FE0
0FF81FF0
1FFC3FF8
3FFE7FFC
7FFFFFFE
FFFFFFFF
7FFFFFFE
3FFFFFFC
1FFFFFF8
0FFFFFF0
07FFFFE0
03FFFFC0
01FFFF80
01FFFF80
03FFFFC0
07FFFFE0
0FFFFFF0
1FFFFFF8
3FFFFFFC
7FFFFFFE
FFFFFFFF
7FFFFFFE
3FFE7FFC
1FFC3FF8
0FF81FF0
07F00FE0
03E007C0
01C00380
00800100
ENDCHAR
STARTCHAR Oslash
ENCODING 216
SWIDTH 482 0
DWIDTH 50 0
BBX 44 111 3 -9
BITMAP
000000002000
000000003C00
000000003F00
000000007F00
000000007E00
000000007E00
00000000FE00
00000000FE00
00000000FC00
00000000FC00
00000001FC00
00000001F800
0000FFF1F800
000FFFFFF800
003FFFFFF800
00FFFFFFF000
01FFFFFFF800
03FFFFFFFC00
07FFFFFFFE00
0FFFFFFFFF00
0FFFFFFFFF80
1FFFFFFFFF80
3FFFFFFFFFC0
3FFFFFFFFFC0
3FFFFFFFFFC0
7FFFFFFFFFE0
7FFFFFFFFFE0
7FFFFFFFFFE0
7FFFF0FFFFF0
FFFFE07FFFF0
FFFFC03FFFF0
FFFFC03FFFF0
FFFFC03FFFF0
FFFFC03FFFF0
FFFFC03FFFF0
FFFFC03FFFF0
FFFFC03FFFF0
FFFFC03FFFF0
FFFFC03FFFF0
FFFFC03FFFF0
FFFFC03FFFF0
FFFFC03FFFF0
FFFFC03FFFF0
FFFFC03FFFF0
FFFFC03FFFF0
FFFFC03FFFF0
FFFFC03FFFF0
FFFFC03FFFF0
FFFFC03FFFF0
FFFFC03FFFF0
FFFFC03FFFF0
FFFFC03FFFF0
FFFFC03FFFF0
FFFFC03FFFF0
FFFFC03FFFF0
FFFFC03FFFF0
FFFFC03FFFF0
FFFFC03FFFF0
FFFFC03FFFF0
FFFFC03FFFF0
FFFFC03FFFF0
FFFFC03FFFF0
FFFFC03FFFF0
FFFFC03FFFF0
FFFFC03FFFF0
FFFFC03FFFF0
FFFFC03FFFF0
FFFFC03FFFF0
FFFFC03FFFF0
FFFFC03FFFF0
FFFFC03FFFF0
FFFFC03FFFF0
FFFFC03FFFF0
FFFFC03FFFF0
FFFFC03FFFF0
FFFFC03FFFF0
FFFFC03FFFF0
FFFFC03FFFF0
FFFFC03FFFF0
FFFFC03FFFF0
FFFFC03FFFF0
FFFFC03FFFF0
FFFFC03FFFF0
FFFFC03FFFF0
FFFFC07FFFF0
7FFFE07FFFE0
7FFFF0FFFFE0
7FFFFFFFFFE0
7FFFFFFFFFE0
3FFFFFFFFFC0
3FFFFFFFFFC0
3FFFFFFFFFC0
1FFFFFFFFF80
1FFFFFFFFF80
0FFFFFFFFF00
07FFFFFFFE00
03FFFFFFFC00
03FFFFFFFC00
01FFFFFFF000
03FFFFFFE000
03FFFFFF8000
03F7FFFE0000
07F0FFF00000
07E000000000
07E000000000
07E000000000
0FC000000000
0FC000000000
0FC000000000
07C000000000
008000000000
ENDCHAR
STARTCHAR Ugrave
ENCODING 217
SWIDTH 474 0
DWIDTH 49 0
BBX 43 115 3 -1
BITMAP
006000000000
007800000000
007E00000000
007F80000000
007FF0000000
007FFC000000
007FFF000000
007FFFC00000
007FFFF00000
007FFFFC0000
007FFFFF8000
007FFFFF8000
007FFFFF8000
007FFFFF8000
007FFFFF8000
007FFFFF8000
007FFFFF8000
003FFFFF8000
0001FFFF8000
00000FFF8000
0000007F8000
000000038000
000000000000
000000000000
000000000000
FFFF803FFFE0
FFFF803FFFE0
FFFF803FFFE0
FFFF803FFFE0
FFFF803FFFE0
FFFF803FFFE0
FFFF803FFFE0
FFFF803FFFE0
FFFF803FFFE0
FFFF803FFFE0
FFFF803FFFE0
FFFF803FFFE0
FFFF803FFFE0
FFFF803FFFE0
FFFF803FFFE0
FFFF803FFFE0
FFFF803FFFE0
FFFF803FFFE0
FFFF803FFFE0
FFFF803FFFE0
FFFF803FFFE0
FFFF803FFFE0
FFFF803FFFE0
FFFF803FFFE0
FFFF803FFFE0
FFFF803FFFE0
FFFF803FFFE0
FFFF803FFFE0
FFFF803FFFE0
FFFF803FFFE0
FFFF803FFFE0
FFFF803FFFE0
FFFF803FFFE0
FFFF803FFFE0
FFFF803FFFE0
FFFF803FFFE0
FFFF803FFFE0
FFFF803FFFE0
FFFF803FFFE0
FFFF803FFFE0
FFFF803FFFE0
FFFF803FFFE0
FFFF803FFFE0
FFFF803FFFE0
FFFF803FFFE0
FFFF803FFFE0
FFFF803FFFE0
FFFF803FFFE0
FFFF803FFFE0
FFFF803FFFE0
FFFF803FFFE0
FFFF803FFFE0
FFFF803FFFE0
FFFF803FFFE0
FFFF803FFFE0
FFFF803FFFE0
FFFF803FFFE0
FFFF803FFFE0
FFFF803FFFE0
FFFF803FFFE0
FFFF803FFFE0
FFFF803FFFE0
FFFF803FFFE0
FFFF803FFFE0
FFFF803FFFE0
FFFF803FFFE0
FFFF803FFFE0
FFFF803FFFE0
FFFF803FFFE0
FFFFC03FFFE0
FFFFC07FFFE0
FFFFC07FFFE0
FFFFE07FFFE0
7FFFF0FFFFE0
7FFFFFFFFFC0
7FFFFFFFFFC0
7FFFFFFFFFC0
3FFFFFFFFFC0
3FFFFFFFFF80
1FFFFFFFFF80
1FFFFFFFFF00
0FFFFFFFFF00
0FFFFFFFFE00
07FFFFFFFC00
03FFFFFFF800
01FFFFFFF000
00FFFFFFE000
003FFFFF8000
000FFFFE0000
0000FFE00000
ENDCHAR
STARTCHAR Uacute
ENCODING 218
SWIDTH 474 0
DWIDTH 49 0
BBX 43 115 3 -1
BITMAP
00000000C000
00000003C000
0000000FC000
0000007FC000
000001FFC000
000007FFC000
00001FFFC000
00007FFFC000
0001FFFFC000
000FFFFFC000
003FFFFFC000
003FFFFFC000
003FFFFFC000
003FFFFFC000
003FFFFFC000
003FFFFFC000
003FFFFFC000
003FFFFF8000
003FFFF00000
003FFE000000
003FC0000000
003800000000
000000000000
000000000000
000000000000
FFFF803FFFE0
FFFF803FFFE0
FFFF803FFFE0
FFFF803FFFE0
FFFF803FFFE0
FFFF803FFFE0
FFFF803FFFE0
FFFF803FFFE0
FFFF803FFFE0
FFFF803FFFE0
FFFF803FFFE0
FFFF803FFFE0
FFFF803FFFE0
FFFF803FFFE0
FFFF803FFFE0
FFFF803FFFE0
FFFF803FFFE0
FFFF803FFFE0
FFFF803FFFE0
FFFF803FFFE0
FFFF803FFFE0
FFFF803FFFE0
FFFF803FFFE0
FFFF803FFFE0
FFFF803FFFE0
FFFF803FFFE0
FFFF803FFFE0
FFFF803FFFE0
FFFF803FFFE0
FFFF803FFFE0
FFFF803FFFE0
FFFF803FFFE0
FFFF803FFFE0
FFFF803FFFE0
FFFF803FFFE0
FFFF803FFFE0
FFFF803FFFE0
FFFF803FFFE0
FFFF803FFFE0
FFFF803FFFE0
FFFF803FFFE0
FFFF803FFFE0
FFFF803FFFE0
FFFF803FFFE0
FFFF803FFFE0
FFFF803FFFE0
FFFF803FFFE0
FFFF803FFFE0
FFFF803FFFE0
FFFF803FFFE0
FFFF803FFFE0
FFFF803FFFE0
FFFF803FFFE0
FFFF803FFFE0
FFFF803FFFE0
FFFF803FFFE0
FFFF803FFFE0
FFFF803FFFE0
FFFF803FFFE0
FFFF803FFFE0
FFFF803FFFE0
FFFF803FFFE0
FFFF803FFFE0
FFFF803FFFE0
FFFF803FFFE0
FFFF803FFFE0
FFFF803FFFE0
FFFF803FFFE0
FFFF803FFFE0
FFFFC03FFFE0
FFFFC07FFFE0
FFFFC07FFFE0
FFFFE07FFFE0
7FFFF0FFFFE0
7FFFFFFFFFC0
7FFFFFFFFFC0
7FFFFFFFFFC0
3FFFFFFFFFC0
3FFFFFFFFF80
1FFFFFFFFF80
1FFFFFFFFF00
0FFFFFFFFF00
0FFFFFFFFE00
07FFFFFFFC00
03FFFFFFF800
01FFFFFFF000
00FFFFFFE000
003FFFFF8000
000FFFFE0000
0000FFE00000
ENDCHAR
STARTCHAR Ucircumflex
ENCODING 219
SWIDTH 474 0
DWIDTH 49 0
BBX 45 115 2 -1
BITMAP
000FFFFF8000
001FFFFFC000
001FFFFFC000
003FFFFFE000
007FFFFFF000
007FFFFFF000
00FFFDFFF800
00FFFDFFFC00
01FFFDFFFC00
03FFFCFFFE00
03FFF8FFFE00
07FFF8FFFF00
07FFF87FFF80
0FFFF07FFF80
1FFFF07FFFC0
1FFFF03FFFC0
3FFFE03FFFE0
3FFFE03FFFF0
7FFFE01FFFF0
FFFFC01FFFF8
000000000000
000000000000
000000000000
000000000000
000000000000
7FFFC01FFFF0
7FFFC01FFFF0
7FFFC01FFFF0
7FFFC01FFFF0
7FFFC01FFFF0
7FFFC01FFFF0
7FFFC01FFFF0
7FFFC01FFFF0
7FFFC01FFFF0
7FFFC01FFFF0
7FFFC01FFFF0
7FFFC01FFFF0
7FFFC01FFFF0
7FFFC01FFFF0
7FFFC01FFFF0
7FFFC01FFFF0
7FFFC01FFFF0
7FFFC01FFFF0
7FFFC01FFFF0
7FFFC01FFFF0
7FFFC01FFFF0
7FFFC01FFFF0
7FFFC01FFFF0
7FFFC01FFFF0
7FFFC01FFFF0
7FFFC01FFFF0
7FFFC01FFFF0
7FFFC01FFFF0
7FFFC01FFFF0
7FFFC01FFFF0
7FFFC01FFFF0
7FFFC01FFFF0
7FFFC01FFFF0
7FFFC01FFFF0
7FFFC01FFFF0
7FFFC01FFFF0
7FFFC01FFFF0
7FFFC01FFFF0
7FFFC01FFFF0
7FFFC01FFFF0
7FFFC01FFFF0
7FFFC01FFFF0
7FFFC01FFFF0
7FFFC01FFFF0
7FFFC01FFFF0
7FFFC01FFFF0
7FFFC01FFFF0
7FFFC01FFFF0
7FFFC01FFFF0
7FFFC01FFFF0
7FFFC01FFFF0
7FFFC01FFFF0
7FFFC01FFFF0
7FFFC01FFFF0
7FFFC01FFFF0
7FFFC01FFFF0
7FFFC01FFFF0
7FFFC01FFFF0
7FFFC01FFFF0
7FFFC01FFFF0
7FFFC01FFFF0
7FFFC01FFFF0
7FFFC01FFFF0
7FFFC01FFFF0
7FFFC01FFFF0
7FFFC01FFFF0
7FFFC01FFFF0
7FFFC01FFFF0
7FFFC01FFFF0
7FFFE01FFFF0
7FFFE03FFFF0
7FFFE03FFFF0
7FFFF03FFFF0
3FFFF87FFFF0
3FFFFFFFFFE0
3FFFFFFFFFE0
3FFFFFFFFFE0
1FFFFFFFFFE0
1FFFFFFFFFC0
0FFFFFFFFFC0
0FFFFFFFFF80
07FFFFFFFF80
07FFFFFFFF00
03FFFFFFFE00
01FFFFFFFC00
00FFFFFFF800
007FFFFFF000
001FFFFFC000
0007FFFF0000
00007FF00000
ENDCHAR
STARTCHAR Udieresis
ENCODING 220
SWIDTH 474 0
DWIDTH 49 0
BBX 43 110 3 -1
BITMAP
FFFFE07FFFE0
FFFFE07FFFE0
FFFFE07FFFE0
FFFFE07FFFE0
FFFFE07FFFE0
FFFFE07FFFE0
FFFFE07FFFE0
FFFFE07FFFE0
FFFFE07FFFE0
FFFFE07FFFE0
FFFFE07FFFE0
FFFFE07FFFE0
FFFFE07FFFE0
FFFFE07FFFE0
FFFFE07FFFE0
000000000000
000000000000
000000000000
000000000000
000000000000
FFFF803FFFE0
FFFF803FFFE0
FFFF803FFFE0
FFFF803FFFE0
FFFF803FFFE0
FFFF803FFFE0
FFFF803FFFE0
FFFF803FFFE0
FFFF803FFFE0
FFFF803FFFE0
FFFF803FFFE0
FFFF803FFFE0
FFFF803FFFE0
FFFF803FFFE0
FFFF803FFFE0
FFFF803FFFE0
FFFF803FFFE0
FFFF803FFFE0
FFFF803FFFE0
FFFF803FFFE0
FFFF803FFFE0
FFFF803FFFE0
FFFF803FFFE0
FFFF803FFFE0
FFFF803FFFE0
FFFF803FFFE0
FFFF803FFFE0
FFFF803FFFE0
FFFF803FFFE0
FFFF803FFFE0
FFFF803FFFE0
FFFF803FFFE0
FFFF803FFFE0
FFFF803FFFE0
FFFF803FFFE0
FFFF803FFFE0
FFFF803FFFE0
FFFF803FFFE0
FFFF803FFFE0
FFFF803FFFE0
FFFF803FFFE0
FFFF803FFFE0
FFFF803FFFE0
FFFF803FFFE0
FFFF803FFFE0
FFFF803FFFE0
FFFF803FFFE0
FFFF803FFFE0
FFFF803FFFE0
FFFF803FFFE0
FFFF803FFFE0
FFFF803FFFE0
FFFF803FFFE0
FFFF803FFFE0
FFFF803FFFE0
FFFF803FFFE0
FFFF803FFFE0
FFFF803FFFE0
FFFF803FFFE0
FFFF803FFFE0
FFFF803FFFE0
FFFF803FFFE0
FFFF803FFFE0
FFFF803FFFE0
FFFF803FFFE0
FFFF803FFFE0
FFFF803FFFE0
FFFF803FFFE0
FFFF803FFFE0
FFFFC03FFFE0
FFFFC07FFFE0
FFFFC07FFFE0
FFFFE07FFFE0
7FFFF0FFFFE0
7FFFFFFFFFC0
7FFFFFFFFFC0
7FFFFFFFFFC0
3FFFFFFFFFC0
3FFFFFFFFF80
1FFFFFFFFF80
1FFFFFFFFF00
0FFFFFFFFF00
0FFFFFFFFE00
07FFFFFFFC00
03FFFFFFF800
01FFFFFFF000
00FFFFFFE000
003FFFFF8000
000FFFFE0000
0000FFE00000
ENDCHAR
STARTCHAR Yacute
ENCODING 221
SWIDTH 446 0
DWIDTH 46 0
BBX 45 114 1 0
BITMAP
00000000C000
00000003C000
0000000FC000
0000007FC000
000001FFC000
000007FFC000
00001FFFC000
00007FFFC000
0001FFFFC000
000FFFFFC000
003FFFFFC000
003FFFFFC000
003FFFFFC000
003FFFFFC000
003FFFFFC000
003FFFFFC000
003FFFFFC000
003FFFFF8000
003FFFF00000
003FFE000000
003FC0000000
003800000000
000000000000
000000000000
000000000000
FFFF801FFFF8
FFFF801FFFF8
FFFFC01FFFF0
FFFFC01FFFF0
7FFFC03FFFF0
7FFFC03FFFF0
7FFFC03FFFE0
7FFFC03FFFE0
3FFFE03FFFE0
3FFFE03FFFE0
3FFFE07FFFC0
3FFFE07FFFC0
3FFFE07FFFC0
1FFFE07FFFC0
1FFFF07FFF80
1FFFF07FFF80
1FFFF0FFFF80
0FFFF0FFFF80
0FFFF0FFFF00
0FFFF0FFFF00
0FFFF8FFFF00
07FFF8FFFF00
07FFF8FFFF00
07FFF9FFFE00
07FFF9FFFE00
03FFF9FFFE00
03FFF9FFFE00
03FFFDFFFC00
03FFFDFFFC00
01FFFFFFFC00
01FFFFFFFC00
01FFFFFFF800
01FFFFFFF800
01FFFFFFF800
00FFFFFFF800
00FFFFFFF000
00FFFFFFF000
00FFFFFFF000
007FFFFFF000
007FFFFFE000
007FFFFFE000
007FFFFFE000
003FFFFFE000
003FFFFFE000
003FFFFFC000
003FFFFFC000
001FFFFFC000
001FFFFFC000
001FFFFF8000
001FFFFF8000
000FFFFF8000
000FFFFF8000
000FFFFF0000
000FFFFF0000
000FFFFF0000
0007FFFF0000
0007FFFE0000
0007FFFE0000
0007FFFE0000
0003FFFE0000
0003FFFE0000
0003FFFE0000
0003FFFE0000
0003FFFE0000
0003FFFE0000
0003FFFE0000
0003FFFE0000
0003FFFE0000
0003FFFE0000
0003FFFE0000
0003FFFE0000
0003FFFE0000
0003FFFE0000
0003FFFE0000
0003FFFE0000
0003FFFE0000
0003FFFE0000
0003FFFE0000
0003FFFE0000
0003FFFE0000
0003FFFE0000
0003FFFE0000
0003FFFE0000
0003FFFE0000
0003FFFE0000
0003FFFE0000
0003FFFE0000
0003FFFE0000
0003FFFE0000
ENDCHAR
STARTCHAR Thorn
ENCODING 222
SWIDTH 462 0
DWIDTH 48 0
BBX 44 89 3 0
BITMAP
FFFFC0000000
FFFFC0000000
FFFFC0000000
FFFFC0000000
FFFFC0000000
FFFFC0000000
FFFFC0000000
FFFFC0000000
FFFFC0000000
FFFFC0000000
FFFFC0000000
FFFFC0000000
FFFFFF000000
FFFFFFFE0000
FFFFFFFFC000
FFFFFFFFE000
FFFFFFFFF800
FFFFFFFFFC00
FFFFFFFFFC00
FFFFFFFFFE00
FFFFFFFFFF00
FFFFFFFFFF00
FFFFFFFFFF80
FFFFFFFFFF80
FFFFFFFFFF80
FFFFFFFFFFC0
FFFFFFFFFFC0
FFFFC1FFFFC0
FFFFC0FFFFE0
FFFFC07FFFE0
FFFFC07FFFE0
FFFFC07FFFE0
FFFFC03FFFE0
FFFFC03FFFE0
FFFFC03FFFE0
FFFFC03FFFE0
FFFFC03FFFF0
FFFFC03FFFF0
FFFFC03FFFF0
FFFFC03FFFF0
FFFFC03FFFF0
FFFFC03FFFF0
FFFFC03FFFF0
FFFFC03FFFF0
FFFFC03FFFE0
FFFFC03FFFE0
FFFFC03FFFE0
FFFFC07FFFE0
FFFFC07FFFE0
FFFFC07FFFE0
FFFFC0FFFFE0
FFFFC1FFFFE0
FFFFC3FFFFC0
FFFFFFFFFFC0
FFFFFFFFFFC0
FFFFFFFFFFC0
FFFFFFFFFF80
FFFFFFFFFF80
FFFFFFFFFF00
FFFFFFFFFF00
FFFFFFFFFE00
FFFFFFFFFE00
FFFFFFFFFC00
FFFFFFFFF800
FFFFFFFFE000
FFFFFFFF8000
FFFFFFFC0000
FFFFC0000000
FFFFC0000000
FFFFC0000000
FFFFC0000000
FFFFC0000000
FFFFC0000000
FFFFC0000000
FFFFC0000000
FFFFC0000000
FFFFC0000000
FFFFC0000000
FFFFC0000000
FFFFC0000000
FFFFC0000000
FFFFC0000000
FFFFC0000000
FFFFC0000000
FFFFC0000000
FFFFC0000000
FFFFC0000000
FFFFC0000000
FFFFC0000000
ENDCHAR
STARTCHAR germandbls
ENCODING 223
SWIDTH 492 0
DWIDTH 51 0
BBX 46 90 3 0
BITMAP
0001FFF00000
001FFFFF0000
007FFFFFC000
01FFFFFFF000
07FFFFFFFC00
0FFFFFFFFE00
1FFFFFFFFE00
1FFFFFFFFF00
3FFFFFFFFF80
3FFFFFFFFF80
7FFFFFFFFFC0
7FFFFFFFFFC0
7FFFFFFFFFC0
FFFFE0FFFFE0
FFFFC07FFFE0
FFFFC07FFFE0
FFFFC07FFFE0
FFFFC07FFFE0
FFFFC07FFFE0
FFFFC07FFFE0
FFFFC07FFFE0
FFFFC07FFFE0
FFFFC07FFFE0
FFFFC07FFFE0
FFFFC07FFFE0
FFFFC07FFFE0
FFFFC07FFFE0
FFFFC07FFFE0
FFFFC07FFFE0
FFFFC07FFFE0
FFFFC07FFFE0
FFFFC0FFFFC0
FFFFC1FFFFC0
FFFFC7FFFF80
FFFFC7FFFF80
FFFFC7FFFF00
FFFFC7FFFE00
FFFFC7FFFC00
FFFFC7FFF000
FFFFC7FFFC00
FFFFC7FFFF00
FFFFC7FFFF80
FFFFC7FFFFC0
FFFFC7FFFFE0
FFFFC7FFFFE0
FFFFC7FFFFF0
FFFFC07FFFF0
FFFFC01FFFF0
FFFFC01FFFF8
FFFFC00FFFF8
FFFFC00FFFF8
FFFFC00FFFF8
FFFFC00FFFFC
FFFFC007FFFC
FFFFC007FFFC
FFFFC007FFFC
FFFFC007FFFC
FFFFC007FFFC
FFFFC007FFFC
FFFFC007FFFC
FFFFC007FFFC
FFFFC007FFFC
FFFFC007FFFC
FFFFC007FFFC
FFFFC007FFFC
FFFFC007FFFC
FFFFC007FFFC
FFFFC007FFFC
FFFFC007FFFC
FFFFC007FFFC
FFFFC00FFFFC
FFFFC00FFFF8
FFFFC00FFFF8
FFFFC00FFFF8
FFFFC01FFFF8
FFFFC07FFFF0
FFFFC7FFFFF0
FFFFC7FFFFF0
FFFFC7FFFFE0
FFFFC7FFFFE0
FFFFC7FFFFE0
FFFFC7FFFFC0
FFFFC7FFFFC0
FFFFC7FFFF80
FFFFC7FFFF00
FFFFC7FFFE00
FFFFC7FFFC00
FFFFC7FFF800
FFFFC7FFE000
FFFFC7FF0000
ENDCHAR
STARTCHAR agrave
ENCODING 224
SWIDTH 483 0
DWIDTH 50 0
BBX 45 103 2 -1
BITMAP
001800000000
001E00000000
001F80000000
001FE0000000
001FFC000000
001FFF000000
001FFFC00000
001FFFF00000
001FFFFC0000
001FFFFF0000
001FFFFFE000
001FFFFFE000
001FFFFFE000
001FFFFFE000
001FFFFFE000
001FFFFFE000
001FFFFFE000
000FFFFFE000
00007FFFE000
000003FFE000
0000001FE000
00000000E000
000000000000
000000000000
000000000000
000001000000
0003FFFE0000
001FFFFFC000
007FFFFFF000
01FFFFFFFC00
03FFFFFFFE00
07FFFFFFFF00
07FFFFFFFF80
0FFFFFFFFFC0
1FFFFFFFFFC0
1FFFFFFFFFE0
1FFFFFFFFFE0
3FFFFFFFFFF0
3FFFFFFFFFF0
3FFFFFFFFFF0
3FFFF07FFFF8
7FFFF03FFFF8
7FFFE03FFFF8
7FFFE03FFFF8
7FFFE01FFFF8
7FFFE01FFFF8
7FFFE01FFFF8
7FFFE01FFFF8
7FFFE01FFFF8
0000001FFFF8
0000001FFFF8
0000001FFFF8
0000001FFFF8
0000001FFFF8
000000FFFFF8
000007FFFFF8
00003FFFFFF8
0001FFFFFFF8
000FFFFFFFF8
003FFFFFFFF8
00FFFFFFFFF8
01FFFFFFFFF8
03FFFFFFFFF8
07FFFF3FFFF8
0FFFFC3FFFF8
1FFFF83FFFF8
1FFFF03FFFF8
3FFFF03FFFF8
3FFFE03FFFF8
7FFFE03FFFF8
7FFFE03FFFF8
7FFFE03FFFF8
7FFFE03FFFF8
7FFFE03FFFF8
FFFFE03FFFF8
FFFFE03FFFF8
FFFFE03FFFF8
FFFFE03FFFF8
FFFFE03FFFF8
FFFFE03FFFF8
FFFFE03FFFF8
FFFFE03FFFF8
FFFFE03FFFF8
FFFFE03FFFF8
FFFFE03FFFF8
FFFFE03FFFF8
FFFFE03FFFF8
FFFFF07FFFF8
7FFFF8FFFFF8
7FFFFFFFFFF8
7FFFFFFFFFF8
7FFFFFFFFFF8
7FFFFFFFFFF8
3FFFFFFFFFF8
3FFFFFDFFFF8
3FFFFFDFFFF8
1FFFFFDFFFF8
0FFFFF9FFFF8
0FFFFF1FFFF8
07FFFE1FFFF8
03FFFC1FFFF8
00FFF81FFFF8
001FE0000000
ENDCHAR
STARTCHAR aacute
ENCODING 225
SWIDTH 483 0
DWIDTH 50 0
BBX 45 103 2 -1
BITMAP
000000003000
00000000F000
00000003F000
0000001FF000
0000007FF000
000001FFF000
000007FFF000
00001FFFF000
00007FFFF000
0003FFFFF000
000FFFFFF000
000FFFFFF000
000FFFFFF000
000FFFFFF000
000FFFFFF000
000FFFFFF000
000FFFFFF000
000FFFFFE000
000FFFFC0000
000FFF800000
000FF0000000
000E00000000
000000000000
000000000000
000000000000
000001000000
0003FFFE0000
001FFFFFC000
007FFFFFF000
01FFFFFFFC00
03FFFFFFFE00
07FFFFFFFF00
07FFFFFFFF80
0FFFFFFFFFC0
1FFFFFFFFFC0
1FFFFFFFFFE0
1FFFFFFFFFE0
3FFFFFFFFFF0
3FFFFFFFFFF0
3FFFFFFFFFF0
3FFFF07FFFF8
7FFFF03FFFF8
7FFFE03FFFF8
7FFFE03FFFF8
7FFFE01FFFF8
7FFFE01FFFF8
7FFFE01FFFF8
7FFFE01FFFF8
7FFFE01FFFF8
0000001FFFF8
0000001FFFF8
0000001FFFF8
0000001FFFF8
0000001FFFF8
000000FFFFF8
000007FFFFF8
00003FFFFFF8
0001FFFFFFF8
000FFFFFFFF8
003FFFFFFFF8
00FFFFFFFFF8
01FFFFFFFFF8
03FFFFFFFFF8
07FFFF3FFFF8
0FFFFC3FFFF8
1FFFF83FFFF8
1FFFF03FFFF8
3FFFF03FFFF8
3FFFE03FFFF8
7FFFE03FFFF8
7FFFE03FFFF8
7FFFE03FFFF8
7FFFE03FFFF8
7FFFE03FFFF8
FFFFE03FFFF8
FFFFE03FFFF8
FFFFE03FFFF8
FFFFE03FFFF8
FFFFE03FFFF8
FFFFE03FFFF8
FFFFE03FFFF8
FFFFE03FFFF8
FFFFE03FFFF8
FFFFE03FFFF8
FFFFE03FFFF8
FFFFE03FFFF8
FFFFE03FFFF8
FFFFF07FFFF8
7FFFF8FFFFF8
7FFFFFFFFFF8
7FFFFFFFFFF8
7FFFFFFFFFF8
7FFFFFFFFFF8
3FFFFFFFFFF8
3FFFFFDFFFF8
3FFFFFDFFFF8
1FFFFFDFFFF8
0FFFFF9FFFF8
0FFFFF1FFFF8
07FFFE1FFFF8
03FFFC1FFFF8
00FFF81FFFF8
001FE0000000
ENDCHAR
STARTCHAR acircumflex
ENCODING 226
SWIDTH 483 0
DWIDTH 50 0
BBX 46 103 2 -1
BITMAP
0007FFFFC000
000FFFFFE000
000FFFFFE000
001FFFFFF000
003FFFFFF800
003FFFFFF800
007FFEFFFC00
007FFEFFFE00
00FFFEFFFE00
01FFFE7FFF00
01FFFC7FFF00
03FFFC7FFF80
03FFFC3FFFC0
07FFF83FFFC0
0FFFF83FFFE0
0FFFF81FFFE0
1FFFF01FFFF0
1FFFF01FFFF8
3FFFF00FFFF8
7FFFE00FFFFC
000000000000
000000000000
000000000000
000000000000
000000000000
000001000000
0003FFFE0000
001FFFFFC000
007FFFFFF000
01FFFFFFFC00
03FFFFFFFE00
07FFFFFFFF00
07FFFFFFFF80
0FFFFFFFFFC0
1FFFFFFFFFC0
1FFFFFFFFFE0
1FFFFFFFFFE0
3FFFFFFFFFF0
3FFFFFFFFFF0
3FFFFFFFFFF0
3FFFF07FFFF8
7FFFF03FFFF8
7FFFE03FFFF8
7FFFE03FFFF8
7FFFE01FFFF8
7FFFE01FFFF8
7FFFE01FFFF8
7FFFE01FFFF8
7FFFE01FFFF8
0000001FFFF8
0000001FFFF8
0000001FFFF8
0000001FFFF8
0000001FFFF8
000000FFFFF8
000007FFFFF8
00003FFFFFF8
0001FFFFFFF8
000FFFFFFFF8
003FFFFFFFF8
00FFFFFFFFF8
01FFFFFFFFF8
03FFFFFFFFF8
07FFFF3FFFF8
0FFFFC3FFFF8
1FFFF83FFFF8
1FFFF03FFFF8
3FFFF03FFFF8
3FFFE03FFFF8
7FFFE03FFFF8
7FFFE03FFFF8
7FFFE03FFFF8
7FFFE03FFFF8
7FFFE03FFFF8
FFFFE03FFFF8
FFFFE03FFFF8
FFFFE03FFFF8
FFFFE03FFFF8
FFFFE03FFFF8
FFFFE03FFFF8
FFFFE03FFFF8
FFFFE03FFFF8
FFFFE03FFFF8
FFFFE03FFFF8
FFFFE03FFFF8
FFFFE03FFFF8
FFFFE03FFFF8
FFFFF07FFFF8
7FFFF8FFFFF8
7FFFFFFFFFF8
7FFFFFFFFFF8
7FFFFFFFFFF8
7FFFFFFFFFF8
3FFFFFFFFFF8
3FFFFFDFFFF8
3FFFFFDFFFF8
1FFFFFDFFFF8
0FFFFF9FFFF8
0FFFFF1FFFF8
07FFFE1FFFF8
03FFFC1FFFF8
00FFF81FFFF8
001FE0000000
ENDCHAR
STARTCHAR atilde
ENCODING 227
SWIDTH 483 0
DWIDTH 50 0
BBX 45 100 2 -1
BITMAP
001FE0000800
007FFE001E00
00FFFFC01FE0
01FFFFF87FF0
03FFFFFFFFF0
07FFFFFFFFF0
07FFFFFFFFE0
0FFFFFFFFFE0
0FFFFFFFFFC0
1FFFFFFFFFC0
1FFFFFFFFF80
3FFFFFFFFF80
07F83FFFFF00
01E007FFFE00
004000FFF800
0000001FE000
000000000000
000000000000
000000000000
000000000000
000000000000
000000000000
000001000000
0003FFFE0000
001FFFFFC000
007FFFFFF000
01FFFFFFFC00
03FFFFFFFE00
07FFFFFFFF00
07FFFFFFFF80
0FFFFFFFFFC0
1FFFFFFFFFC0
1FFFFFFFFFE0
1FFFFFFFFFE0
3FFFFFFFFFF0
3FFFFFFFFFF0
3FFFFFFFFFF0
3FFFF07FFFF8
7FFFF03FFFF8
7FFFE03FFFF8
7FFFE03FFFF8
7FFFE01FFFF8
7FFFE01FFFF8
7FFFE01FFFF8
7FFFE01FFFF8
7FFFE01FFFF8
0000001FFFF8
0000001FFFF8
0000001FFFF8
0000001FFFF8
0000001FFFF8
000000FFFFF8
000007FFFFF8
00003FFFFFF8
0001FFFFFFF8
000FFFFFFFF8
003FFFFFFFF8
00FFFFFFFFF8
01FFFFFFFFF8
03FFFFFFFFF8
07FFFF3FFFF8
0FFFFC3FFFF8
1FFFF83FFFF8
1FFFF03FFFF8
3FFFF03FFFF8
3FFFE03FFFF8
7FFFE03FFFF8
7FFFE03FFFF8
7FFFE03FFFF8
7FFFE03FFFF8
7FFFE03FFFF8
FFFFE03FFFF8
FFFFE03FFFF8
FFFFE03FFFF8
FFFFE03FFFF8
FFFFE03FFFF8
FFFFE03FFFF8
FFFFE03FFFF8
FFFFE03FFFF8
FFFFE03FFFF8
FFFFE03FFFF8
FFFFE03FFFF8
FFFFE03FFFF8
FFFFE03FFFF8
FFFFF07FFFF8
7FFFF8FFFFF8
7FFFFFFFFFF8
7FFFFFFFFFF8
7FFFFFFFFFF8
7FFFFFFFFFF8
3FFFFFFFFFF8
3FFFFFDFFFF8
3FFFFFDFFFF8
1FFFFFDFFFF8
0FFFFF9FFFF8
0FFFFF1FFFF8
07FFFE1FFFF8
03FFFC1FFFF8
00FFF81FFFF8
001FE0000000
ENDCHAR
STARTCHAR adieresis
ENCODING 228
SWIDTH 483 0
DWIDTH 50 0
BBX 45 98 2 -1
BITMAP
3FFFF81FFFF8
3FFFF81FFFF8
3FFFF81FFFF8
3FFFF81FFFF8
3FFFF81FFFF8
3FFFF81FFFF8
3FFFF81FFFF8
3FFFF81FFFF8
3FFFF81FFFF8
3FFFF81FFFF8
3FFFF81FFFF8
3FFFF81FFFF8
3FFFF81FFFF8
3FFFF81FFFF8
3FFFF81FFFF8
000000000000
000000000000
000000000000
000000000000
000000000000
000001000000
0003FFFE0000
001FFFFFC000
007FFFFFF000
01FFFFFFFC00
03FFFFFFFE00
07FFFFFFFF00
07FFFFFFFF80
0FFFFFFFFFC0
1FFFFFFFFFC0
1FFFFFFFFFE0
1FFFFFFFFFE0
3FFFFFFFFFF0
3FFFFFFFFFF0
3FFFFFFFFFF0
3FFFF07FFFF8
7FFFF03FFFF8
7FFFE03FFFF8
7FFFE03FFFF8
7FFFE01FFFF8
7FFFE01FFFF8
7FFFE01FFFF8
7FFFE01FFFF8
7FFFE01FFFF8
0000001FFFF8
0000001FFFF8
0000001FFFF8
0000001FFFF8
0000001FFFF8
000000FFFFF8
000007FFFFF8
00003FFFFFF8
0001FFFFFFF8
000FFFFFFFF8
003FFFFFFFF8
00FFFFFFFFF8
01FFFFFFFFF8
03FFFFFFFFF8
07FFFF3FFFF8
0FFFFC3FFFF8
1FFFF83FFFF8
1FFFF03FFFF8
3FFFF03FFFF8
3FFFE03FFFF8
7FFFE03FFFF8
7FFFE03FFFF8
7FFFE03FFFF8
7FFFE03FFFF8
7FFFE03FFFF8
FFFFE03FFFF8
FFFFE03FFFF8
FFFFE03FFFF8
FFFFE03FFFF8
FFFFE03FFFF8
FFFFE03FFFF8
FFFFE03FFFF8
FFFFE03FFFF8
FFFFE03FFFF8
FFFFE03FFFF8
FFFFE03FFFF8
FFFFE03FFFF8
FFFFE03FFFF8
FFFFF07FFFF8
7FFFF8FFFFF8
7FFFFFFFFFF8
7FFFFFFFFFF8
7FFFFFFFFFF8
7FFFFFFFFFF8
3FFFFFFFFFF8
3FFFFFDFFFF8
3FFFFFDFFFF8
1FFFFFDFFFF8
0FFFFF9FFFF8
0FFFFF1FFFF8
07FFFE1FFFF8
03FFFC1FFFF8
00FFF81FFFF8
001FE0000000
ENDCHAR
STARTCHAR aring
ENCODING 229
SWIDTH 483 0
DWIDTH 50 0
BBX 45 116 2 -1
BITMAP
00001FF80000
0001FFFF0000
0007FFFFC000
000FFFFFF000
001FFFFFF800
003FFFFFFC00
007FFFFFFE00
00FFFFFFFE00
00FFFFFFFF00
01FFF83FFF00
01FFE00FFF80
03FFC007FF80
03FFC003FF80
03FF8003FF80
03FF8001FFC0
03FF8001FFC0
03FF8001FFC0
03FF8001FFC0
03FF8001FFC0
03FF8001FFC0
03FF8003FF80
03FFC003FF80
03FFC007FF80
01FFE00FFF80
01FFF83FFF00
00FFFFFFFF00
00FFFFFFFE00
007FFFFFFE00
003FFFFFFC00
001FFFFFF800
000FFFFFF000
0007FFFFC000
0001FFFF0000
00001FF80000
000000000000
000000000000
000000000000
000000000000
000001000000
0003FFFE0000
001FFFFFC000
007FFFFFF000
01FFFFFFFC00
03FFFFFFFE00
07FFFFFFFF00
07FFFFFFFF80
0FFFFFFFFFC0
1FFFFFFFFFC0
1FFFFFFFFFE0
1FFFFFFFFFE0
3FFFFFFFFFF0
3FFFFFFFFFF0
3FFFFFFFFFF0
3FFFF07FFFF8
7FFFF03FFFF8
7FFFE03FFFF8
7FFFE03FFFF8
7FFFE01FFFF8
7FFFE01FFFF8
7FFFE01FFFF8
7FFFE01FFFF8
7FFFE01FFFF8
0000001FFFF8
0000001FFFF8
0000001FFFF8
0000001FFFF8
0000001FFFF8
000000FFFFF8
000007FFFFF8
00003FFFFFF8
0001FFFFFFF8
000FFFFFFFF8
003FFFFFFFF8
00FFFFFFFFF8
01FFFFFFFFF8
03FFFFFFFFF8
07FFFF3FFFF8
0FFFFC3FFFF8
1FFFF83FFFF8
1FFFF03FFFF8
3FFFF03FFFF8
3FFFE03FFFF8
7FFFE03FFFF8
7FFFE03FFFF8
7FFFE03FFFF8
7FFFE03FFFF8
7FFFE03FFFF8
FFFFE03FFFF8
FFFFE03FFFF8
FFFFE03FFFF8
FFFFE03FFFF8
FFFFE03FFFF8
FFFFE03FFFF8
FFFFE03FFFF8
FFFFE03FFFF8
FFFFE03FFFF8
FFFFE03FFFF8
FFFFE03FFFF8
FFFFE03FFFF8
FFFFE03FFFF8
FFFFF07FFFF8
7FFFF8FFFFF8
7FFFFFFFFFF8
7FFFFFFFFFF8
7FFFFFFFFFF8
7FFFFFFFFFF8
3FFFFFFFFFF8
3FFFFFDFFFF8
3FFFFFDFFFF8
1FFFFFDFFFF8
0FFFFF9FFFF8
0FFFFF1FFFF8
07FFFE1FFFF8
03FFFC1FFFF8
00FFF81FFFF8
001FE0000000
ENDCHAR
STARTCHAR ae
ENCODING 230
SWIDTH 731 0
DWIDTH 76 0
BBX 71 78 2 -1
BITMAP
000001000000400000
0003FFF8001FFFC000
001FFFFE007FFFF800
007FFFFF81FFFFFE00
01FFFFFFC3FFFFFF00
03FFFFFFE7FFFFFF80
07FFFFFFFFFFFFFFC0
0FFFFFFFFFFFFFFFE0
0FFFFFFFFFFFFFFFF0
1FFFFFFFFFFFFFFFF8
1FFFFFFFFFFFFFFFF8
3FFFFFFFFFFFFFFFFC
3FFFFFFFFFFFFFFFFC
3FFFFFFFFFFFFFFFFC
3FFFFFFFFFFFFFFFFE
7FFFF07FFFFC0FFFFE
7FFFE03FFFFC0FFFFE
7FFFE03FFFF807FFFE
7FFFE03FFFF807FFFE
7FFFE03FFFF807FFFE
7FFFE03FFFF807FFFE
7FFFE03FFFF807FFFE
7FFFE03FFFF807FFFE
7FFFE03FFFF807FFFE
0000003FFFF807FFFE
0000003FFFF807FFFE
0000003FFFF807FFFE
0000003FFFF807FFFE
000000FFFFF807FFFE
000007FFFFF807FFFE
00003FFFFFFFFFFFFE
0001FFFFFFFFFFFFFE
0007FFFFFFFFFFFFFE
001FFFFFFFFFFFFFFE
007FFFFFFFFFFFFFFE
01FFFFFFFFFFFFFFFE
03FFFFFFFFFFFFFFFE
07FFFFFFFFFFFFFFFE
0FFFFFFFFFFFFFFFFE
0FFFFF3FFFFFFFFFFE
1FFFFC3FFFFFFFFFFE
3FFFF83FFFFFFFFFFE
3FFFF03FFFF8000000
3FFFF03FFFF8000000
7FFFE03FFFF8000000
7FFFE03FFFF8000000
7FFFE03FFFF8000000
7FFFE03FFFF8000000
FFFFC03FFFF807FFFE
FFFFC03FFFF807FFFE
FFFFC03FFFF807FFFE
FFFFC03FFFF807FFFE
FFFFC03FFFF807FFFE
FFFFC03FFFF807FFFE
FFFFC03FFFF807FFFE
FFFFC03FFFF807FFFE
FFFFC03FFFF807FFFE
FFFFC03FFFF807FFFE
FFFFE03FFFF807FFFE
FFFFE03FFFF807FFFE
FFFFE03FFFFC07FFFE
FFFFE03FFFFC07FFFE
7FFFF07FFFFE0FFFFE
7FFFF8FFFFFF1FFFFC
7FFFFFFFFFFFFFFFFC
3FFFFFFFFFFFFFFFFC
3FFFFFFFFFFFFFFFF8
3FFFFFFFFFFFFFFFF8
1FFFFFFFFFFFFFFFF8
1FFFFFFFFFFFFFFFF0
0FFFFFFFFFFFFFFFF0
07FFFFFFE7FFFFFFE0
03FFFFFFC3FFFFFFC0
01FFFFFF81FFFFFF80
00FFFFFF00FFFFFF00
003FFFFE007FFFFE00
000FFFF8001FFFF000
0001FFC00003FF8000
ENDCHAR
STARTCHAR ccedilla
ENCODING 231
SWIDTH 491 0
DWIDTH 51 0
BBX 45 109 3 -32
BITMAP
000001000000
0001FFFE0000
000FFFFFC000
003FFFFFF000
00FFFFFFFC00
01FFFFFFFE00
03FFFFFFFF00
07FFFFFFFF80
0FFFFFFFFFC0
0FFFFFFFFFE0
1FFFFFFFFFE0
1FFFFFFFFFF0
3FFFFFFFFFF0
3FFFFFFFFFF0
3FFFFFFFFFF8
7FFFF03FFFF8
7FFFE03FFFF8
7FFFE03FFFF8
7FFFE01FFFF8
7FFFC01FFFF8
FFFFC01FFFF8
FFFFC01FFFF8
FFFFC01FFFF8
FFFFC01FFFF8
FFFFC01FFFF8
FFFFC01FFFF8
FFFFC01FFFF8
FFFFC01FFFF8
FFFFC01FFFF8
FFFFC01FFFF8
FFFFC01FFFF8
FFFFC0000000
FFFFC0000000
FFFFC0000000
FFFFC0000000
FFFFC0000000
FFFFC0000000
FFFFC0000000
FFFFC0000000
FFFFC0000000
FFFFC0000000
FFFFC0000000
FFFFC0000000
FFFFC0000000
FFFFC0000000
FFFFC01FFFF8
FFFFC01FFFF8
FFFFC01FFFF8
FFFFC01FFFF8
FFFFC01FFFF8
FFFFC01FFFF8
FFFFC01FFFF8
FFFFC01FFFF8
FFFFC01FFFF8
FFFFC01FFFF8
FFFFC01FFFF8
FFFFC01FFFF8
FFFFC01FFFF8
FFFFC01FFFF8
7FFFC01FFFF8
7FFFE01FFFF8
7FFFE03FFFF8
7FFFF03FFFF8
7FFFF8FFFFF8
3FFFFFFFFFF8
3FFFFFFFFFF0
3FFFFFFFFFF0
1FFFFFFFFFE0
1FFFFFFFFFE0
0FFFFFFFFFC0
07FFFFFFFFC0
07FFFFFFFF80
03FFFFFFFF00
01FFFFFFFE00
007FFFFFF800
001FFFFFF000
0007FFFF8000
00007FFC0000
00001FF00000
00000FF80000
00000FFC0000
000007FC0000
000007FE0000
000003FF0000
000003FF8000
000001FF8000
000001FFC000
000001FFE000
000001FFE000
000000FFE000
000000FFF000
000000FFF000
000001FFF000
000001FFF800
000001FFF800
000003FFF800
000C07FFF800
000FFFFFF800
000FFFFFF800
000FFFFFF800
000FFFFFF000
000FFFFFF000
000FFFFFF000
000FFFFFE000
000FFFFFC000
000FFFFF8000
000FFFFF0000
0007FFFC0000
00007FE00000
ENDCHAR
STARTCHAR egrave
ENCODING 232
SWIDTH 488 0
DWIDTH 51 0
BBX 45 103 3 -1
BITMAP
001800000000
001E00000000
001F80000000
001FE0000000
001FFC000000
001FFF000000
001FFFC00000
001FFFF00000
001FFFFC0000
001FFFFF0000
001FFFFFE000
001FFFFFE000
001FFFFFE000
001FFFFFE000
001FFFFFE000
001FFFFFE000
001FFFFFE000
000FFFFFE000
00007FFFE000
000003FFE000
0000001FE000
00000000E000
000000000000
000000000000
000000000000
000002000000
0001FFFE0000
000FFFFFC000
003FFFFFF000
00FFFFFFFC00
01FFFFFFFE00
03FFFFFFFF00
07FFFFFFFF80
0FFFFFFFFF80
1FFFFFFFFFC0
1FFFFFFFFFE0
3FFFFFFFFFE0
3FFFFFFFFFE0
7FFFFFFFFFF0
7FFFFFFFFFF0
7FFFF07FFFF0
FFFFE03FFFF0
FFFFE03FFFF8
FFFFE03FFFF8
FFFFC01FFFF8
FFFFC01FFFF8
FFFFC01FFFF8
FFFFC01FFFF8
FFFFC01FFFF8
FFFFC01FFFF8
FFFFC01FFFF8
FFFFC01FFFF8
FFFFC01FFFF8
FFFFC01FFFF8
FFFFC01FFFF8
FFFFC01FFFF8
FFFFC01FFFF8
FFFFFFFFFFF8
FFFFFFFFFFF8
FFFFFFFFFFF8
FFFFFFFFFFF8
FFFFFFFFFFF8
FFFFFFFFFFF8
FFFFFFFFFFF8
FFFFFFFFFFF8
FFFFFFFFFFF8
FFFFC0000000
FFFFC0000000
FFFFC0000000
FFFFC0000000
FFFFC0000000
FFFFC0000000
FFFFC0000000
FFFFC01FFFF8
FFFFC01FFFF8
FFFFC01FFFF8
FFFFC01FFFF8
FFFFC01FFFF8
FFFFC01FFFF8
FFFFC01FFFF8
FFFFC01FFFF8
FFFFC01FFFF8
FFFFC01FFFF8
FFFFC01FFFF8
FFFFC01FFFF0
7FFFE03FFFF0
7FFFE03FFFF0
7FFFE03FFFF0
7FFFF87FFFF0
3FFFFFFFFFE0
3FFFFFFFFFE0
3FFFFFFFFFE0
1FFFFFFFFFC0
1FFFFFFFFFC0
0FFFFFFFFF80
0FFFFFFFFF80
07FFFFFFFF00
03FFFFFFFE00
01FFFFFFFC00
00FFFFFFF800
003FFFFFE000
000FFFFF0000
0000FFF00000
ENDCHAR
STARTCHAR eacute
ENCODING 233
SWIDTH 488 0
DWIDTH 51 0
BBX 45 103 3 -1
BITMAP
000000006000
00000001E000
00000007E000
0000003FE000
000000FFE000
000003FFE000
00000FFFE000
00003FFFE000
0000FFFFE000
0007FFFFE000
001FFFFFE000
001FFFFFE000
001FFFFFE000
001FFFFFE000
001FFFFFE000
001FFFFFE000
001FFFFFE000
001FFFFFC000
001FFFF80000
001FFF000000
001FE0000000
001C00000000
000000000000
000000000000
000000000000
000002000000
0001FFFE0000
000FFFFFC000
003FFFFFF000
00FFFFFFFC00
01FFFFFFFE00
03FFFFFFFF00
07FFFFFFFF80
0FFFFFFFFF80
1FFFFFFFFFC0
1FFFFFFFFFE0
3FFFFFFFFFE0
3FFFFFFFFFE0
7FFFFFFFFFF0
7FFFFFFFFFF0
7FFFF07FFFF0
FFFFE03FFFF0
FFFFE03FFFF8
FFFFE03FFFF8
FFFFC01FFFF8
FFFFC01FFFF8
FFFFC01FFFF8
FFFFC01FFFF8
FFFFC01FFFF8
FFFFC01FFFF8
FFFFC01FFFF8
FFFFC01FFFF8
FFFFC01FFFF8
FFFFC01FFFF8
FFFFC01FFFF8
FFFFC01FFFF8
FFFFC01FFFF8
FFFFFFFFFFF8
FFFFFFFFFFF8
FFFFFFFFFFF8
FFFFFFFFFFF8
FFFFFFFFFFF8
FFFFFFFFFFF8
FFFFFFFFFFF8
FFFFFFFFFFF8
FFFFFFFFFFF8
FFFFC0000000
FFFFC0000000
FFFFC0000000
FFFFC0000000
FFFFC0000000
FFFFC0000000
FFFFC0000000
FFFFC01FFFF8
FFFFC01FFFF8
FFFFC01FFFF8
FFFFC01FFFF8
FFFFC01FFFF8
FFFFC01FFFF8
FFFFC01FFFF8
FFFFC01FFFF8
FFFFC01FFFF8
FFFFC01FFFF8
FFFFC01FFFF8
FFFFC01FFFF0
7FFFE03FFFF0
7FFFE03FFFF0
7FFFE03FFFF0
7FFFF87FFFF0
3FFFFFFFFFE0
3FFFFFFFFFE0
3FFFFFFFFFE0
1FFFFFFFFFC0
1FFFFFFFFFC0
0FFFFFFFFF80
0FFFFFFFFF80
07FFFFFFFF00
03FFFFFFFE00
01FFFFFFFC00
00FFFFFFF800
003FFFFFE000
000FFFFF0000
0000FFF00000
ENDCHAR
STARTCHAR ecircumflex
ENCODING 234
SWIDTH 488 0
DWIDTH 51 0
BBX 45 103 3 -1
BITMAP
000FFFFF8000
001FFFFFC000
001FFFFFC000
003FFFFFE000
007FFFFFF000
007FFFFFF000
00FFFDFFF800
00FFFDFFFC00
01FFFDFFFC00
03FFFCFFFE00
03FFF8FFFE00
07FFF8FFFF00
07FFF87FFF80
0FFFF07FFF80
1FFFF07FFFC0
1FFFF03FFFC0
3FFFE03FFFE0
3FFFE03FFFF0
7FFFE01FFFF0
FFFFC01FFFF8
000000000000
000000000000
000000000000
000000000000
000000000000
000002000000
0001FFFE0000
000FFFFFC000
003FFFFFF000
00FFFFFFFC00
01FFFFFFFE00
03FFFFFFFF00
07FFFFFFFF80
0FFFFFFFFF80
1FFFFFFFFFC0
1FFFFFFFFFE0
3FFFFFFFFFE0
3FFFFFFFFFE0
7FFFFFFFFFF0
7FFFFFFFFFF0
7FFFF07FFFF0
FFFFE03FFFF0
FFFFE03FFFF8
FFFFE03FFFF8
FFFFC01FFFF8
FFFFC01FFFF8
FFFFC01FFFF8
FFFFC01FFFF8
FFFFC01FFFF8
FFFFC01FFFF8
FFFFC01FFFF8
FFFFC01FFFF8
FFFFC01FFFF8
FFFFC01FFFF8
FFFFC01FFFF8
FFFFC01FFFF8
FFFFC01FFFF8
FFFFFFFFFFF8
FFFFFFFFFFF8
FFFFFFFFFFF8
FFFFFFFFFFF8
FFFFFFFFFFF8
FFFFFFFFFFF8
FFFFFFFFFFF8
FFFFFFFFFFF8
FFFFFFFFFFF8
FFFFC0000000
FFFFC0000000
FFFFC0000000
FFFFC0000000
FFFFC0000000
FFFFC0000000
FFFFC0000000
FFFFC01FFFF8
FFFFC01FFFF8
FFFFC01FFFF8
FFFFC01FFFF8
FFFFC01FFFF8
FFFFC01FFFF8
FFFFC01FFFF8
FFFFC01FFFF8
FFFFC01FFFF8
FFFFC01FFFF8
FFFFC01FFFF8
FFFFC01FFFF0
7FFFE03FFFF0
7FFFE03FFFF0
7FFFE03FFFF0
7FFFF87FFFF0
3FFFFFFFFFE0
3FFFFFFFFFE0
3FFFFFFFFFE0
1FFFFFFFFFC0
1FFFFFFFFFC0
0FFFFFFFFF80
0FFFFFFFFF80
07FFFFFFFF00
03FFFFFFFE00
01FFFFFFFC00
00FFFFFFF800
003FFFFFE000
000FFFFF0000
0000FFF00000
ENDCHAR
STARTCHAR edieresis
ENCODING 235
SWIDTH 488 0
DWIDTH 51 0
BBX 45 98 3 -1
BITMAP
7FFFF03FFFF0
7FFFF03FFFF0
7FFFF03FFFF0
7FFFF03FFFF0
7FFFF03FFFF0
7FFFF03FFFF0
7FFFF03FFFF0
7FFFF03FFFF0
7FFFF03FFFF0
7FFFF03FFFF0
7FFFF03FFFF0
7FFFF03FFFF0
7FFFF03FFFF0
7FFFF03FFFF0
7FFFF03FFFF0
000000000000
000000000000
000000000000
000000000000
000000000000
000002000000
0001FFFE0000
000FFFFFC000
003FFFFFF000
00FFFFFFFC00
01FFFFFFFE00
03FFFFFFFF00
07FFFFFFFF80
0FFFFFFFFF80
1FFFFFFFFFC0
1FFFFFFFFFE0
3FFFFFFFFFE0
3FFFFFFFFFE0
7FFFFFFFFFF0
7FFFFFFFFFF0
7FFFF07FFFF0
FFFFE03FFFF0
FFFFE03FFFF8
FFFFE03FFFF8
FFFFC01FFFF8
FFFFC01FFFF8
FFFFC01FFFF8
FFFFC01FFFF8
FFFFC01FFFF8
FFFFC01FFFF8
FFFFC01FFFF8
FFFFC01FFFF8
FFFFC01FFFF8
FFFFC01FFFF8
FFFFC01FFFF8
FFFFC01FFFF8
FFFFC01FFFF8
FFFFFFFFFFF8
FFFFFFFFFFF8
FFFFFFFFFFF8
FFFFFFFFFFF8
FFFFFFFFFFF8
FFFFFFFFFFF8
FFFFFFFFFFF8
FFFFFFFFFFF8
FFFFFFFFFFF8
FFFFC0000000
FFFFC0000000
FFFFC0000000
FFFFC0000000
FFFFC0000000
FFFFC0000000
FFFFC0000000
FFFFC01FFFF8
FFFFC01FFFF8
FFFFC01FFFF8
FFFFC01FFFF8
FFFFC01FFFF8
FFFFC01FFFF8
FFFFC01FFFF8
FFFFC01FFFF8
FFFFC01FFFF8
FFFFC01FFFF8
FFFFC01FFFF8
FFFFC01FFFF0
7FFFE03FFFF0
7FFFE03FFFF0
7FFFE03FFFF0
7FFFF87FFFF0
3FFFFFFFFFE0
3FFFFFFFFFE0
3FFFFFFFFFE0
1FFFFFFFFFC0
1FFFFFFFFFC0
0FFFFFFFFF80
0FFFFFFFFF80
07FFFFFFFF00
03FFFFFFFE00
01FFFFFFFC00
00FFFFFFF800
003FFFFFE000
000FFFFF0000
0000FFF00000
ENDCHAR
STARTCHAR igrave
ENCODING 236
SWIDTH 235 0
DWIDTH 24 0
BBX 24 101 0 0
BITMAP
C00000
F00000
FC0000
FF8000
FFE000
FFF800
FFFE00
FFFF80
FFFFE0
FFFFFC
FFFFFF
FFFFFF
FFFFFF
FFFFFF
FFFFFF
FFFFFF
FFFFFF
7FFFFF
03FFFF
001FFF
0000FF
000007
000000
000000
000000
1FFFF8
1FFFF8
1FFFF8
1FFFF8
1FFFF8
1FFFF8
1FFFF8
1FFFF8
1FFFF8
1FFFF8
1FFFF8
1FFFF8
1FFFF8
1FFFF8
1FFFF8
1FFFF8
1FFFF8
1FFFF8
1FFFF8
1FFFF8
1FFFF8
1FFFF8
1FFFF8
1FFFF8
1FFFF8
1FFFF8
1FFFF8
1FFFF8
1FFFF8
1FFFF8
1FFFF8
1FFFF8
1FFFF8
1FFFF8
1FFFF8
1FFFF8
1FFFF8
1FFFF8
1FFFF8
1FFFF8
1FFFF8
1FFFF8
1FFFF8
1FFFF8
1FFFF8
1FFFF8
1FFFF8
1FFFF8
1FFFF8
1FFFF8
1FFFF8
1FFFF8
1FFFF8
1FFFF8
1FFFF8
1FFFF8
1FFFF8
1FFFF8
1FFFF8
1FFFF8
1FFFF8
1FFFF8
1FFFF8
1FFFF8
1FFFF8
1FFFF8
1FFFF8
1FFFF8
1FFFF8
1FFFF8
1FFFF8
1FFFF8
1FFFF8
1FFFF8
1FFFF8
1FFFF8
ENDCHAR
STARTCHAR iacute
ENCODING 237
SWIDTH 235 0
DWIDTH 24 0
BBX 24 101 0 0
BITMAP
000003
00000F
00003F
0000FF
0003FF
000FFF
007FFF
01FFFF
07FFFF
1FFFFF
7FFFFF
FFFFFF
FFFFFF
FFFFFF
FFFFFF
FFFFFF
FFFFFF
FFFFFE
FFFFC0
FFF800
FF0000
E00000
000000
000000
000000
1FFFF8
1FFFF8
1FFFF8
1FFFF8
1FFFF8
1FFFF8
1FFFF8
1FFFF8
1FFFF8
1FFFF8
1FFFF8
1FFFF8
1FFFF8
1FFFF8
1FFFF8
1FFFF8
1FFFF8
1FFFF8
1FFFF8
1FFFF8
1FFFF8
1FFFF8
1FFFF8
1FFFF8
1FFFF8
1FFFF8
1FFFF8
1FFFF8
1FFFF8
1FFFF8
1FFFF8
1FFFF8
1FFFF8
1FFFF8
1FFFF8
1FFFF8
1FFFF8
1FFFF8
1FFFF8
1FFFF8
1FFFF8
1FFFF8
1FFFF8
1FFFF8
1FFFF8
1FFFF8
1FFFF8
1FFFF8
1FFFF8
1FFFF8
1FFFF8
1FFFF8
1FFFF8
1FFFF8
1FFFF8
1FFFF8
1FFFF8
1FFFF8
1FFFF8
1FFFF8
1FFFF8
1FFFF8
1FFFF8
1FFFF8
1FFFF8
1FFFF8
1FFFF8
1FFFF8
1FFFF8
1FFFF8
1FFFF8
1FFFF8
1FFFF8
1FFFF8
1FFFF8
1FFFF8
ENDCHAR
STARTCHAR icircumflex
ENCODING 238
SWIDTH 235 0
DWIDTH 24 0
BBX 45 101 -10 0
BITMAP
000FFFFF8000
001FFFFF8000
003FFFFFC000
003FFFFFE000
007FFFFFE000
007FFFFFF000
00FFFFFFF800
01FFFDFFF800
01FFFDFFFC00
03FFF9FFFC00
07FFF8FFFE00
07FFF8FFFF00
0FFFF0FFFF00
0FFFF07FFF80
1FFFF07FFF80
3FFFE07FFFC0
3FFFE03FFFE0
7FFFE03FFFE0
7FFFC03FFFF0
FFFFC03FFFF8
000000000000
000000000000
000000000000
000000000000
000000000000
0007FFFE0000
0007FFFE0000
0007FFFE0000
0007FFFE0000
0007FFFE0000
0007FFFE0000
0007FFFE0000
0007FFFE0000
0007FFFE0000
0007FFFE0000
0007FFFE0000
0007FFFE0000
0007FFFE0000
0007FFFE0000
0007FFFE0000
0007FFFE0000
0007FFFE0000
0007FFFE0000
0007FFFE0000
0007FFFE0000
0007FFFE0000
0007FFFE0000
0007FFFE0000
0007FFFE0000
0007FFFE0000
0007FFFE0000
0007FFFE0000
0007FFFE0000
0007FFFE0000
0007FFFE0000
0007FFFE0000
0007FFFE0000
0007FFFE0000
0007FFFE0000
0007FFFE0000
0007FFFE0000
0007FFFE0000
0007FFFE0000
0007FFFE0000
0007FFFE0000
0007FFFE0000
0007FFFE0000
0007FFFE0000
0007FFFE0000
0007FFFE0000
0007FFFE0000
0007FFFE0000
0007FFFE0000
0007FFFE0000
0007FFFE0000
0007FFFE0000
0007FFFE0000
0007FFFE0000
0007FFFE0000
0007FFFE0000
0007FFFE0000
0007FFFE0000
0007FFFE0000
0007FFFE0000
0007FFFE0000
0007FFFE0000
0007FFFE0000
0007FFFE0000
0007FFFE0000
0007FFFE0000
0007FFFE0000
0007FFFE0000
0007FFFE0000
0007FFFE0000
0007FFFE0000
0007FFFE0000
0007FFFE0000
0007FFFE0000
0007FFFE0000
0007FFFE0000
0007FFFE0000
ENDCHAR
STARTCHAR idieresis
ENCODING 239
SWIDTH 235 0
DWIDTH 24 0
BBX 42 96 -9 0
BITMAP
FFFFC0FFFFC0
FFFFC0FFFFC0
FFFFC0FFFFC0
FFFFC0FFFFC0
FFFFC0FFFFC0
FFFFC0FFFFC0
FFFFC0FFFFC0
FFFFC0FFFFC0
FFFFC0FFFFC0
FFFFC0FFFFC0
FFFFC0FFFFC0
FFFFC0FFFFC0
FFFFC0FFFFC0
FFFFC0FFFFC0
FFFFC0FFFFC0
000000000000
000000000000
000000000000
000000000000
000000000000
000FFFFC0000
000FFFFC0000
000FFFFC0000
000FFFFC0000
000FFFFC0000
000FFFFC0000
000FFFFC0000
000FFFFC0000
000FFFFC0000
000FFFFC0000
000FFFFC0000
000FFFFC0000
000FFFFC0000
000FFFFC0000
000FFFFC0000
000FFFFC0000
000FFFFC0000
000FFFFC0000
000FFFFC0000
000FFFFC0000
000FFFFC0000
000FFFFC0000
000FFFFC0000
000FFFFC0000
000FFFFC0000
000FFFFC0000
000FFFFC0000
000FFFFC0000
000FFFFC0000
000FFFFC0000
000FFFFC0000
000FFFFC0000
000FFFFC0000
000FFFFC0000
000FFFFC0000
000FFFFC0000
000FFFFC0000
000FFFFC0000
000FFFFC0000
000FFFFC0000
000FFFFC0000
000FFFFC0000
000FFFFC0000
000FFFFC0000
000FFFFC0000
000FFFFC0000
000FFFFC0000
000FFFFC0000
000FFFFC0000
000FFFFC0000
000FFFFC0000
000FFFFC0000
000FFFFC0000
000FFFFC0000
000FFFFC0000
000FFFFC0000
000FFFFC0000
000FFFFC0000
000FFFFC0000
000FFFFC0000
000FFFFC0000
000FFFFC0000
000FFFFC0000
000FFFFC0000
000FFFFC0000
000FFFFC0000
000FFFFC0000
000FFFFC0000
000FFFFC0000
000FFFFC0000
000FFFFC0000
000FFFFC0000
000FFFFC0000
000FFFFC0000
000FFFFC0000
000FFFFC0000
ENDCHAR
STARTCHAR eth
ENCODING 240
SWIDTH 503 0
DWIDTH 52 0
BBX 49 91 3 -1
BITMAP
03000000000000
03F80000000000
07FE0000000000
07FFC000000000
0FFFF000000000
0FFFFC00003000
1FFFFE0000F800
1FFFFF8001F800
1FFFFFC007FC00
3FFFFFF00FFE00
3FFFFFF83FFE00
7FFFFFFC7FFF00
0FFFFFFFFFFF80
03FFFFFFFFFE00
00FFFFFFFFFC00
003FFFFFFFF000
000FFFFFFFE000
0007FFFFFF8000
0003FFFFFF0000
0000FFFFFC0000
00007FFFFC0000
00007FFFFE0000
0000FFFFFE0000
0003FFFFFF0000
000FFFFFFF8000
001FFFFFFF8000
007FFFFFFFC000
007FFFFFFFC000
003FFFFFFFE000
001FFE7FFFE000
001FF87FFFE000
000FF03FFFF000
0007C03FFFF000
0007801FFFF800
0002001FFFF800
0000000FFFF800
0000000FFFF800
0000000FFFFC00
00000007FFFC00
00000007FFFC00
0001FF87FFFC00
001FFFF7FFFE00
007FFFFFFFFE00
01FFFFFFFFFE00
03FFFFFFFFFE00
07FFFFFFFFFE00
0FFFFFFFFFFE00
0FFFFFFFFFFE00
1FFFFFFFFFFE00
3FFFFFFFFFFE00
3FFFFFFFFFFE00
7FFFFFFFFFFE00
7FFFFFFFFFFE00
7FFFFFFFFFFE00
7FFFFC3FFFFE00
FFFFF01FFFFE00
FFFFF00FFFFE00
FFFFF00FFFFE00
FFFFE00FFFFE00
FFFFE007FFFE00
FFFFE007FFFE00
FFFFE007FFFE00
FFFFE007FFFE00
FFFFE007FFFE00
FFFFE007FFFE00
FFFFE007FFFE00
FFFFE007FFFE00
FFFFE007FFFE00
FFFFE007FFFE00
FFFFE007FFFE00
FFFFE007FFFE00
FFFFE00FFFFE00
FFFFF00FFFFE00
FFFFF00FFFFC00
FFFFF01FFFFC00
7FFFF83FFFFC00
7FFFFFFFFFFC00
7FFFFFFFFFF800
7FFFFFFFFFF800
3FFFFFFFFFF800
3FFFFFFFFFF000
1FFFFFFFFFF000
1FFFFFFFFFE000
0FFFFFFFFFC000
07FFFFFFFFC000
03FFFFFFFF8000
01FFFFFFFF0000
00FFFFFFFC0000
003FFFFFF00000
000FFFFFC00000
0000FFFC000000
ENDCHAR
STARTCHAR ntilde
ENCODING 241
SWIDTH 499 0
DWIDTH 52 0
BBX 44 98 4 0
BITMAP
003FC0002000
00FFF8003C00
03FFFF007F80
07FFFFE0FFE0
07FFFFFFFFC0
0FFFFFFFFFC0
1FFFFFFFFFC0
1FFFFFFFFF80
3FFFFFFFFF80
3FFFFFFFFF00
7FFFFFFFFF00
7FFFFFFFFE00
1FE0FFFFFC00
07C01FFFF800
018003FFF000
0000003FC000
000000000000
000000000000
000000000000
000000000000
000000000000
000000040000
FFFFC0FFE000
FFFFC1FFFC00
FFFFC3FFFE00
FFFFC7FFFF00
FFFFCFFFFF80
FFFFDFFFFFC0
FFFFDFFFFFC0
FFFFDFFFFFE0
FFFFFFFFFFE0
FFFFFFFFFFE0
FFFFFFFFFFF0
FFFFFFFFFFF0
FFFFFFFFFFF0
FFFFF8FFFFF0
FFFFE07FFFF0
FFFFE03FFFF0
FFFFC03FFFF0
FFFFC03FFFF0
FFFFC03FFFF0
FFFFC03FFFF0
FFFFC03FFFF0
FFFFC03FFFF0
FFFFC03FFFF0
FFFFC03FFFF0
FFFFC03FFFF0
FFFFC03FFFF0
FFFFC03FFFF0
FFFFC03FFFF0
FFFFC03FFFF0
FFFFC03FFFF0
FFFFC03FFFF0
FFFFC03FFFF0
FFFFC03FFFF0
FFFFC03FFFF0
FFFFC03FFFF0
FFFFC03FFFF0
FFFFC03FFFF0
FFFFC03FFFF0
FFFFC03FFFF0
FFFFC03FFFF0
FFFFC03FFFF0
FFFFC03FFFF0
FFFFC03FFFF0
FFFFC03FFFF0
FFFFC03FFFF0
FFFFC03FFFF0
FFFFC03FFFF0
FFFFC03FFFF0
FFFFC03FFFF0
FFFFC03FFFF0
FFFFC03FFFF0
FFFFC03FFFF0
FFFFC03FFFF0
FFFFC03FFFF0
FFFFC03FFFF0
FFFFC03FFFF0
FFFFC03FFFF0
FFFFC03FFFF0
FFFFC03FFFF0
FFFFC03FFFF0
FFFFC03FFFF0
FFFFC03FFFF0
FFFFC03FFFF0
FFFFC03FFFF0
FFFFC03FFFF0
FFFFC03FFFF0
FFFFC03FFFF0
FFFFC03FFFF0
FFFFC03FFFF0
FFFFC03FFFF0
FFFFC03FFFF0
FFFFC03FFFF0
FFFFC03FFFF0
FFFFC03FFFF0
FFFFC03FFFF0
FFFFC03FFFF0
ENDCHAR
STARTCHAR ograve
ENCODING 242
SWIDTH 497 0
DWIDTH 52 0
BBX 46 103 3 -1
BITMAP
001800000000
001E00000000
001F80000000
001FE0000000
001FFC000000
001FFF000000
001FFFC00000
001FFFF00000
001FFFFC0000
001FFFFF0000
001FFFFFE000
001FFFFFE000
001FFFFFE000
001FFFFFE000
001FFFFFE000
001FFFFFE000
001FFFFFE000
000FFFFFE000
00007FFFE000
000003FFE000
0000001FE000
00000000E000
000000000000
000000000000
000000000000
000002000000
0001FFFC0000
000FFFFF8000
003FFFFFE000
007FFFFFF800
00FFFFFFFC00
03FFFFFFFE00
03FFFFFFFF00
07FFFFFFFF80
0FFFFFFFFFC0
1FFFFFFFFFC0
1FFFFFFFFFE0
3FFFFFFFFFE0
3FFFFFFFFFF0
7FFFFFFFFFF0
7FFFF07FFFF0
7FFFE03FFFF8
7FFFE01FFFF8
FFFFE01FFFF8
FFFFE01FFFF8
FFFFE01FFFF8
FFFFE01FFFF8
FFFFE01FFFFC
FFFFE01FFFFC
FFFFE01FFFFC
FFFFE01FFFFC
FFFFE01FFFFC
FFFFE01FFFFC
FFFFE01FFFFC
FFFFE01FFFFC
FFFFE01FFFFC
FFFFE01FFFFC
FFFFE01FFFFC
FFFFE01FFFFC
FFFFE01FFFFC
FFFFE01FFFFC
FFFFE01FFFFC
FFFFE01FFFFC
FFFFE01FFFFC
FFFFE01FFFFC
FFFFE01FFFFC
FFFFE01FFFFC
FFFFE01FFFFC
FFFFE01FFFFC
FFFFE01FFFFC
FFFFE01FFFFC
FFFFE01FFFFC
FFFFE01FFFFC
FFFFE01FFFFC
FFFFE01FFFFC
FFFFE01FFFFC
FFFFE01FFFFC
FFFFE01FFFFC
FFFFE01FFFFC
FFFFE01FFFFC
FFFFE01FFFFC
FFFFE01FFFFC
FFFFE01FFFF8
FFFFE01FFFF8
FFFFE01FFFF8
FFFFE01FFFF8
7FFFE03FFFF8
7FFFF03FFFF8
7FFFF87FFFF8
7FFFFFFFFFF0
3FFFFFFFFFF0
3FFFFFFFFFE0
3FFFFFFFFFE0
1FFFFFFFFFE0
0FFFFFFFFFC0
0FFFFFFFFF80
07FFFFFFFF00
03FFFFFFFE00
01FFFFFFFC00
007FFFFFF800
003FFFFFE000
0007FFFF8000
00007FF80000
ENDCHAR
ENDFONT
